<svg width="24" height="24" viewBox="0 0 24 24" fill="none" xmlns="http://www.w3.org/2000/svg">
<g clip-path="url(#clip0_167_1594)">
<path d="M0 8.05C0 5.20255 0 3.77882 0.562933 2.69513C1.03731 1.78191 1.78191 1.03731 2.69513 0.562933C3.77882 0 5.20255 0 8.05 0H15.95C18.7975 0 20.2212 0 21.3049 0.562933C22.2181 1.03731 22.9627 1.78191 23.4371 2.69513C24 3.77882 24 5.20255 24 8.05V15.95C24 18.7975 24 20.2212 23.4371 21.3049C22.9627 22.2181 22.2181 22.9627 21.3049 23.4371C20.2212 24 18.7975 24 15.95 24H8.05C5.20255 24 3.77882 24 2.69513 23.4371C1.78191 22.9627 1.03731 22.2181 0.562933 21.3049C0 20.2212 0 18.7975 0 15.95V8.05Z" fill="#263238"/>
<path d="M16.6667 15.3332L17.2 11.9998H14V9.6665C14 8.73317 14.3333 7.99984 15.8 7.99984H17.3333V4.93317C16.4667 4.79984 15.5333 4.6665 14.6667 4.6665C11.9333 4.6665 10 6.33317 10 9.33317V11.9998H7V15.3332H10V23.9998C11.3333 23.9998 12.6667 23.9998 14 23.9998V15.3332H16.6667Z" fill="#F6F9F6"/>
</g>
<defs>
<clipPath id="clip0_167_1594">
<rect width="24" height="24" fill="white"/>
</clipPath>
</defs>
</svg>
