<svg width="24" height="24" viewBox="0 0 24 24" fill="none" xmlns="http://www.w3.org/2000/svg">
<g clip-path="url(#clip0_167_1592)">
<path d="M0.25 8.05C0.25 6.62208 0.250201 5.56642 0.319509 4.73184C0.388569 3.90026 0.524946 3.31059 0.784786 2.81037C1.23544 1.94282 1.94282 1.23544 2.81037 0.784786C3.31059 0.524946 3.90026 0.388569 4.73184 0.319509C5.56642 0.250201 6.62208 0.25 8.05 0.25H15.95C17.3779 0.25 18.4336 0.250201 19.2682 0.319509C20.0997 0.388569 20.6894 0.524946 21.1896 0.784786C22.0572 1.23544 22.7646 1.94282 23.2152 2.81037C23.4751 3.31059 23.6114 3.90026 23.6805 4.73184C23.7498 5.56642 23.75 6.62208 23.75 8.05V15.95C23.75 17.3779 23.7498 18.4336 23.6805 19.2682C23.6114 20.0997 23.4751 20.6894 23.2152 21.1896C22.7646 22.0572 22.0572 22.7646 21.1896 23.2152C20.6894 23.4751 20.0997 23.6114 19.2682 23.6805C18.4336 23.7498 17.3779 23.75 15.95 23.75H8.05C6.62208 23.75 5.56642 23.7498 4.73184 23.6805C3.90026 23.6114 3.31059 23.4751 2.81037 23.2152C1.94282 22.7646 1.23544 22.0572 0.784786 21.1896C0.524946 20.6894 0.388569 20.0997 0.319509 19.2682C0.250201 18.4336 0.25 17.3779 0.25 15.95V8.05Z" fill="#F6F9F6" stroke="#263238" stroke-width="0.5"/>
<path fill-rule="evenodd" clip-rule="evenodd" d="M20.16 12.1932C20.16 11.5905 20.1059 11.011 20.0055 10.4546H12V13.7425H16.5746C16.3775 14.8051 15.7786 15.7053 14.8784 16.308V18.4407H17.6255C19.2327 16.961 20.16 14.7819 20.16 12.1932Z" fill="#263238"/>
<path fill-rule="evenodd" clip-rule="evenodd" d="M12.0002 20.5002C14.2952 20.5002 16.2193 19.7391 17.6257 18.4409L14.8786 16.3082C14.1175 16.8182 13.1439 17.1196 12.0002 17.1196C9.78635 17.1196 7.91248 15.6243 7.24407 13.6152H4.4043V15.8175C5.80294 18.5955 8.67749 20.5002 12.0002 20.5002Z" fill="#263238"/>
<path fill-rule="evenodd" clip-rule="evenodd" d="M7.24387 13.6149C7.07387 13.1049 6.97728 12.5601 6.97728 11.9999C6.97728 11.4397 7.07387 10.8949 7.24387 10.3849V8.18262H4.40409C3.82841 9.33012 3.5 10.6283 3.5 11.9999C3.5 13.3715 3.82841 14.6697 4.40409 15.8172L7.24387 13.6149Z" fill="#263238"/>
<path fill-rule="evenodd" clip-rule="evenodd" d="M12.0002 6.88069C13.2482 6.88069 14.3686 7.30955 15.2495 8.15183L17.6875 5.71387C16.2155 4.34227 14.2914 3.5 12.0002 3.5C8.67748 3.5 5.80294 5.40478 4.4043 8.18273L7.24407 10.385C7.91248 8.37592 9.78635 6.88069 12.0002 6.88069Z" fill="#263238"/>
</g>
<defs>
<clipPath id="clip0_167_1592">
<rect width="24" height="24" fill="white"/>
</clipPath>
</defs>
</svg>
