<svg width="300" height="227" viewBox="0 0 300 227" fill="none" xmlns="http://www.w3.org/2000/svg">
<path d="M300 199.445H0V199.595H300V199.445Z" fill="#E6E6E6"/>
<path d="M46.9322 206.143H30.9902V206.293H46.9322V206.143Z" fill="#E6E6E6"/>
<path d="M52.698 203.143H38.958V203.293H52.698V203.143Z" fill="#E6E6E6"/>
<path d="M195.246 203.586H158.376V203.736H195.246V203.586Z" fill="#E6E6E6"/>
<path d="M207.546 203.586H198.702V203.736H207.546V203.586Z" fill="#E6E6E6"/>
<path d="M257.832 204.611H228.636V204.761H257.832V204.611Z" fill="#E6E6E6"/>
<path d="M115.902 207.006H63.9238V207.156H115.902V207.006Z" fill="#E6E6E6"/>
<path d="M267.354 204.611H263.1V204.761H267.354V204.611Z" fill="#E6E6E6"/>
<path d="M142.2 172.686H26.3458C25.4382 172.684 24.5683 172.323 23.9271 171.68C23.2859 171.038 22.9258 170.167 22.9258 169.26V6.40186C22.9337 5.49947 23.2973 4.63665 23.9376 4.00079C24.578 3.36493 25.4434 3.00741 26.3458 3.00586H142.2C143.108 3.00586 143.98 3.36681 144.622 4.00931C145.265 4.65181 145.626 5.52323 145.626 6.43186V169.26C145.626 170.169 145.265 171.04 144.622 171.682C143.98 172.325 143.108 172.686 142.2 172.686ZM26.3458 3.12586C25.478 3.12745 24.6462 3.4733 24.0332 4.0875C23.4201 4.70169 23.0758 5.53405 23.0758 6.40186V169.26C23.0758 170.128 23.4201 170.96 24.0332 171.574C24.6462 172.188 25.478 172.534 26.3458 172.536H142.2C143.068 172.534 143.9 172.189 144.515 171.575C145.129 170.961 145.474 170.128 145.476 169.26V6.40186C145.474 5.5335 145.129 4.70115 144.515 4.08713C143.9 3.4731 143.068 3.12745 142.2 3.12586H26.3458Z" fill="#E6E6E6"/>
<path d="M271.986 172.686H156.126C155.218 172.684 154.348 172.323 153.705 171.681C153.063 171.039 152.702 170.168 152.7 169.26V6.40186C152.71 5.49893 153.075 4.63611 153.716 4.00042C154.357 3.36472 155.223 3.00739 156.126 3.00586H271.986C272.888 3.00898 273.751 3.36721 274.39 4.0029C275.03 4.63858 275.392 5.50051 275.4 6.40186V169.26C275.4 170.166 275.041 171.036 274.401 171.678C273.761 172.32 272.893 172.683 271.986 172.686ZM156.126 3.12586C155.258 3.12745 154.425 3.4731 153.811 4.08713C153.197 4.70115 152.852 5.5335 152.85 6.40186V169.26C152.852 170.128 153.197 170.961 153.811 171.575C154.425 172.189 155.258 172.534 156.126 172.536H271.986C272.855 172.534 273.687 172.189 274.301 171.575C274.915 170.961 275.261 170.128 275.262 169.26V6.40186C275.261 5.5335 274.915 4.70115 274.301 4.08713C273.687 3.4731 272.855 3.12745 271.986 3.12586H156.126Z" fill="#E6E6E6"/>
<path d="M92.0571 96.2584C93.7273 89.0125 89.2072 81.7845 81.9613 80.1143C74.7153 78.4441 67.4873 82.9641 65.8171 90.2101C64.1469 97.4561 68.667 104.684 75.9129 106.354C83.1589 108.024 90.3869 103.504 92.0571 96.2584Z" fill="#F0F0F0"/>
<path d="M170.748 90.4502C169.074 86.8502 170.406 84.2402 174.51 84.2402C177.078 84.2402 180.27 85.2602 183.378 86.9102C183.732 85.9682 184.716 85.4042 186.306 85.4042C189.108 85.4042 192.966 87.1502 195.99 89.6042C196.924 88.9798 198.024 88.6515 199.146 88.6622C201.828 88.5542 205.068 89.5562 207.888 91.1882C208.054 91.0314 208.249 90.9092 208.462 90.8288C208.675 90.7484 208.903 90.7115 209.13 90.7202C210.024 90.7503 210.902 90.967 211.707 91.3566C212.512 91.7462 213.226 92.2999 213.804 92.9822C213.87 93.0602 213.924 93.1442 213.984 93.2222H168.666C167.232 91.9442 168.816 90.5162 170.748 90.4502Z" fill="#F5F5F5"/>
<path d="M82.4639 118.309L119.592 109.807V199.447H82.4639V118.309Z" fill="#FAFAFA"/>
<path d="M138.858 109.807H119.592V199.447H138.858V109.807Z" fill="#EBEBEB"/>
<path d="M132.564 199.445H164.166V88.3673H132.564V199.445Z" fill="#FAFAFA"/>
<path d="M180.564 88.3672H164.166V199.445H180.564V88.3672Z" fill="#EBEBEB"/>
<path d="M136.818 88.3672H164.166V80.1112H136.818V88.3672Z" fill="#FAFAFA"/>
<path d="M136.818 88.3672H164.166V86.5132H136.818V88.3672Z" fill="#EBEBEB"/>
<path d="M176.316 80.1113H164.166V88.3673H176.316V80.1113Z" fill="#EBEBEB"/>
<path d="M141.066 80.1113H164.16V71.8553H141.066V80.1113Z" fill="#FAFAFA"/>
<path d="M141.066 80.1113H164.16V78.2573H141.066V80.1113Z" fill="#EBEBEB"/>
<path d="M172.062 71.8613H164.166V80.1173H172.062V71.8613Z" fill="#EBEBEB"/>
<path d="M157.332 60.3301H155.796V71.8621H157.332V60.3301Z" fill="#EBEBEB"/>
<path d="M175.326 199.445H198.402V102.803H175.326V199.445Z" fill="#FAFAFA"/>
<path d="M210.384 102.805H198.408V199.447H210.384V102.805Z" fill="#EBEBEB"/>
<path d="M204.396 122.406L221.892 137.406V199.446H204.396V122.406Z" fill="#FAFAFA"/>
<path d="M230.976 137.406H221.892V199.446H230.976V137.406Z" fill="#EBEBEB"/>
<path d="M230.976 137.406H221.892L204.396 122.406H213.474L230.976 137.406Z" fill="#EBEBEB"/>
<path d="M263.94 199.447C264.198 198.005 264.81 196.651 265.723 195.506C266.635 194.361 267.819 193.461 269.166 192.889C267.983 194.861 267.446 197.154 267.63 199.447H263.94Z" fill="#EBEBEB"/>
<path d="M111.78 199.447C111.522 198.005 110.91 196.651 109.997 195.506C109.085 194.361 107.901 193.461 106.554 192.889C107.737 194.861 108.274 197.154 108.09 199.447H111.78Z" fill="#EBEBEB"/>
<path d="M35.3224 199.445C35.3224 199.445 35.0284 191.765 31.8184 189.533C33.1324 192.671 32.8504 199.445 32.8504 199.445H35.3224Z" fill="#EBEBEB"/>
<path d="M34.1162 199.446C34.1162 199.446 34.4162 195.036 37.6262 193.758C36.3062 195.558 36.5942 199.446 36.5942 199.446H34.1162Z" fill="#EBEBEB"/>
<path d="M114.528 199.445C114.528 199.445 114.204 192.173 108.384 189.533C110.988 193.265 110.838 199.445 110.838 199.445H114.528Z" fill="#EBEBEB"/>
<path d="M56.208 150.492L60.444 180.372L60.864 183.36H63.582L63.156 180.372L58.92 150.492H56.208Z" fill="#E0E0E0"/>
<path d="M172.602 150.492L176.838 180.372L177.258 183.36H179.976L179.55 180.372L175.314 150.492H172.602Z" fill="#E0E0E0"/>
<path d="M73.6016 180.371L74.0276 183.359L76.3136 199.469H79.0316L76.7456 183.359L76.3256 180.371H73.6016Z" fill="#E6E6E6"/>
<path d="M190.002 180.371L190.428 183.359L192.708 199.469H195.42L193.14 183.359L192.72 180.371H190.002Z" fill="#E6E6E6"/>
<path d="M176.286 180.371L175.86 183.359L173.574 199.469H170.856L173.142 183.359L173.562 180.371H176.286Z" fill="#E6E6E6"/>
<path d="M59.8858 180.371L59.4598 183.359L57.1798 199.469H54.4678L56.7478 183.359L57.1738 180.371H59.8858Z" fill="#E6E6E6"/>
<path d="M52.3022 154.65H176.7L174.39 146.328H49.9922L52.3022 154.65Z" fill="#F5F5F5"/>
<path d="M55.1401 154.65H179.544L177.234 146.328H52.8301L55.1401 154.65Z" fill="#E6E6E6"/>
<path d="M54.0357 165.023H178.434L176.124 156.707H51.7197L54.0357 165.023Z" fill="#F5F5F5"/>
<path d="M56.8745 165.023H181.272L178.962 156.707H54.5645L56.8745 165.023Z" fill="#E6E6E6"/>
<path d="M55.7641 175.416H180.168L177.858 167.1H53.4541L55.7641 175.416Z" fill="#F5F5F5"/>
<path d="M58.6079 175.416H183.006L180.696 167.1H56.2979L58.6079 175.416Z" fill="#E6E6E6"/>
<path d="M194.328 180.371H70.4756V183.359H194.328V180.371Z" fill="#E6E6E6"/>
<path d="M70.4761 180.371H53.4541V183.359H70.4761V180.371Z" fill="#F5F5F5"/>
<path d="M44.0995 58.4883C41.7775 53.4723 43.6255 49.9023 49.3015 49.9023C52.8595 49.9023 57.2695 51.3063 61.5715 53.5923C62.0575 52.2903 63.4255 51.5103 65.6215 51.5103C69.4975 51.5103 74.8315 53.9103 79.0195 57.3363C80.3085 56.4715 81.8294 56.0176 83.3815 56.0343C87.0895 55.8783 91.5775 57.2703 95.4775 59.5263C95.9412 59.0917 96.5583 58.8586 97.1935 58.8783C99.3295 58.7883 102.222 60.1923 103.656 62.0043C103.746 62.1183 103.824 62.2263 103.902 62.3403H41.2195C39.2395 60.5583 41.4295 58.5783 44.0995 58.4883Z" fill="#F5F5F5"/>
<path d="M208.746 68.8313C208.904 68.8222 209.062 68.8222 209.22 68.8313C209.076 67.1933 209.922 66.1433 211.74 66.1433C213.356 66.2525 214.92 66.7574 216.294 67.6133C215.826 64.4333 217.332 62.3633 220.728 62.3633C223.47 62.3633 226.944 63.7073 230.376 65.9033C230.676 64.6553 231.684 63.9053 233.376 63.9053C236.376 63.9053 240.576 66.2213 243.996 69.4853C244.895 68.6683 246.07 68.2223 247.284 68.2373C250.122 68.0873 253.65 69.4373 256.776 71.5853C256.927 71.3883 257.122 71.2307 257.347 71.1262C257.572 71.0217 257.819 70.9733 258.066 70.9853C259.62 70.9073 261.756 72.1013 263.004 73.6973H206.25C204.912 71.2253 205.974 69.1073 208.746 68.8313Z" fill="#F5F5F5"/>
<path d="M113.268 32.5443C113.424 32.5352 113.58 32.5352 113.736 32.5443C113.592 30.9003 114.444 29.8563 116.256 29.8563C117.873 29.9646 119.44 30.4695 120.816 31.3263C120.348 28.1403 121.848 26.0703 125.244 26.0703C127.992 26.0703 131.46 27.4203 134.892 29.6163C135.192 28.3683 136.2 27.6183 137.892 27.6183C140.892 27.6183 145.092 29.9283 148.512 33.1983C149.412 32.3838 150.586 31.9363 151.8 31.9443C154.638 31.8003 158.166 33.1443 161.292 35.2923C161.443 35.0957 161.639 34.9384 161.863 34.834C162.088 34.7295 162.334 34.6809 162.582 34.6923C164.136 34.6083 166.278 35.8023 167.52 37.4043H110.766C109.434 34.9383 110.496 32.8203 113.268 32.5443Z" fill="#F5F5F5"/>
<path d="M254.862 189.066L244.2 178.404H235.896L245.112 187.62H242.58V199.446H252.33V189.066H254.862Z" fill="#EBEBEB"/>
<path d="M246.558 189.066L235.896 178.404L225.234 189.066H229.212V199.446H242.58V189.066H246.558Z" fill="#FAFAFA"/>
<path d="M150 226.543C214.249 226.543 266.334 223.502 266.334 219.751C266.334 216 214.249 212.959 150 212.959C85.7505 212.959 33.666 216 33.666 219.751C33.666 223.502 85.7505 226.543 150 226.543Z" fill="#F5F5F5"/>
<path d="M240.696 34.6384L224.706 18.6484H212.25L226.074 32.4724H222.27V50.2024H236.892V34.6384H240.696Z" fill="#407BFF"/>
<path opacity="0.4" d="M240.696 34.6384L224.706 18.6484H212.25L226.074 32.4724H222.27V50.2024H236.892V34.6384H240.696Z" fill="white"/>
<path d="M228.24 34.6384L212.25 18.6484L196.26 34.6384H202.23V50.2024H222.27V34.6384H228.24Z" fill="#407BFF"/>
<path opacity="0.7" d="M228.24 34.6384L212.25 18.6484L196.26 34.6384H202.23V50.2024H222.27V34.6384H228.24Z" fill="white"/>
<path d="M250.992 98.4667L235.002 82.4707H222.546L236.37 96.2947H232.566V114.025H247.188V98.4667H250.992Z" fill="#407BFF"/>
<path opacity="0.4" d="M250.992 98.4667L235.002 82.4707H222.546L236.37 96.2947H232.566V114.025H247.188V98.4667H250.992Z" fill="white"/>
<path d="M238.536 98.4667L222.546 82.4707L206.556 98.4667H212.52V114.025H232.566V98.4667H238.536Z" fill="#407BFF"/>
<path opacity="0.7" d="M238.536 98.4667L222.546 82.4707L206.556 98.4667H212.52V114.025H232.566V98.4667H238.536Z" fill="white"/>
<path d="M179.028 115.092L163.032 99.1016H150.582L164.406 112.92H160.602V130.656H175.224V115.092H179.028Z" fill="#407BFF"/>
<path opacity="0.4" d="M179.028 115.092L163.032 99.1016H150.582L164.406 112.92H160.602V130.656H175.224V115.092H179.028Z" fill="white"/>
<path d="M166.572 115.092L150.582 99.1016L134.592 115.092H140.556V130.65H160.602V115.092H166.572Z" fill="#407BFF"/>
<path opacity="0.7" d="M166.572 115.092L150.582 99.1016L134.592 115.092H140.556V130.65H160.602V115.092H166.572Z" fill="white"/>
<path d="M178.074 61.3631H169.47L168.24 60.1391L158.25 41.5391L178.074 61.3631Z" fill="#2F54C6"/>
<path d="M169.439 79.4277H187.565V57.4437H169.439V79.4277Z" fill="#407BFF"/>
<path opacity="0.3" d="M169.439 79.4277H187.565V57.4437H169.439V79.4277Z" fill="black"/>
<path d="M176.844 60.1386H192.288L172.458 40.3086H157.02L176.844 60.1386Z" fill="#407BFF"/>
<path opacity="0.3" d="M176.844 60.1386H192.288L172.458 40.3086H157.02L176.844 60.1386Z" fill="black"/>
<path d="M169.44 54.5758V79.4278H144.594V54.5758L157.02 42.5098L157.146 42.6358L158.25 43.7038L169.44 54.5758Z" fill="#407BFF"/>
<path opacity="0.3" d="M158.25 41.5391V50.1431L147.024 61.3631H144.594V55.1951L157.146 42.6371L158.25 41.5391Z" fill="black"/>
<path d="M176.844 60.1386H168.24L157.02 48.9126V40.3086L176.844 60.1386Z" fill="#407BFF"/>
<path d="M137.189 60.1386H145.793L157.019 48.9126V40.3086L137.189 60.1386Z" fill="#407BFF"/>
<path d="M134.4 85.433C129.282 89.585 124.002 93.491 118.692 97.331C113.382 101.171 108 104.903 102.6 108.605C97.1999 112.307 91.7099 115.871 86.1959 119.405C83.4539 121.205 80.6699 122.909 77.9039 124.661C76.5396 125.601 75.0321 126.315 73.4399 126.773C72.5767 127.006 71.6922 127.151 70.7999 127.205C69.7972 127.288 68.7878 127.233 67.7999 127.043C67.0264 126.886 66.2916 126.577 65.6375 126.135C64.9834 125.694 64.423 125.127 63.9882 124.468C63.5535 123.809 63.253 123.071 63.104 122.296C62.955 121.521 62.9604 120.724 63.1199 119.951C63.1199 119.861 63.1619 119.747 63.1859 119.651C63.4551 118.68 63.859 117.751 64.3859 116.891C64.8291 116.126 65.3499 115.408 65.9399 114.749C67.0513 113.52 68.3541 112.478 69.7979 111.665C72.5879 109.949 75.3539 108.203 78.1559 106.523C83.7419 103.109 89.3819 99.791 95.0519 96.515C100.722 93.239 106.452 90.065 112.23 86.969C118.008 83.873 123.834 80.855 129.81 78.071C130.774 77.6529 131.856 77.5949 132.86 77.9076C133.863 78.2202 134.721 78.8827 135.277 79.7745C135.833 80.6663 136.05 81.7281 135.889 82.7666C135.728 83.8051 135.2 84.7513 134.4 85.433Z" fill="#407BFF"/>
<path d="M134.4 85.433C129.282 89.585 124.002 93.491 118.692 97.331C113.382 101.171 108 104.903 102.6 108.605C97.1999 112.307 91.7099 115.871 86.1959 119.405C83.4539 121.205 80.6699 122.909 77.9039 124.661C76.5396 125.601 75.0321 126.315 73.4399 126.773C72.5767 127.006 71.6922 127.151 70.7999 127.205C69.7972 127.288 68.7878 127.233 67.7999 127.043C67.0264 126.886 66.2916 126.577 65.6375 126.135C64.9834 125.694 64.423 125.127 63.9882 124.468C63.5535 123.809 63.253 123.071 63.104 122.296C62.955 121.521 62.9604 120.724 63.1199 119.951C63.1199 119.861 63.1619 119.747 63.1859 119.651C63.4551 118.68 63.859 117.751 64.3859 116.891C64.8291 116.126 65.3499 115.408 65.9399 114.749C67.0513 113.52 68.3541 112.478 69.7979 111.665C72.5879 109.949 75.3539 108.203 78.1559 106.523C83.7419 103.109 89.3819 99.791 95.0519 96.515C100.722 93.239 106.452 90.065 112.23 86.969C118.008 83.873 123.834 80.855 129.81 78.071C130.774 77.6529 131.856 77.5949 132.86 77.9076C133.863 78.2202 134.721 78.8827 135.277 79.7745C135.833 80.6663 136.05 81.7281 135.889 82.7666C135.728 83.8051 135.2 84.7513 134.4 85.433Z" fill="#407BFF"/>
<path opacity="0.5" d="M134.4 85.433C129.282 89.585 124.002 93.491 118.692 97.331C113.382 101.171 108 104.903 102.6 108.605C97.1999 112.307 91.7099 115.871 86.1959 119.405C83.4539 121.205 80.6699 122.909 77.9039 124.661C76.5396 125.601 75.0321 126.315 73.4399 126.773C72.5767 127.006 71.6922 127.151 70.7999 127.205C69.7972 127.288 68.7878 127.233 67.7999 127.043C67.0264 126.886 66.2916 126.577 65.6375 126.135C64.9834 125.694 64.423 125.127 63.9882 124.468C63.5535 123.809 63.253 123.071 63.104 122.296C62.955 121.521 62.9604 120.724 63.1199 119.951C63.1199 119.861 63.1619 119.747 63.1859 119.651C63.4551 118.68 63.859 117.751 64.3859 116.891C64.8291 116.126 65.3499 115.408 65.9399 114.749C67.0513 113.52 68.3541 112.478 69.7979 111.665C72.5879 109.949 75.3539 108.203 78.1559 106.523C83.7419 103.109 89.3819 99.791 95.0519 96.515C100.722 93.239 106.452 90.065 112.23 86.969C118.008 83.873 123.834 80.855 129.81 78.071C130.774 77.6529 131.856 77.5949 132.86 77.9076C133.863 78.2202 134.721 78.8827 135.277 79.7745C135.833 80.6663 136.05 81.7281 135.889 82.7666C135.728 83.8051 135.2 84.7513 134.4 85.433Z" fill="white"/>
<path d="M112.26 214.583L117.156 213.449L114.864 202.031L109.968 203.165L112.26 214.583Z" fill="#EBB376"/>
<path d="M79.2483 78.1422C78.5703 80.5422 77.9163 83.0682 77.2923 85.5402C76.6683 88.0122 76.0923 90.5202 75.6123 93.0162C75.3483 94.2582 75.1203 95.5302 74.9223 96.7002C74.7243 97.8702 74.6103 99.1002 74.5383 100.33C74.4753 101.553 74.4753 102.779 74.5383 104.002C74.5383 104.602 74.6163 105.202 74.6763 105.838C74.7363 106.474 74.8443 107.08 74.9283 107.602L72.5283 108.508C72.2134 107.863 71.9428 107.198 71.7183 106.516C71.4836 105.861 71.2833 105.194 71.1183 104.518C70.79 103.169 70.5654 101.797 70.4463 100.414C70.3353 99.0169 70.3152 97.614 70.3863 96.2142C70.4823 94.7982 70.6503 93.4962 70.8363 92.1762C71.2143 89.5422 71.7003 86.9322 72.2763 84.3762C72.8523 81.8202 73.4763 79.2462 74.2863 76.6602L79.2483 78.1422Z" fill="#EBB376"/>
<path d="M72.1855 78.9718L77.2315 82.9918L80.2615 85.3918C80.2615 85.3918 80.5795 84.5458 80.9635 83.3338C81.6955 80.9938 82.6495 77.2858 81.9895 75.5818C80.9515 72.8818 78.9895 70.4458 76.5055 70.9858C74.3995 71.4598 72.1855 78.9718 72.1855 78.9718Z" fill="#263238"/>
<path d="M79.1577 214.618H84.1797L83.7897 202.979H78.7617L79.1577 214.618Z" fill="#EBB376"/>
<path d="M114.864 202.037L116.094 208.151L111.15 209.051L109.962 203.171L114.864 202.037Z" fill="#DA9D62"/>
<path d="M78.7617 202.979H83.7897L83.9877 208.979H78.9597L78.7617 202.979Z" fill="#DA9D62"/>
<path d="M95.1422 101.477C95.1422 101.477 92.2262 135.971 89.2022 155.411C86.7602 171.113 84.8282 207.821 84.8282 207.821H78.0002C78.0002 207.821 74.7362 172.373 75.9782 156.821C79.1162 117.527 73.5782 110.567 80.1482 101.459L95.1422 101.477Z" fill="#407BFF"/>
<path opacity="0.6" d="M95.1422 101.477C95.1422 101.477 92.2262 135.971 89.2022 155.411C86.7602 171.113 84.8282 207.821 84.8282 207.821H78.0002C78.0002 207.821 74.7362 172.373 75.9782 156.821C79.1162 117.527 73.5782 110.567 80.1482 101.459L95.1422 101.477Z" fill="black"/>
<path d="M72.8576 108.119L69.8936 110.135L70.3136 111.857C70.3136 111.857 76.4876 108.653 74.8376 107.369L72.8576 108.119Z" fill="#EBB376"/>
<path d="M86.2983 214.913C85.8511 214.902 85.4064 214.842 84.9723 214.733C84.9503 214.727 84.9303 214.714 84.9145 214.698C84.8987 214.681 84.8876 214.66 84.8823 214.637C84.8787 214.614 84.8818 214.591 84.8914 214.569C84.901 214.548 84.9166 214.53 84.9363 214.517C85.1103 214.403 86.6283 213.419 87.2163 213.683C87.283 213.713 87.3405 213.759 87.3828 213.818C87.425 213.877 87.4505 213.947 87.4563 214.019C87.4798 214.133 87.4739 214.25 87.4392 214.36C87.4046 214.47 87.3423 214.57 87.2583 214.649C86.9804 214.85 86.6397 214.944 86.2983 214.913ZM85.3083 214.559C86.1843 214.739 86.8443 214.703 87.1083 214.475C87.1634 214.421 87.2039 214.353 87.2259 214.279C87.2479 214.204 87.2508 214.125 87.2343 214.049C87.2321 214.018 87.2215 213.987 87.2036 213.961C87.1857 213.934 87.1611 213.913 87.1323 213.899C86.8143 213.761 85.9323 214.205 85.3083 214.559Z" fill="#407BFF"/>
<path d="M85.0018 214.734C84.9823 214.74 84.9613 214.74 84.9418 214.734C84.9243 214.723 84.9096 214.708 84.8991 214.69C84.8887 214.673 84.8827 214.653 84.8818 214.632C84.8818 214.566 84.8818 213.12 85.4338 212.634C85.5004 212.571 85.5804 212.525 85.6678 212.498C85.7551 212.47 85.8475 212.464 85.9378 212.478C86.0325 212.479 86.124 212.512 86.1971 212.572C86.2703 212.632 86.3206 212.715 86.3398 212.808C86.4538 213.408 85.5358 214.464 85.0618 214.734C85.0422 214.74 85.0214 214.74 85.0018 214.734ZM85.8538 212.7C85.7567 212.702 85.6634 212.738 85.5898 212.802C85.2751 213.269 85.1136 213.823 85.1278 214.386C85.6018 214.002 86.1778 213.186 86.1058 212.844C86.1058 212.79 86.0638 212.718 85.9078 212.7H85.8538Z" fill="#407BFF"/>
<path d="M117.6 212.692C117.578 212.691 117.556 212.684 117.538 212.671C117.519 212.659 117.504 212.642 117.494 212.621C117.484 212.601 117.48 212.579 117.482 212.556C117.484 212.534 117.491 212.513 117.504 212.494C117.666 212.302 119.064 210.658 119.778 210.658H119.826C119.891 210.663 119.954 210.685 120.008 210.722C120.062 210.758 120.105 210.809 120.132 210.868C120.181 210.961 120.206 211.064 120.206 211.168C120.206 211.273 120.181 211.376 120.132 211.468C119.82 212.128 118.41 212.5 117.594 212.668L117.6 212.692ZM119.772 210.892C119.382 210.892 118.518 211.708 117.924 212.374C119.022 212.116 119.766 211.774 119.94 211.384C119.975 211.323 119.994 211.254 119.994 211.183C119.994 211.113 119.975 211.043 119.94 210.982C119.93 210.958 119.913 210.937 119.892 210.921C119.871 210.905 119.846 210.895 119.82 210.892H119.772Z" fill="#407BFF"/>
<path d="M117.6 212.693C117.579 212.69 117.561 212.681 117.546 212.667C117.531 212.653 117.52 212.635 117.516 212.615C117.516 212.561 117.084 211.265 117.468 210.539C117.52 210.433 117.595 210.339 117.685 210.262C117.776 210.186 117.882 210.129 117.996 210.095C118.314 209.999 118.47 210.095 118.536 210.233C118.842 210.725 118.164 212.177 117.714 212.633C117.702 212.653 117.685 212.669 117.665 212.679C117.645 212.69 117.622 212.695 117.6 212.693ZM118.2 210.293C118.154 210.286 118.107 210.286 118.062 210.293C117.978 210.317 117.9 210.359 117.833 210.414C117.765 210.47 117.711 210.539 117.672 210.617C117.497 211.164 117.497 211.751 117.672 212.297C118.098 211.697 118.512 210.623 118.332 210.329C118.312 210.305 118.284 210.289 118.254 210.282C118.223 210.276 118.192 210.28 118.164 210.293H118.2Z" fill="#407BFF"/>
<path d="M85.4399 58.8477C86.0399 61.8477 87.2399 67.8476 85.1699 69.8576C85.1699 69.8576 85.9859 72.8576 91.5299 72.8576C97.6199 72.8576 94.4399 69.8576 94.4399 69.8576C91.1159 69.0656 91.1999 66.5996 91.7819 64.2776L85.4399 58.8477Z" fill="#EBB376"/>
<path d="M97.5475 52.4507C97.4982 52.4516 97.4499 52.4369 97.4095 52.4087C97.3838 52.3903 97.362 52.3669 97.3454 52.34C97.3288 52.3131 97.3176 52.2832 97.3126 52.252C97.3076 52.2207 97.3088 52.1888 97.3161 52.1581C97.3235 52.1273 97.3369 52.0983 97.3555 52.0727C97.572 51.7644 97.8582 51.5114 98.1907 51.3342C98.5232 51.157 98.8928 51.0606 99.2695 51.0527C99.3258 51.0617 99.3772 51.0905 99.4142 51.134C99.4513 51.1774 99.4716 51.2326 99.4716 51.2897C99.4716 51.3468 99.4513 51.4021 99.4142 51.4455C99.3772 51.4889 99.3258 51.5177 99.2695 51.5267C98.9698 51.535 98.6765 51.6143 98.4136 51.7583C98.1507 51.9023 97.9258 52.1067 97.7575 52.3547C97.7337 52.3875 97.7019 52.4136 97.6651 52.4304C97.6283 52.4473 97.5878 52.4543 97.5475 52.4507Z" fill="#263238"/>
<path d="M98.8796 55.3125C99.2031 56.2524 99.6554 57.1429 100.224 57.9585C100.01 58.0969 99.7694 58.1873 99.5177 58.2236C99.266 58.2598 99.0094 58.241 98.7656 58.1685L98.8796 55.3125Z" fill="#DE5753"/>
<path d="M98.5439 54.6049C98.5439 55.0129 98.7299 55.3489 98.9939 55.3549C99.2579 55.3609 99.4859 55.0489 99.5039 54.6409C99.5219 54.2329 99.3179 53.9029 99.0539 53.8909C98.7899 53.8789 98.5619 54.2029 98.5439 54.6049Z" fill="#263238"/>
<path d="M98.9336 53.9099L99.9176 53.6699C99.9176 53.6699 99.3896 54.4079 98.9336 53.9099Z" fill="#263238"/>
<path d="M84.6001 214.037H78.9541C78.8564 214.034 78.7609 214.067 78.6865 214.13C78.612 214.193 78.5641 214.282 78.5521 214.379L77.9101 218.843C77.8964 218.956 77.907 219.071 77.9413 219.18C77.9756 219.288 78.0328 219.388 78.1089 219.473C78.1851 219.558 78.2785 219.625 78.3829 219.671C78.4873 219.716 78.6002 219.739 78.7141 219.737C80.6821 219.707 81.6301 219.587 84.1141 219.587C85.6441 219.587 87.8701 219.749 89.9821 219.749C92.0941 219.749 92.2021 217.661 91.3261 217.475C87.3901 216.623 86.7661 215.459 85.4401 214.343C85.204 214.147 84.9071 214.039 84.6001 214.037Z" fill="#263238"/>
<path d="M117.06 212.158L111.846 214.324C111.756 214.36 111.682 214.427 111.637 214.513C111.593 214.599 111.582 214.699 111.606 214.792L112.722 219.166C112.754 219.276 112.808 219.377 112.882 219.463C112.956 219.55 113.047 219.62 113.149 219.668C113.252 219.717 113.364 219.744 113.477 219.746C113.591 219.748 113.704 219.727 113.808 219.682C115.608 218.896 116.448 218.428 118.74 217.474C120.15 216.874 123.132 215.824 125.082 215.014C127.032 214.204 126.33 212.236 125.448 212.398C121.488 213.13 119.604 212.644 117.954 212.122C117.661 212.029 117.345 212.042 117.06 212.158Z" fill="#263238"/>
<path d="M105.707 76.0801C106.685 78.3841 107.742 80.7421 108.81 83.0341C109.35 84.1861 109.912 85.3181 110.496 86.4301C111.096 87.5461 111.696 88.6381 112.296 89.6821C112.614 90.1981 112.932 90.7141 113.262 91.1881L113.754 91.8721C113.854 92.0148 113.969 92.1475 114.096 92.2681C114.75 92.8366 115.566 93.185 116.43 93.2641C118.476 93.5581 121.044 93.1441 123.342 92.5261L124.41 94.8361C123.802 95.2008 123.173 95.5274 122.526 95.8141C121.888 96.1108 121.233 96.3673 120.564 96.5821C119.152 97.0624 117.674 97.3156 116.184 97.3321C115.352 97.3395 114.524 97.2304 113.723 97.0081C112.835 96.7634 111.999 96.3566 111.257 95.8081C110.878 95.5196 110.527 95.1962 110.207 94.8421C109.937 94.5361 109.74 94.2781 109.5 93.9901C109.05 93.4261 108.648 92.8561 108.246 92.2861C106.75 90.0362 105.404 87.6912 104.214 85.2661C103.014 82.8661 101.933 80.4661 100.938 77.9821L105.707 76.0801Z" fill="#EBB376"/>
<path d="M122.826 95.1165L128.31 94.2525L126.852 91.1445C126.852 91.1445 122.604 91.8825 121.788 93.8025L122.826 95.1165Z" fill="#EBB376"/>
<path d="M128.304 91.8299L127.704 90.5039L126.852 91.1459L128.304 94.2539V91.8299Z" fill="#EBB376"/>
<path d="M84.9843 52.6796C85.0923 57.6656 85.0323 59.7776 87.4443 62.4296C91.0443 66.4196 97.1763 65.1956 98.5563 60.2756C99.7983 55.8476 99.4083 48.4376 94.6203 46.2656C93.5661 45.7823 92.4058 45.5764 91.2497 45.6675C90.0935 45.7587 88.9798 46.1439 88.0144 46.7865C87.0489 47.4291 86.2638 48.3079 85.7335 49.3393C85.2031 50.3707 84.9453 51.5205 84.9843 52.6796Z" fill="#EBB376"/>
<path d="M80.9641 43.6736C86.0881 39.9596 91.8121 42.0656 94.9441 44.6336C98.2201 47.3216 97.6981 52.4876 95.6941 54.6236C95.902 54.9395 96.0395 55.2964 96.0975 55.6701C96.1555 56.0438 96.1325 56.4255 96.0301 56.7896C96.283 58.3881 95.9315 60.0234 95.044 61.3768C94.1566 62.7301 92.7969 63.7044 91.2301 64.1096L90.9481 64.1816C84.5461 65.7056 77.1481 61.3736 76.0321 54.8936C75.3541 50.9396 76.4341 46.9496 80.9641 43.6736Z" fill="#263238"/>
<path d="M94.5479 54.9888C94.6298 55.9288 95.0323 56.8121 95.6879 57.4908C96.5759 58.4088 97.4879 57.8808 97.6499 56.7948C97.7879 55.8168 97.4939 54.1608 96.4139 53.6388C95.3339 53.1168 94.4699 53.8788 94.5479 54.9888Z" fill="#EBB376"/>
<path opacity="0.3" d="M88.2 117.605C87.63 127.913 90.114 135.695 91.248 140.249C92.052 133.517 92.79 126.491 93.408 120.293C91.29 113.273 88.614 109.847 88.2 117.605Z" fill="black"/>
<path d="M85.7701 207.954H77.0401L76.5781 204.894L85.8181 204.582L85.7701 207.954Z" fill="#407BFF"/>
<path opacity="0.3" d="M77.2314 82.9918L80.2614 85.3918C80.2614 85.3918 80.5794 84.5458 80.9634 83.3338L79.1634 74.4238L77.2314 82.9918Z" fill="black"/>
<path d="M83.8203 44.508C85.3863 42.774 90.7083 40.128 95.2743 42.204C96.5767 42.7973 97.6804 43.7536 98.453 44.9582C99.2256 46.1629 99.6344 47.5649 99.6303 48.996L95.5143 51.756L83.8203 44.508Z" fill="#263238"/>
<path d="M79.6197 49.0608C81.8817 47.2068 84.4197 40.4868 79.6197 42.8268C74.8197 45.1668 73.3617 54.1908 79.6197 49.0608Z" fill="#407BFF"/>
<path d="M80.1303 44.7525C81.1083 41.8965 74.6583 36.2145 70.3083 41.6145C65.9583 47.0145 77.3163 52.9725 80.1303 44.7525Z" fill="#263238"/>
<path d="M90.2222 48.7374C86.4722 47.1414 84.6062 41.0934 91.0442 41.2674C97.4822 41.4414 97.2962 51.7554 90.2222 48.7374Z" fill="#407BFF"/>
<path d="M89.0102 45.605C86.7362 42.767 89.2502 35.471 95.7722 37.805C102.294 40.139 94.2302 52.091 89.0102 45.605Z" fill="#263238"/>
<path d="M100.536 101.477C100.536 101.477 106.2 140.177 108.192 155.405C110.262 171.215 116.31 206.663 116.31 206.663L109.59 207.689C109.59 207.689 98.9701 173.879 96.0121 158.489C92.7841 141.719 86.4121 101.489 86.4121 101.489L100.536 101.477Z" fill="#407BFF"/>
<path opacity="0.6" d="M100.536 101.477C100.536 101.477 106.2 140.177 108.192 155.405C110.262 171.215 116.31 206.663 116.31 206.663L109.59 207.689C109.59 207.689 98.9701 173.879 96.0121 158.489C92.7841 141.719 86.4121 101.489 86.4121 101.489L100.536 101.477Z" fill="black"/>
<path d="M102.936 71.1466C105.432 71.7466 108.51 78.6106 108.51 78.6106L102.564 86.2306C102.564 86.2306 96.4197 77.5366 97.2417 74.8846C98.0937 72.1186 99.9057 70.4086 102.936 71.1466Z" fill="#263238"/>
<path d="M94.8 70.8345C95.622 70.9545 94.86 69.0765 94.518 68.8785C93.732 68.4105 83.718 67.4685 83.832 68.5245C83.8926 69.1547 84.1631 69.7464 84.6 70.2045C85.05 70.5045 87.6 69.6765 94.8 70.8345Z" fill="#407BFF"/>
<path opacity="0.6" d="M94.8 70.8345C95.622 70.9545 94.86 69.0765 94.518 68.8785C93.732 68.4105 83.718 67.4685 83.832 68.5245C83.8926 69.1547 84.1631 69.7464 84.6 70.2045C85.05 70.5045 87.6 69.6765 94.8 70.8345Z" fill="white"/>
<path d="M102.936 71.1481C102.936 71.1481 105.336 71.9881 100.536 101.478H80.1361C80.4781 93.1741 80.4901 88.0501 76.5361 70.9981C79.3927 70.4086 82.2883 70.0276 85.2001 69.8581C88.2861 69.6358 91.3841 69.6358 94.4701 69.8581C98.4001 70.2061 102.936 71.1481 102.936 71.1481Z" fill="#263238"/>
<path d="M79.8001 100.282L78.8821 102.082C78.8101 102.226 78.9781 102.37 79.2121 102.37H100.62C100.8 102.37 100.956 102.28 100.968 102.16L101.148 100.36C101.148 100.234 101.004 100.126 100.8 100.126H80.1481C80.0813 100.117 80.0132 100.127 79.9517 100.155C79.8902 100.182 79.8377 100.226 79.8001 100.282Z" fill="#407BFF"/>
<path opacity="0.6" d="M79.8001 100.282L78.8821 102.082C78.8101 102.226 78.9781 102.37 79.2121 102.37H100.62C100.8 102.37 100.956 102.28 100.968 102.16L101.148 100.36C101.148 100.234 101.004 100.126 100.8 100.126H80.1481C80.0813 100.117 80.0132 100.127 79.9517 100.155C79.8902 100.182 79.8377 100.226 79.8001 100.282Z" fill="white"/>
<path d="M82.5959 102.605H82.0379C81.9299 102.605 81.8459 102.545 81.8519 102.479L82.1159 100.079C82.1159 100.007 82.2179 99.9531 82.3259 99.9531H82.8839C82.9919 99.9531 83.0759 100.007 83.0699 100.079L82.8059 102.479C82.7999 102.533 82.7039 102.605 82.5959 102.605Z" fill="#407BFF"/>
<path d="M95.9999 102.605H95.4479C95.3339 102.605 95.2499 102.545 95.2619 102.479L95.5199 100.079C95.5199 100.007 95.6219 99.9531 95.7359 99.9531H96.2879C96.3959 99.9531 96.4799 100.007 96.4739 100.079L96.2159 102.479C96.2159 102.533 96.1199 102.605 95.9999 102.605Z" fill="#407BFF"/>
<path opacity="0.6" d="M82.5959 102.605H82.0379C81.9299 102.605 81.8459 102.545 81.8519 102.479L82.1159 100.079C82.1159 100.007 82.2179 99.9531 82.3259 99.9531H82.8839C82.9919 99.9531 83.0759 100.007 83.0699 100.079L82.8059 102.479C82.7999 102.533 82.7039 102.605 82.5959 102.605Z" fill="black"/>
<path opacity="0.6" d="M95.9999 102.605H95.4479C95.3339 102.605 95.2499 102.545 95.2619 102.479L95.5199 100.079C95.5199 100.007 95.6219 99.9531 95.7359 99.9531H96.2879C96.3959 99.9531 96.4799 100.007 96.4739 100.079L96.2159 102.479C96.2159 102.533 96.1199 102.605 95.9999 102.605Z" fill="black"/>
<path d="M117.3 206.663L108.696 208.127L107.718 204.881L116.928 203.303L117.3 206.663Z" fill="#407BFF"/>
<path d="M203.046 39.1611C198.469 31.8328 191.822 26.0261 183.946 22.4752C176.069 18.9243 167.317 17.7888 158.795 19.2122C150.273 20.6355 142.364 24.5539 136.069 30.4718C129.774 36.3897 125.375 44.0413 123.429 52.4592C121.482 60.877 122.076 69.683 125.134 77.7637C128.192 85.8443 133.577 92.8368 140.609 97.8568C147.641 102.877 156.004 105.699 164.64 105.966C173.275 106.234 181.797 103.934 189.126 99.3591C193.993 96.3208 198.214 92.3535 201.547 87.6838C204.881 83.0141 207.262 77.7334 208.555 72.1434C209.847 66.5533 210.026 60.7634 209.081 55.1043C208.136 49.4452 206.085 44.0276 203.046 39.1611ZM136.752 80.5611C133.142 74.778 131.328 68.0542 131.539 61.2401C131.75 54.426 133.977 47.8275 137.938 42.2791C141.9 36.7307 147.417 32.4815 153.793 30.0688C160.17 27.6562 167.118 27.1885 173.76 28.7248C180.402 30.2611 186.44 33.7325 191.109 38.7C195.778 43.6674 198.869 49.9079 199.992 56.6323C201.114 63.3566 200.218 70.2628 197.415 76.4776C194.613 82.6924 190.031 87.9366 184.248 91.5471C180.407 93.9443 176.133 95.5616 171.667 96.3065C167.202 97.0515 162.633 96.9096 158.223 95.8888C153.812 94.8681 149.646 92.9886 145.962 90.3576C142.278 87.7266 139.148 84.3957 136.752 80.5551V80.5611Z" fill="#407BFF"/>
<path d="M203.046 39.1611C198.469 31.8328 191.822 26.0261 183.946 22.4752C176.069 18.9243 167.317 17.7888 158.795 19.2122C150.273 20.6355 142.364 24.5539 136.069 30.4718C129.774 36.3897 125.375 44.0413 123.429 52.4592C121.482 60.877 122.076 69.683 125.134 77.7637C128.192 85.8443 133.577 92.8368 140.609 97.8568C147.641 102.877 156.004 105.699 164.64 105.966C173.275 106.234 181.797 103.934 189.126 99.3591C193.993 96.3208 198.214 92.3535 201.547 87.6838C204.881 83.0141 207.262 77.7334 208.555 72.1434C209.847 66.5533 210.026 60.7634 209.081 55.1043C208.136 49.4452 206.085 44.0276 203.046 39.1611ZM136.752 80.5611C133.142 74.778 131.328 68.0542 131.539 61.2401C131.75 54.426 133.977 47.8275 137.938 42.2791C141.9 36.7307 147.417 32.4815 153.793 30.0688C160.17 27.6562 167.118 27.1885 173.76 28.7248C180.402 30.2611 186.44 33.7325 191.109 38.7C195.778 43.6674 198.869 49.9079 199.992 56.6323C201.114 63.3566 200.218 70.2628 197.415 76.4776C194.613 82.6924 190.031 87.9366 184.248 91.5471C180.407 93.9443 176.133 95.5616 171.667 96.3065C167.202 97.0515 162.633 96.9096 158.223 95.8888C153.812 94.8681 149.646 92.9886 145.962 90.3576C142.278 87.7266 139.148 84.3957 136.752 80.5551V80.5611Z" fill="#407BFF"/>
<path opacity="0.5" d="M203.046 39.1611C198.469 31.8328 191.822 26.0261 183.946 22.4752C176.069 18.9243 167.317 17.7888 158.795 19.2122C150.273 20.6355 142.364 24.5539 136.069 30.4718C129.774 36.3897 125.375 44.0413 123.429 52.4592C121.482 60.877 122.076 69.683 125.134 77.7637C128.192 85.8443 133.577 92.8368 140.609 97.8568C147.641 102.877 156.004 105.699 164.64 105.966C173.275 106.234 181.797 103.934 189.126 99.3591C193.993 96.3208 198.214 92.3535 201.547 87.6838C204.881 83.0141 207.262 77.7334 208.555 72.1434C209.847 66.5533 210.026 60.7634 209.081 55.1043C208.136 49.4452 206.085 44.0276 203.046 39.1611ZM136.752 80.5611C133.142 74.778 131.328 68.0542 131.539 61.2401C131.75 54.426 133.977 47.8275 137.938 42.2791C141.9 36.7307 147.417 32.4815 153.793 30.0688C160.17 27.6562 167.118 27.1885 173.76 28.7248C180.402 30.2611 186.44 33.7325 191.109 38.7C195.778 43.6674 198.869 49.9079 199.992 56.6323C201.114 63.3566 200.218 70.2628 197.415 76.4776C194.613 82.6924 190.031 87.9366 184.248 91.5471C180.407 93.9443 176.133 95.5616 171.667 96.3065C167.202 97.0515 162.633 96.9096 158.223 95.8888C153.812 94.8681 149.646 92.9886 145.962 90.3576C142.278 87.7266 139.148 84.3957 136.752 80.5551V80.5611Z" fill="white"/>
<path opacity="0.2" d="M198.12 42.2399C202.086 48.5948 204.079 55.983 203.846 63.4704C203.613 70.9577 201.166 78.208 196.813 84.3044C192.46 90.4009 186.397 95.0697 179.391 97.7207C172.385 100.372 164.75 100.886 157.452 99.198C150.154 97.5102 143.52 93.6962 138.389 88.2383C133.258 82.7804 129.86 75.9237 128.626 68.5352C127.392 61.1466 128.376 53.558 131.454 46.7287C134.533 39.8995 139.567 34.1363 145.92 30.1679C150.14 27.5321 154.838 25.7535 159.745 24.9337C164.653 24.1139 169.674 24.269 174.521 25.39C179.368 26.5111 183.948 28.5762 187.997 31.4673C192.046 34.3585 195.486 38.019 198.12 42.2399Z" fill="#FAFAFA"/>
<path opacity="0.1" d="M203.502 56.9389L144.702 93.6469C139.907 90.3934 135.922 86.0827 133.056 81.0469L197.256 40.9609C200.532 45.7395 202.668 51.2055 203.502 56.9389Z" fill="#E6E6E6"/>
</svg>
