<svg width="182" height="42" viewBox="0 0 182 42" fill="none" xmlns="http://www.w3.org/2000/svg">
<g clip-path="url(#clip0_307_4161)">
<path fill-rule="evenodd" clip-rule="evenodd" d="M41.4489 13.9518V27.5381C39.8573 32.4203 36.5902 36.5358 32.3298 39.2255C31.1689 37.3924 31.1809 34.8345 32.994 33.0254L34.7233 31.3002C38.7503 27.2686 38.6785 20.6551 34.5019 16.7134C30.4868 12.9214 24.1202 13.173 20.2129 17.0848L16.9158 20.3855C15.2584 22.0449 12.5657 22.0449 10.9082 20.3855C9.25672 18.7262 9.25672 16.0305 10.9082 14.3711L23.821 1.44969C24.7485 0.521169 26.011 0 27.3215 0H27.5069C34.095 2.15058 39.3008 7.36229 41.4549 13.9578L41.4489 13.9518ZM30.5408 27.1189L17.6339 40.0463C16.7064 40.9748 15.4439 41.4959 14.1335 41.4959H13.954C7.35995 39.3454 2.14814 34.1277 0 27.5262V13.9698C1.59166 9.08157 4.85875 4.95413 9.12514 2.27041C10.286 4.0975 10.274 6.65539 8.4609 8.47054L6.73165 10.2018C2.77044 14.1675 2.77044 20.6132 6.73165 24.5729C8.71226 26.5557 11.3092 27.5442 13.9061 27.5442C16.503 27.5442 19.1059 26.5557 21.0805 24.5729L22.8098 22.8476L24.4493 21.2063C26.0111 19.6428 28.5362 19.4271 30.2356 20.8408C32.1922 22.4582 32.288 25.3756 30.5408 27.1248V27.1189ZM61.4977 21.9975C61.8411 21.3786 62.0131 20.7115 62.0131 19.9963C62.0131 19.0747 61.8071 18.332 61.395 17.7681C60.9961 17.2042 60.5017 16.7778 59.9111 16.4889C59.3342 16.1863 58.5853 15.8906 57.6645 15.6018C56.9366 15.3542 56.3597 15.141 55.9339 14.9622C55.5213 14.7696 55.1779 14.5152 54.9032 14.1988C54.6285 13.8687 54.4911 13.4561 54.4911 12.9609C54.4911 12.3282 54.6903 11.8468 55.0889 11.5167C55.4872 11.1729 56.0163 11.0009 56.6756 11.0009C57.4036 11.0009 57.9739 11.2004 58.3859 11.5993C58.8117 11.9843 59.0732 12.452 59.1694 13.0022H61.7038C61.5802 11.8468 61.0791 10.9115 60.1995 10.1963C59.3342 9.48105 58.1595 9.12348 56.6756 9.12348C55.7411 9.12348 54.917 9.28849 54.2026 9.61861C53.4881 9.93499 52.9386 10.3889 52.5539 10.9803C52.1692 11.5717 51.9769 12.2595 51.9769 13.0435C51.9769 13.9375 52.1761 14.6596 52.5745 15.2098C52.9729 15.7599 53.4538 16.1795 54.0171 16.4683C54.5941 16.7572 55.3362 17.046 56.2427 17.3348C56.9849 17.5824 57.5684 17.8025 57.9947 17.995C58.4205 18.1876 58.7776 18.4558 59.0661 18.7997C59.3545 19.1298 59.499 19.5561 59.499 20.0788C59.499 20.684 59.2996 21.1792 58.9012 21.5643C58.5167 21.9494 57.9667 22.142 57.2525 22.142C56.4558 22.142 55.8169 21.915 55.3362 21.4611C54.8689 21.0072 54.601 20.464 54.5323 19.8313H52.0181C52.0868 20.6565 52.3547 21.3855 52.8218 22.0182C53.2889 22.6509 53.914 23.1461 54.6971 23.5036C55.4801 23.8475 56.3663 24.0194 57.3558 24.0194C58.3722 24.0194 59.2309 23.8338 59.9314 23.4624C60.6324 23.091 61.1544 22.6027 61.4977 21.9975ZM73.8857 13.6005C73.0891 12.7477 72.0309 12.3213 70.7124 12.3213C69.7778 12.3213 68.9537 12.5552 68.2395 13.0228C67.5247 13.4905 67.0165 14.1507 66.7143 15.0034V8.60766H64.3651V23.875H66.7143V17.83C66.7143 16.6746 66.9962 15.8012 67.5593 15.2098C68.1225 14.6046 68.8713 14.302 69.8053 14.302C70.7124 14.302 71.4266 14.5839 71.9485 15.1479C72.471 15.698 72.732 16.482 72.732 17.4999V23.875H75.0812V17.2523C75.0812 15.6705 74.6829 14.4532 73.8857 13.6005ZM88.2978 18.6552C88.3527 18.3664 88.3802 18.0294 88.3802 17.6443C88.3802 16.654 88.1533 15.7599 87.7 14.9622C87.2605 14.1507 86.6215 13.518 85.7837 13.0641C84.959 12.5964 83.9904 12.3626 82.8779 12.3626C81.7785 12.3626 80.8033 12.5964 79.9512 13.0641C79.1133 13.5317 78.454 14.2057 77.9728 15.086C77.492 15.9663 77.252 16.9978 77.252 18.1807C77.252 19.3773 77.492 20.4158 77.9728 21.2961C78.454 22.1764 79.1133 22.8503 79.9512 23.3179C80.8033 23.7856 81.7785 24.0194 82.8779 24.0194C83.8256 24.0194 84.6843 23.8475 85.454 23.5036C86.2232 23.1461 86.8484 22.6577 87.3291 22.0388C87.8099 21.4198 88.1258 20.7115 88.2769 19.9138H85.7628C85.6392 20.574 85.3024 21.1035 84.753 21.5024C84.2173 21.9013 83.558 22.1007 82.7746 22.1007C81.8818 22.1007 81.133 21.8187 80.5286 21.2548C79.9237 20.6909 79.6012 19.8243 79.56 18.6552H88.2978ZM85.6189 15.7256C85.9073 16.2207 86.0375 16.8397 86.01 17.5824H79.56C79.615 16.482 79.9512 15.6499 80.5698 15.086C81.1879 14.5221 81.9571 14.2401 82.8779 14.2401C83.4548 14.2401 83.9838 14.3639 84.4646 14.6114C84.959 14.8453 85.3436 15.2166 85.6189 15.7256ZM92.9979 23.875V8.60766H90.6487V23.875H92.9979ZM101.549 23.875V21.8325H100.416C99.8111 21.8325 99.3853 21.7087 99.1381 21.4611C98.9046 21.2135 98.7876 20.7665 98.7876 20.1201V14.5083H101.529V12.507H98.7876V9.68049H96.418V12.507H94.7895V14.5083H96.418V20.0788C96.418 21.4405 96.7267 22.417 97.3454 23.0085C97.9772 23.5862 98.8974 23.875 100.107 23.875H101.549ZM114.219 18.6552C114.274 18.3664 114.301 18.0294 114.301 17.6443C114.301 16.654 114.075 15.7599 113.622 14.9622C113.181 14.1507 112.543 13.518 111.705 13.0641C110.881 12.5964 109.912 12.3626 108.799 12.3626C107.7 12.3626 106.724 12.5964 105.873 13.0641C105.034 13.5317 104.375 14.2057 103.894 15.086C103.414 15.9663 103.173 16.9978 103.173 18.1807C103.173 19.3773 103.414 20.4158 103.894 21.2961C104.375 22.1764 105.034 22.8503 105.873 23.3179C106.724 23.7856 107.7 24.0194 108.799 24.0194C109.747 24.0194 110.606 23.8475 111.375 23.5036C112.144 23.1461 112.769 22.6577 113.25 22.0388C113.731 21.4198 114.047 20.7115 114.198 19.9138H111.684C111.561 20.574 111.224 21.1035 110.675 21.5024C110.138 21.9013 109.479 22.1007 108.696 22.1007C107.803 22.1007 107.054 21.8187 106.45 21.2548C105.845 20.6909 105.522 19.8243 105.481 18.6552H114.219ZM111.54 15.7256C111.828 16.2207 111.959 16.8397 111.932 17.5824H105.481C105.536 16.482 105.873 15.6499 106.491 15.086C107.109 14.5221 107.879 14.2401 108.799 14.2401C109.376 14.2401 109.905 14.3639 110.386 14.6114C110.881 14.8453 111.265 15.2166 111.54 15.7256ZM120.568 12.9815C119.853 13.4079 119.304 13.9925 118.919 14.7352V12.507H116.57V23.875H118.919V18.1188C118.919 16.9635 119.228 16.1382 119.846 15.643C120.479 15.1341 121.31 14.8797 122.34 14.8797H123.041V12.3213C122.107 12.3213 121.282 12.5414 120.568 12.9815ZM131.726 13.3942C130.928 12.7065 129.864 12.3626 128.531 12.3626C127.253 12.3626 126.25 12.6652 125.522 13.2704C124.808 13.8619 124.451 14.6389 124.451 15.6018C124.451 16.3445 124.629 16.9359 124.987 17.3761C125.357 17.8025 125.797 18.1119 126.305 18.3045C126.828 18.4971 127.501 18.6896 128.325 18.8822C128.971 19.0197 129.479 19.1573 129.85 19.2948C130.221 19.4186 130.53 19.5974 130.777 19.8313C131.024 20.0651 131.148 20.3814 131.148 20.7803C131.148 21.2342 130.983 21.6124 130.654 21.915C130.338 22.2039 129.898 22.3483 129.335 22.3483C128.552 22.3483 127.92 22.1557 127.439 21.7706C126.958 21.3855 126.683 20.8835 126.614 20.2645H124.327C124.506 21.4473 125.028 22.3689 125.893 23.0291C126.773 23.6893 127.92 24.0194 129.335 24.0194C130.558 24.0194 131.526 23.7237 132.24 23.1323C132.969 22.5409 133.333 21.7706 133.333 20.8215C133.333 20.0513 133.14 19.4461 132.756 19.006C132.385 18.5521 131.932 18.222 131.395 18.0157C130.873 17.8094 130.187 17.6099 129.335 17.4173C128.689 17.266 128.187 17.1285 127.83 17.0047C127.487 16.8809 127.198 16.709 126.965 16.4889C126.731 16.2688 126.614 15.98 126.614 15.6224C126.614 15.141 126.773 14.7627 127.089 14.4877C127.418 14.1988 127.879 14.0544 128.469 14.0544C129.183 14.0544 129.754 14.2469 130.18 14.6321C130.62 15.0034 130.887 15.4986 130.983 16.1176H133.209C133.03 14.9759 132.536 14.0682 131.726 13.3942ZM141.397 23.875V21.8325H140.264C139.659 21.8325 139.233 21.7087 138.986 21.4611C138.752 21.2135 138.635 20.7665 138.635 20.1201V14.5083H141.376V12.507H138.635V9.68049H136.266V12.507H134.638V14.5083H136.266V20.0788C136.266 21.4405 136.575 22.417 137.193 23.0085C137.825 23.5862 138.746 23.875 139.955 23.875H141.397ZM147.596 12.9815C146.881 13.4079 146.332 13.9925 145.947 14.7352V12.507H143.598V23.875H145.947V18.1188C145.947 16.9635 146.256 16.1382 146.875 15.643C147.507 15.1341 148.338 14.8797 149.368 14.8797H150.069V12.3213C149.135 12.3213 148.31 12.5414 147.596 12.9815ZM151.912 8.21566C151.637 8.47698 151.499 8.8071 151.499 9.20598C151.499 9.60486 151.637 9.92806 151.912 10.1757C152.187 10.4232 152.55 10.5471 153.004 10.5471C153.457 10.5471 153.821 10.4232 154.096 10.1757C154.385 9.92806 154.529 9.60486 154.529 9.20598C154.529 8.8071 154.385 8.47698 154.096 8.21566C153.821 7.95434 153.457 7.82365 153.004 7.82365C152.55 7.82365 152.187 7.95434 151.912 8.21566ZM154.179 23.875V12.507H151.829V23.875H154.179ZM164.214 13.126C163.486 12.6171 162.606 12.3626 161.576 12.3626C160.586 12.3626 159.701 12.5964 158.917 13.0641C158.148 13.5317 157.544 14.2057 157.104 15.086C156.664 15.9663 156.444 16.9978 156.444 18.1807C156.444 19.3773 156.664 20.4158 157.104 21.2961C157.544 22.1764 158.148 22.8503 158.917 23.3179C159.701 23.7856 160.586 24.0194 161.576 24.0194C162.606 24.0194 163.486 23.765 164.214 23.2561C164.942 22.7472 165.45 22.0732 165.739 21.2342V23.875H168.109V8.60766H165.739V15.1479C165.45 14.3089 164.942 13.6349 164.214 13.126ZM159.783 15.4367C160.415 14.7627 161.253 14.4257 162.297 14.4257C162.957 14.4257 163.547 14.5839 164.07 14.9003C164.592 15.2029 165.004 15.643 165.306 16.2207C165.608 16.7847 165.759 17.438 165.759 18.1807C165.759 18.9372 165.608 19.5974 165.306 20.1613C165.004 20.7253 164.592 21.1654 164.07 21.4818C163.547 21.7844 162.957 21.9357 162.297 21.9357C161.253 21.9357 160.415 21.6055 159.783 20.9453C159.165 20.2714 158.856 19.3498 158.856 18.1807C158.856 17.0116 159.165 16.0969 159.783 15.4367ZM181.397 18.6552C181.452 18.3664 181.479 18.0294 181.479 17.6443C181.479 16.654 181.253 15.7599 180.799 14.9622C180.359 14.1507 179.721 13.518 178.883 13.0641C178.059 12.5964 177.09 12.3626 175.977 12.3626C174.878 12.3626 173.902 12.5964 173.051 13.0641C172.212 13.5317 171.553 14.2057 171.072 15.086C170.592 15.9663 170.351 16.9978 170.351 18.1807C170.351 19.3773 170.592 20.4158 171.072 21.2961C171.553 22.1764 172.212 22.8503 173.051 23.3179C173.902 23.7856 174.878 24.0194 175.977 24.0194C176.925 24.0194 177.783 23.8475 178.553 23.5036C179.322 23.1461 179.947 22.6577 180.428 22.0388C180.909 21.4198 181.225 20.7115 181.376 19.9138H178.862C178.738 20.574 178.402 21.1035 177.853 21.5024C177.316 21.9013 176.657 22.1007 175.874 22.1007C174.981 22.1007 174.232 21.8187 173.628 21.2548C173.023 20.6909 172.7 19.8243 172.659 18.6552H181.397ZM178.718 15.7256C179.006 16.2207 179.137 16.8397 179.11 17.5824H172.659C172.714 16.482 173.051 15.6499 173.669 15.086C174.287 14.5221 175.057 14.2401 175.977 14.2401C176.554 14.2401 177.083 14.3639 177.564 14.6114C178.059 14.8453 178.443 15.2166 178.718 15.7256Z" fill="#176B97"/>
</g>
<defs>
<clipPath id="clip0_307_4161">
<rect width="181.853" height="41.8021" fill="white"/>
</clipPath>
</defs>
</svg>
