<svg width="235" height="120" viewBox="0 0 235 120" fill="none" xmlns="http://www.w3.org/2000/svg">
<g clip-path="url(#clip0_55_552)">
<path fill-rule="evenodd" clip-rule="evenodd" d="M150.25 23.29V45.97C147.59 54.12 142.13 60.99 135.01 65.48C133.07 62.42 133.09 58.15 136.12 55.13L139.01 52.25C145.74 45.52 145.62 34.48 138.64 27.9C131.93 21.5701 121.29 21.99 114.76 28.52L109.25 34.03C106.48 36.8 101.98 36.8 99.21 34.03C96.45 31.26 96.45 26.76 99.21 23.99L120.79 2.42004C122.34 0.869995 124.45 0 126.64 0H126.95C137.96 3.58997 146.66 12.29 150.26 23.3L150.25 23.29ZM132.03 45.26L110.46 66.84C108.91 68.39 106.8 69.26 104.61 69.26H104.31C93.29 65.67 84.5801 56.96 80.99 45.9399V23.3101C83.6499 15.15 89.1101 8.26001 96.24 3.78003C98.1799 6.82996 98.1599 11.1 95.1299 14.13L92.24 17.02C85.6199 23.64 85.6199 34.4 92.24 41.01C95.55 44.3201 99.8899 45.97 104.23 45.97C108.57 45.97 112.92 44.3201 116.22 41.01L119.11 38.13L121.85 35.39C124.46 32.78 128.68 32.42 131.52 34.78C134.79 37.48 134.95 42.35 132.03 45.27V45.26ZM4.67676 118.232C6.07715 118.833 7.65259 119.133 9.40308 119.133C11.2534 119.133 12.854 118.782 14.2043 118.082C15.5796 117.357 16.6174 116.407 17.3176 115.232C18.0427 114.056 18.4055 112.806 18.4055 111.48C18.4055 109.83 18.0178 108.517 17.2427 107.542C16.4924 106.542 15.5671 105.804 14.4668 105.329C13.3916 104.854 11.9912 104.379 10.2659 103.904C8.96533 103.553 7.94019 103.228 7.18994 102.928C6.4397 102.628 5.8147 102.228 5.31445 101.728C4.83936 101.203 4.60181 100.54 4.60181 99.7399C4.60181 98.5646 4.98926 97.6643 5.76465 97.0392C6.53979 96.4141 7.54004 96.1014 8.76538 96.1014C10.1157 96.1014 11.2036 96.439 12.0288 97.1141C12.854 97.7894 13.3042 98.6021 13.3792 99.5524H18.1055C17.9304 97.3518 17.03 95.6263 15.4045 94.376C13.8042 93.1006 11.7412 92.463 9.21558 92.463C7.43994 92.463 5.8772 92.7631 4.52686 93.3632C3.17627 93.9634 2.12622 94.826 1.37598 95.9514C0.625732 97.0767 0.250488 98.3895 0.250488 99.8899C0.250488 101.515 0.625732 102.816 1.37598 103.791C2.12622 104.766 3.02637 105.491 4.07666 105.967C5.15186 106.417 6.53979 106.867 8.24023 107.317C9.59058 107.667 10.6409 107.992 11.3911 108.292C12.1663 108.592 12.804 109.017 13.3042 109.568C13.8291 110.118 14.0918 110.83 14.0918 111.706C14.0918 112.831 13.6792 113.756 12.854 114.481C12.0288 115.182 10.8784 115.532 9.40308 115.532C7.97754 115.532 6.86475 115.169 6.0647 114.444C5.28955 113.719 4.85181 112.793 4.75171 111.668H0.175537C0.175537 113.168 0.575684 114.481 1.37598 115.607C2.17603 116.732 3.27637 117.607 4.67676 118.232ZM38.3425 98.8772C37.1172 98.202 35.7168 97.8644 34.1414 97.8644C32.8162 97.8644 31.5908 98.1019 30.4656 98.577C29.3652 99.0522 28.4524 99.7274 27.7273 100.603V91.1125H23.4512V118.87H27.7273V107.317C27.7273 105.466 28.1899 104.054 29.1152 103.078C30.0654 102.078 31.3408 101.578 32.9412 101.578C34.5415 101.578 35.8044 102.078 36.7297 103.078C37.655 104.054 38.1174 105.466 38.1174 107.317V118.87H42.3562V106.679C42.3562 104.804 41.9937 103.203 41.2683 101.878C40.5681 100.553 39.593 99.5524 38.3425 98.8772ZM66.6033 110.13C66.7031 109.505 66.7532 108.805 66.7532 108.03C66.7532 106.029 66.3281 104.266 65.4778 102.741C64.6277 101.19 63.4397 99.99 61.9143 99.1398C60.3889 98.2896 58.6511 97.8644 56.7004 97.8644C54.675 97.8644 52.8745 98.302 51.2991 99.1772C49.7488 100.052 48.5359 101.303 47.6606 102.928C46.8103 104.529 46.3853 106.392 46.3853 108.517C46.3853 110.643 46.823 112.518 47.698 114.144C48.5984 115.744 49.8237 116.995 51.374 117.895C52.9495 118.77 54.7251 119.208 56.7004 119.208C59.1262 119.208 61.1516 118.607 62.7771 117.407C64.4275 116.182 65.5654 114.619 66.1904 112.718H61.5769C60.6265 114.644 59.0012 115.607 56.7004 115.607C55.1001 115.607 53.7498 115.106 52.6494 114.106C51.5491 113.106 50.9365 111.781 50.8115 110.13H66.6033ZM60.6016 102.891C61.7019 103.841 62.2644 105.104 62.2896 106.679H50.8489C51.0491 105.079 51.6741 103.816 52.7244 102.891C53.7747 101.94 55.0376 101.465 56.5129 101.465C58.1384 101.465 59.5012 101.94 60.6016 102.891ZM75.2375 118.87V91.1125H70.9614V118.87H75.2375ZM85.8406 113.131V101.69H90.8669V98.202H85.8406V93.0631H81.5269V98.202H79.0886V101.69H81.5269V113.131C81.5269 115.156 82.0396 116.619 83.0647 117.52C84.0901 118.42 85.5654 118.87 87.491 118.87H90.8669V115.307H88.2412C87.366 115.307 86.7407 115.144 86.3657 114.819C86.0156 114.469 85.8406 113.906 85.8406 113.131ZM113.601 110.13C113.701 109.505 113.75 108.805 113.75 108.03C113.75 106.029 113.325 104.266 112.475 102.741C111.625 101.19 110.437 99.99 108.912 99.1398C107.386 98.2896 105.648 97.8644 103.698 97.8644C101.672 97.8644 99.8718 98.302 98.2964 99.1772C96.7461 100.052 95.5332 101.303 94.658 102.928C93.8079 104.529 93.3826 106.392 93.3826 108.517C93.3826 110.643 93.8203 112.518 94.6956 114.144C95.5957 115.744 96.821 116.995 98.3716 117.895C99.947 118.77 101.722 119.208 103.698 119.208C106.124 119.208 108.149 118.607 109.774 117.407C111.425 116.182 112.563 114.619 113.188 112.718H108.574C107.624 114.644 105.999 115.607 103.698 115.607C102.097 115.607 100.747 115.106 99.6467 114.106C98.5466 113.106 97.9338 111.781 97.8088 110.13H113.601ZM107.599 102.891C108.699 103.841 109.262 105.104 109.287 106.679H97.8464C98.0464 105.079 98.6716 103.816 99.7219 102.891C100.772 101.94 102.035 101.465 103.51 101.465C105.136 101.465 106.499 101.94 107.599 102.891ZM124.71 98.7646C123.685 99.3398 122.86 100.152 122.235 101.203V98.202H117.959V118.87H122.235V107.992C122.235 105.891 122.66 104.416 123.51 103.566C124.385 102.716 125.661 102.291 127.336 102.291H128.424V97.8644C126.999 97.8644 125.761 98.1644 124.71 98.7646ZM135.468 118.345C136.768 118.92 138.231 119.208 139.857 119.208C141.457 119.208 142.845 118.945 144.02 118.42C145.221 117.895 146.146 117.17 146.796 116.244C147.446 115.319 147.771 114.269 147.771 113.094C147.746 111.768 147.384 110.705 146.684 109.905C145.983 109.105 145.146 108.505 144.17 108.105C143.22 107.68 141.995 107.267 140.494 106.867C139.369 106.542 138.519 106.279 137.944 106.079C137.368 105.854 136.881 105.554 136.481 105.179C136.081 104.804 135.881 104.341 135.881 103.791C135.881 103.091 136.181 102.528 136.781 102.103C137.381 101.678 138.244 101.465 139.369 101.465C140.519 101.465 141.432 101.74 142.107 102.291C142.782 102.841 143.157 103.578 143.233 104.504H147.509C147.409 102.453 146.634 100.84 145.183 99.6649C143.758 98.4646 141.87 97.8644 139.519 97.8644C137.944 97.8644 136.543 98.127 135.318 98.6521C134.118 99.1772 133.192 99.9025 132.542 100.828C131.892 101.728 131.567 102.728 131.567 103.828C131.567 105.179 131.917 106.267 132.617 107.092C133.343 107.917 134.193 108.53 135.168 108.93C136.143 109.33 137.406 109.743 138.957 110.168C140.557 110.618 141.72 111.03 142.445 111.406C143.195 111.781 143.57 112.356 143.57 113.131C143.57 113.856 143.233 114.456 142.557 114.931C141.907 115.382 140.982 115.607 139.782 115.607C138.631 115.607 137.669 115.319 136.893 114.744C136.143 114.144 135.73 113.406 135.656 112.531H131.229C131.279 113.781 131.679 114.919 132.43 115.944C133.18 116.944 134.193 117.745 135.468 118.345ZM157.381 113.131V101.69H162.407V98.202H157.381V93.0631H153.067V98.202H150.629V101.69H153.067V113.131C153.067 115.156 153.58 116.619 154.605 117.52C155.63 118.42 157.105 118.87 159.031 118.87H162.407V115.307H159.781C158.906 115.307 158.281 115.144 157.906 114.819C157.556 114.469 157.381 113.906 157.381 113.131ZM173.1 98.7646C172.075 99.3398 171.25 100.152 170.624 101.203V98.202H166.348V118.87H170.624V107.992C170.624 105.891 171.049 104.416 171.9 103.566C172.775 102.716 174.05 102.291 175.726 102.291H176.813V97.8644C175.388 97.8644 174.15 98.1644 173.1 98.7646ZM180.969 94.676C181.494 95.2012 182.144 95.4637 182.92 95.4637C183.67 95.4637 184.307 95.2012 184.833 94.676C185.358 94.1509 185.62 93.5007 185.62 92.7256C185.62 91.9503 185.358 91.3002 184.833 90.775C184.307 90.2499 183.67 89.9873 182.92 89.9873C182.144 89.9873 181.494 90.2499 180.969 90.775C180.444 91.3002 180.181 91.9503 180.181 92.7256C180.181 93.5007 180.444 94.1509 180.969 94.676ZM185.02 118.87V98.202H180.744V118.87H185.02ZM190.484 102.928C189.634 104.529 189.209 106.367 189.209 108.442C189.209 110.518 189.634 112.381 190.484 114.031C191.36 115.657 192.535 116.932 194.01 117.857C195.511 118.757 197.161 119.208 198.962 119.208C200.562 119.208 201.975 118.882 203.2 118.232C204.45 117.582 205.426 116.757 206.126 115.757V118.87H210.44V91.1125H206.126V101.09C205.351 100.115 204.301 99.3398 202.975 98.7646C201.675 98.1644 200.349 97.8644 198.999 97.8644C197.174 97.8644 195.511 98.3146 194.01 99.2147C192.535 100.09 191.36 101.328 190.484 102.928ZM205.226 104.804C205.826 105.854 206.126 107.092 206.126 108.517C206.126 109.943 205.826 111.193 205.226 112.268C204.651 113.318 203.888 114.119 202.938 114.669C201.987 115.219 200.962 115.494 199.862 115.494C198.787 115.494 197.761 115.219 196.786 114.669C195.836 114.094 195.061 113.269 194.46 112.193C193.885 111.118 193.598 109.868 193.598 108.442C193.598 107.017 193.885 105.792 194.46 104.766C195.061 103.716 195.836 102.928 196.786 102.403C197.736 101.853 198.761 101.578 199.862 101.578C200.962 101.578 201.987 101.853 202.938 102.403C203.888 102.953 204.651 103.753 205.226 104.804ZM234.982 108.774C234.993 108.534 234.999 108.286 234.999 108.03C234.999 106.029 234.573 104.266 233.723 102.741C232.873 101.19 231.685 99.99 230.16 99.1398C228.635 98.2896 226.896 97.8644 224.946 97.8644C222.92 97.8644 221.12 98.302 219.545 99.1772C217.994 100.052 216.781 101.303 215.906 102.928C215.056 104.529 214.631 106.392 214.631 108.517C214.631 110.643 215.068 112.518 215.944 114.144C216.844 115.744 218.069 116.995 219.62 117.895C221.195 118.77 222.97 119.208 224.946 119.208C227.372 119.208 229.397 118.607 231.023 117.407C232.673 116.182 233.811 114.619 234.436 112.718H229.822C228.872 114.644 227.247 115.607 224.946 115.607C223.346 115.607 221.995 115.106 220.895 114.106C219.795 113.106 219.182 111.781 219.057 110.13H234.849C234.916 109.712 234.96 109.26 234.982 108.774ZM228.847 102.891C229.947 103.841 230.51 105.104 230.535 106.679H219.094C219.294 105.079 219.92 103.816 220.97 102.891C222.02 101.94 223.283 101.465 224.759 101.465C226.384 101.465 227.747 101.94 228.847 102.891Z" fill="#176B97"/>
</g>
<defs>
<clipPath id="clip0_55_552">
<rect width="235" height="120" fill="white"/>
</clipPath>
</defs>
</svg>
