<svg width="70" height="70" viewBox="0 0 70 70" fill="none" xmlns="http://www.w3.org/2000/svg">
<g clip-path="url(#clip0_55_551)">
<path fill-rule="evenodd" clip-rule="evenodd" d="M69.2598 45.97V23.29L69.2698 23.3C65.6699 12.29 56.97 3.59009 45.96 0H45.6499C43.46 0 41.3499 0.870117 39.7998 2.41992L18.22 23.99C15.46 26.76 15.46 31.26 18.22 34.03C20.99 36.8 25.49 36.8 28.2598 34.03L33.7698 28.52C40.2998 21.99 50.9399 21.5701 57.6499 27.8999C64.6299 34.48 64.75 45.52 58.0198 52.25L55.1299 55.1299C52.0999 58.1499 52.0798 62.4199 54.0198 65.48C61.1399 60.99 66.5999 54.1201 69.2598 45.97ZM29.47 66.8501L51.04 45.27V45.28C53.96 42.3601 53.8 37.49 50.53 34.79C47.6899 32.4299 43.47 32.79 40.8599 35.4001L38.1201 38.1401L35.23 41.02C31.9299 44.3301 27.5801 45.98 23.24 45.98C18.8999 45.98 14.5601 44.3301 11.25 41.02C4.62988 34.4102 4.62988 23.6501 11.25 17.03L14.1399 14.1401C17.1699 11.1101 17.1899 6.84009 15.25 3.79004C8.12012 8.27002 2.65991 15.1602 0 23.3201V45.95C3.59009 56.97 12.3 65.6799 23.3201 69.27H23.6201C25.8101 69.27 27.9199 68.4001 29.47 66.8501Z" fill="#176B97"/>
</g>
<defs>
<clipPath id="clip0_55_551">
<rect width="70" height="70" fill="white"/>
</clipPath>
</defs>
</svg>
