<svg width="283" height="65" viewBox="0 0 283 65" fill="none" xmlns="http://www.w3.org/2000/svg">
<g clip-path="url(#clip0_55_550)">
<path fill-rule="evenodd" clip-rule="evenodd" d="M64.5028 21.6943V42.8203C62.0259 50.4119 56.9417 56.8112 50.3116 60.9935C48.5051 58.1432 48.5237 54.1658 51.3452 51.3527L54.0363 48.67C60.3032 42.4011 60.1914 32.1175 53.6918 25.9884C47.4435 20.0921 37.5358 20.4833 31.4552 26.5659L26.3244 31.6984C23.7451 34.2786 19.5547 34.2786 16.9753 31.6984C14.4053 29.1182 14.4053 24.9265 16.9753 22.3463L37.0702 2.25419C38.5136 0.810389 40.4783 0 42.5176 0H42.8063C53.0586 3.34403 61.1599 11.448 64.5121 21.7036L64.5028 21.6943ZM47.5275 42.1683L27.4418 62.2697C25.9986 63.7135 24.0338 64.5239 21.9945 64.5239H21.7152C11.4535 61.1799 3.34294 53.0667 0 42.8017V21.7222C2.47694 14.1213 7.56119 7.70341 14.2005 3.53035C16.007 6.37139 15.9884 10.3488 13.1669 13.1712L10.4758 15.8632C4.31136 22.0296 4.31136 32.0524 10.4758 38.2095C13.558 41.2927 17.5993 42.8297 21.6406 42.8297C25.6819 42.8297 29.7326 41.2927 32.8055 38.2095L35.4966 35.5268L38.048 32.9746C40.4784 30.5434 44.408 30.2081 47.0526 32.4063C50.0975 34.9213 50.2465 39.4576 47.5275 42.1776V42.1683ZM95.7027 34.205C96.2371 33.2425 96.5047 32.2053 96.5047 31.0931C96.5047 29.6602 96.1841 28.5052 95.5429 27.6284C94.9221 26.7515 94.1526 26.0885 93.2335 25.6393C92.3358 25.1689 91.1705 24.709 89.7375 24.2599C88.6046 23.8749 87.7069 23.5434 87.0443 23.2654C86.4022 22.966 85.8678 22.5703 85.4403 22.0784C85.0128 21.5651 84.7989 20.9235 84.7989 20.1535C84.7989 19.1697 85.109 18.4212 85.7293 17.9078C86.3492 17.3732 87.1725 17.1059 88.1985 17.1059C89.3314 17.1059 90.2189 17.416 90.8601 18.0362C91.5227 18.635 91.9297 19.3622 92.0793 20.2176H96.0233C95.831 18.4212 95.0512 16.9668 93.6824 15.8547C92.3358 14.7425 90.5078 14.1865 88.1985 14.1865C86.7442 14.1865 85.4617 14.4431 84.35 14.9564C83.2382 15.4484 82.383 16.1541 81.7843 17.0738C81.1857 17.9934 80.8864 19.0628 80.8864 20.2819C80.8864 21.672 81.1964 22.7948 81.8164 23.6503C82.4364 24.5059 83.1847 25.1582 84.0613 25.6073C84.9593 26.0564 86.1141 26.5055 87.5248 26.9546C88.6799 27.3397 89.5879 27.6819 90.2514 27.9813C90.914 28.2807 91.4697 28.6978 91.9186 29.2325C92.3674 29.7457 92.5923 30.4087 92.5923 31.2215C92.5923 32.1625 92.2819 32.9324 91.6621 33.5313C91.0636 34.1301 90.2077 34.4296 89.0963 34.4296C87.8565 34.4296 86.8622 34.0767 86.1141 33.3708C85.3869 32.6651 84.97 31.8203 84.8631 30.8365H80.9505C81.0574 32.1197 81.4743 33.2532 82.2012 34.237C82.9281 35.2208 83.9009 35.9908 85.1196 36.5468C86.3381 37.0816 87.7172 37.3489 89.257 37.3489C90.8387 37.3489 92.1751 37.0602 93.2652 36.4827C94.3561 35.9052 95.1684 35.146 95.7027 34.205ZM114.981 21.148C113.741 19.822 112.095 19.159 110.043 19.159C108.588 19.159 107.306 19.5226 106.194 20.2498C105.082 20.977 104.291 22.0035 103.821 23.3295V13.3844H100.165V37.1243H103.821V27.7246C103.821 25.9281 104.259 24.57 105.136 23.6503C106.012 22.7093 107.177 22.2388 108.631 22.2388C110.043 22.2388 111.154 22.6772 111.966 23.5541C112.779 24.4096 113.185 25.6286 113.185 27.2113V37.1243H116.841V26.8264C116.841 24.3668 116.222 22.474 114.981 21.148ZM137.409 29.0079C137.494 28.5587 137.537 28.0348 137.537 27.4359C137.537 25.896 137.184 24.5059 136.479 23.2654C135.795 22.0035 134.8 21.0197 133.496 20.314C132.213 19.5867 130.706 19.2232 128.974 19.2232C127.264 19.2232 125.746 19.5867 124.42 20.314C123.116 21.0411 122.09 22.0891 121.341 23.4579C120.593 24.8267 120.219 26.4307 120.219 28.27C120.219 30.1307 120.593 31.7454 121.341 33.1143C122.09 34.483 123.116 35.531 124.42 36.2581C125.746 36.9853 127.264 37.3489 128.974 37.3489C130.449 37.3489 131.786 37.0816 132.983 36.5468C134.18 35.9908 135.153 35.2315 135.902 34.2691C136.65 33.3067 137.141 32.2053 137.376 30.9648H133.464C133.272 31.9914 132.748 32.8148 131.893 33.4351C131.059 34.0553 130.033 34.3653 128.814 34.3653C127.424 34.3653 126.259 33.9269 125.319 33.05C124.377 32.1732 123.875 30.8257 123.811 29.0079H137.409ZM133.24 24.4524C133.689 25.2223 133.891 26.1847 133.849 27.3397H123.811C123.897 25.6286 124.42 24.3347 125.383 23.4579C126.345 22.581 127.542 22.1425 128.974 22.1425C129.872 22.1425 130.696 22.335 131.444 22.72C132.213 23.0836 132.812 23.661 133.24 24.4524ZM144.723 37.1243V13.3844H141.067V37.1243H144.723ZM158.031 37.1243V33.9483H156.267C155.326 33.9483 154.663 33.7559 154.279 33.3708C153.915 32.9859 153.733 32.2908 153.733 31.2856V22.5596H157.999V19.4477H153.733V15.0526H150.046V19.4477H147.511V22.5596H150.046V31.2215C150.046 33.3388 150.526 34.8573 151.489 35.7769C152.472 36.6752 153.904 37.1243 155.786 37.1243H158.031ZM177.747 29.0079C177.833 28.5587 177.875 28.0348 177.875 27.4359C177.875 25.896 177.523 24.5059 176.818 23.2654C176.133 22.0035 175.139 21.0197 173.835 20.314C172.552 19.5867 171.045 19.2232 169.313 19.2232C167.603 19.2232 166.084 19.5867 164.759 20.314C163.454 21.0411 162.428 22.0891 161.68 23.4579C160.932 24.8267 160.558 26.4307 160.558 28.27C160.558 30.1307 160.932 31.7454 161.68 33.1143C162.428 34.483 163.454 35.531 164.759 36.2581C166.084 36.9853 167.603 37.3489 169.313 37.3489C170.788 37.3489 172.125 37.0816 173.322 36.5468C174.519 35.9908 175.492 35.2315 176.24 34.2691C176.989 33.3067 177.48 32.2053 177.715 30.9648H173.803C173.611 31.9914 173.087 32.8148 172.232 33.4351C171.397 34.0553 170.371 34.3653 169.153 34.3653C167.763 34.3653 166.597 33.9269 165.657 33.05C164.716 32.1732 164.214 30.8257 164.149 29.0079H177.747ZM173.578 24.4524C174.027 25.2223 174.231 26.1847 174.188 27.3397H164.149C164.235 25.6286 164.759 24.3347 165.721 23.4579C166.683 22.581 167.881 22.1425 169.313 22.1425C170.211 22.1425 171.034 22.335 171.783 22.72C172.552 23.0836 173.151 23.661 173.578 24.4524ZM187.627 20.1856C186.516 20.8486 185.661 21.7576 185.061 22.9125V19.4477H181.406V37.1243H185.061V28.1737C185.061 26.3773 185.543 25.094 186.505 24.324C187.489 23.5327 188.782 23.1371 190.385 23.1371H191.476V19.159C190.022 19.159 188.74 19.5012 187.627 20.1856ZM204.991 20.8272C203.751 19.7579 202.094 19.2232 200.02 19.2232C198.032 19.2232 196.47 19.6937 195.338 20.6348C194.226 21.5544 193.67 22.7627 193.67 24.2599C193.67 25.4148 193.948 26.3344 194.504 27.0189C195.081 27.6819 195.765 28.163 196.556 28.4625C197.369 28.7619 198.416 29.0613 199.699 29.3608C200.704 29.5747 201.495 29.7885 202.072 30.0024C202.649 30.1949 203.131 30.4729 203.515 30.8365C203.9 31.2001 204.093 31.6919 204.093 32.3122C204.093 33.0179 203.836 33.6061 203.323 34.0767C202.831 34.5258 202.148 34.7504 201.27 34.7504C200.052 34.7504 199.069 34.4509 198.321 33.8521C197.572 33.2532 197.144 32.4726 197.037 31.5102H193.478C193.756 33.3494 194.568 34.7824 195.915 35.809C197.283 36.8356 199.069 37.3489 201.27 37.3489C203.173 37.3489 204.681 36.889 205.792 35.9695C206.926 35.0498 207.492 33.8521 207.492 32.3763C207.492 31.1787 207.193 30.2377 206.594 29.5533C206.017 28.8474 205.312 28.3342 204.477 28.0134C203.665 27.6926 202.596 27.3824 201.27 27.083C200.266 26.8477 199.485 26.6338 198.929 26.4414C198.395 26.2489 197.946 25.9815 197.583 25.6393C197.219 25.2971 197.037 24.848 197.037 24.292C197.037 23.5434 197.283 22.9553 197.775 22.5275C198.288 22.0784 199.005 21.8539 199.924 21.8539C201.035 21.8539 201.923 22.1532 202.585 22.7521C203.27 23.3295 203.686 24.0995 203.836 25.0619H207.3C207.022 23.2868 206.252 21.8752 204.991 20.8272ZM220.042 37.1243V33.9483H218.278C217.337 33.9483 216.675 33.7559 216.29 33.3708C215.926 32.9859 215.744 32.2908 215.744 31.2856V22.5596H220.01V19.4477H215.744V15.0526H212.057V19.4477H209.523V22.5596H212.057V31.2215C212.057 33.3388 212.537 34.8573 213.5 35.7769C214.483 36.6752 215.916 37.1243 217.797 37.1243H220.042ZM229.688 20.1856C228.577 20.8486 227.722 21.7576 227.123 22.9125V19.4477H223.467V37.1243H227.123V28.1737C227.123 26.3773 227.604 25.094 228.567 24.324C229.55 23.5327 230.843 23.1371 232.446 23.1371H233.537V19.159C232.083 19.159 230.801 19.5012 229.688 20.1856ZM236.405 12.7749C235.977 13.1812 235.763 13.6946 235.763 14.3148C235.763 14.935 235.977 15.4376 236.405 15.8226C236.833 16.2076 237.399 16.4001 238.105 16.4001C238.81 16.4001 239.376 16.2076 239.804 15.8226C240.253 15.4376 240.477 14.935 240.477 14.3148C240.477 13.6946 240.253 13.1812 239.804 12.7749C239.376 12.3686 238.81 12.1653 238.105 12.1653C237.399 12.1653 236.833 12.3686 236.405 12.7749ZM239.933 37.1243V19.4477H236.277V37.1243H239.933ZM255.549 20.4102C254.416 19.6189 253.047 19.2232 251.444 19.2232C249.904 19.2232 248.526 19.5867 247.307 20.314C246.11 21.0411 245.169 22.0891 244.485 23.4579C243.801 24.8267 243.459 26.4307 243.459 28.27C243.459 30.1307 243.801 31.7454 244.485 33.1143C245.169 34.483 246.11 35.531 247.307 36.2581C248.526 36.9853 249.904 37.3489 251.444 37.3489C253.047 37.3489 254.416 36.9533 255.549 36.1619C256.683 35.3706 257.474 34.3226 257.922 33.0179V37.1243H261.611V13.3844H257.922V23.5541C257.474 22.2495 256.683 21.2015 255.549 20.4102ZM248.654 24.0032C249.638 22.9553 250.941 22.4312 252.567 22.4312C253.593 22.4312 254.512 22.6772 255.325 23.1692C256.137 23.6396 256.778 24.324 257.249 25.2223C257.719 26.0992 257.954 27.1151 257.954 28.27C257.954 29.4463 257.719 30.4729 257.249 31.3498C256.778 32.2267 256.137 32.911 255.325 33.403C254.512 33.8735 253.593 34.1087 252.567 34.1087C250.941 34.1087 249.638 33.5954 248.654 32.5688C247.692 31.5209 247.211 30.0879 247.211 28.27C247.211 26.4521 247.692 25.0298 248.654 24.0032ZM282.29 29.0079C282.375 28.5587 282.418 28.0348 282.418 27.4359C282.418 25.896 282.065 24.5059 281.359 23.2654C280.675 22.0035 279.681 21.0197 278.377 20.314C277.095 19.5867 275.587 19.2232 273.855 19.2232C272.145 19.2232 270.627 19.5867 269.301 20.314C267.997 21.0411 266.971 22.0891 266.223 23.4579C265.475 24.8267 265.1 26.4307 265.1 28.27C265.1 30.1307 265.475 31.7454 266.223 33.1143C266.971 34.483 267.997 35.531 269.301 36.2581C270.627 36.9853 272.145 37.3489 273.855 37.3489C275.331 37.3489 276.666 37.0816 277.864 36.5468C279.061 35.9908 280.034 35.2315 280.782 34.2691C281.531 33.3067 282.023 32.2053 282.258 30.9648H278.345C278.152 31.9914 277.629 32.8148 276.774 33.4351C275.94 34.0553 274.914 34.3653 273.695 34.3653C272.305 34.3653 271.14 33.9269 270.199 33.05C269.259 32.1732 268.756 30.8257 268.692 29.0079H282.29ZM278.121 24.4524C278.569 25.2223 278.773 26.1847 278.73 27.3397H268.692C268.777 25.6286 269.301 24.3347 270.263 23.4579C271.225 22.581 272.423 22.1425 273.855 22.1425C274.753 22.1425 275.576 22.335 276.324 22.72C277.095 23.0836 277.693 23.661 278.121 24.4524Z" fill="#176B97"/>
</g>
<defs>
<clipPath id="clip0_55_550">
<rect width="283" height="65" fill="white"/>
</clipPath>
</defs>
</svg>
