<svg width="48" height="48" viewBox="0 0 48 48" fill="none" xmlns="http://www.w3.org/2000/svg">
<rect width="48" height="48" rx="24" fill="#649BB9"/>
<path fill-rule="evenodd" clip-rule="evenodd" d="M23.9999 16.2499C21.3766 16.2499 19.2499 18.3766 19.2499 20.9999C19.2499 23.6233 21.3766 25.7499 23.9999 25.7499C26.6233 25.7499 28.7499 23.6233 28.7499 20.9999C28.7499 18.3766 26.6233 16.2499 23.9999 16.2499ZM20.7499 20.9999C20.7499 19.205 22.205 17.7499 23.9999 17.7499C25.7948 17.7499 27.2499 19.205 27.2499 20.9999C27.2499 22.7949 25.7948 24.2499 23.9999 24.2499C22.205 24.2499 20.7499 22.7949 20.7499 20.9999Z" fill="#F6F9F6"/>
<path fill-rule="evenodd" clip-rule="evenodd" d="M24.285 13.0305C24.0951 13.0211 23.9048 13.0211 23.7148 13.0305C22.9814 13.0669 22.3063 13.28 21.5536 13.6293C20.8209 13.9693 19.9694 14.4609 18.8923 15.0828L18.8313 15.118C17.7541 15.7399 16.9027 16.2315 16.2418 16.696C15.563 17.1732 15.0409 17.6514 14.6427 18.2683C14.5395 18.4281 14.4444 18.5929 14.3575 18.7622C14.0224 19.4155 13.8694 20.1067 13.7955 20.9332C13.7236 21.7378 13.7236 22.7209 13.7236 23.9647V24.0352C13.7236 25.279 13.7236 26.2621 13.7955 27.0667C13.8694 27.8931 14.0224 28.5844 14.3575 29.2377C14.4444 29.407 14.5395 29.5718 14.6427 29.7316C15.1309 30.488 15.8077 31.038 16.7297 31.6308C17.3057 32.0011 18.0065 32.4057 18.8475 32.8912L18.8923 32.9171C19.9694 33.539 20.8209 34.0306 21.5536 34.3706C22.3063 34.7199 22.9814 34.9329 23.7148 34.9694C23.9048 34.9788 24.0951 34.9788 24.285 34.9694C25.0184 34.9329 25.6936 34.7199 26.4462 34.3706C27.179 34.0306 28.0304 33.539 29.1076 32.9171L29.153 32.8908C30.0018 32.4008 30.708 31.9931 31.2873 31.6197C32.2005 31.0312 32.8719 30.4834 33.3571 29.7316C33.4603 29.5718 33.5555 29.407 33.6423 29.2377C33.9774 28.5844 34.1305 27.8931 34.2043 27.0667C34.2762 26.2621 34.2762 25.279 34.2762 24.0352V23.9647C34.2762 22.7209 34.2762 21.7377 34.2043 20.9332C34.1305 20.1067 33.9774 19.4155 33.6423 18.7622C33.5555 18.5929 33.4603 18.4281 33.3571 18.2683C32.9589 17.6514 32.4368 17.1732 31.758 16.696C31.0972 16.2315 30.2457 15.7399 29.1686 15.118L29.1075 15.0828C28.0304 14.4609 27.1789 13.9693 26.4462 13.6293C25.6936 13.28 25.0184 13.0669 24.285 13.0305ZM23.7892 14.5287C23.9296 14.5217 24.0702 14.5217 24.2107 14.5287C24.6835 14.5521 25.1629 14.6874 25.8148 14.9899C26.4797 15.2985 27.2737 15.7561 28.3881 16.3995C29.5024 17.0428 30.2957 17.5016 30.8954 17.9232C31.4833 18.3365 31.8402 18.684 32.0969 19.0818C32.1731 19.1999 32.2435 19.3217 32.3076 19.4468C32.5237 19.868 32.6463 20.3509 32.7103 21.0667C32.7755 21.7968 32.7762 22.7131 32.7762 23.9999C32.7762 25.2867 32.7755 26.2031 32.7103 26.9332C32.6463 27.649 32.5237 28.1318 32.3076 28.5531C32.2435 28.6781 32.1731 28.8 32.0969 28.9181C31.8921 29.2353 31.6245 29.5197 31.2269 29.8314C30.4391 28.2989 28.8427 27.2499 26.9999 27.2499H20.9999C19.1571 27.2499 17.5607 28.2989 16.773 29.8314C16.3753 29.5198 16.1077 29.2354 15.9029 28.9181C15.8267 28.8 15.7563 28.6781 15.6922 28.5531C15.4761 28.1318 15.3535 27.649 15.2896 26.9332C15.2243 26.2031 15.2236 25.2867 15.2236 23.9999C15.2236 22.7131 15.2243 21.7968 15.2896 21.0667C15.3535 20.3509 15.4761 19.868 15.6922 19.4468C15.7563 19.3217 15.8267 19.1999 15.9029 19.0818C16.1597 18.684 16.5165 18.3365 17.1045 17.9232C17.7041 17.5016 18.4974 17.0428 19.6118 16.3995C20.7262 15.7561 21.5201 15.2985 22.185 14.9899C22.8369 14.6874 23.3163 14.5521 23.7892 14.5287ZM26.9999 28.7499C28.322 28.7499 29.4611 29.5398 29.9685 30.6746C29.5238 30.9446 29.0044 31.2446 28.3881 31.6004C27.2737 32.2438 26.4797 32.7014 25.8148 33.01C25.1629 33.3125 24.6835 33.4477 24.2107 33.4712C24.0702 33.4782 23.9296 33.4782 23.7892 33.4712C23.3163 33.4477 22.8369 33.3125 22.185 33.01C21.5201 32.7014 20.7262 32.2438 19.6118 31.6004C18.9955 31.2446 18.4761 30.9446 18.0313 30.6746C18.5387 29.5399 19.6778 28.7499 20.9999 28.7499H26.9999Z" fill="#F6F9F6"/>
</svg>
