<svg width="59" height="16" viewBox="0 0 59 16" fill="none" xmlns="http://www.w3.org/2000/svg">
<path d="M10.632 1.74266C9.94973 0.964975 8.71635 0.631562 7.13856 0.631562H2.55925C2.40306 0.631479 2.25197 0.687145 2.13316 0.788541C2.01436 0.889935 1.93564 1.0304 1.91118 1.18467L0.00527416 13.2784C-0.00356324 13.3345 -0.000133134 13.3918 0.0153284 13.4465C0.0307899 13.5011 0.0579152 13.5518 0.0948353 13.5949C0.131755 13.6381 0.177593 13.6727 0.229189 13.6965C0.280786 13.7202 0.336916 13.7325 0.39371 13.7324H3.22078L3.9308 9.22893L3.90879 9.36995C3.93279 9.216 4.01098 9.07567 4.12927 8.97426C4.24757 8.87286 4.3982 8.81703 4.55401 8.81685H5.89744C8.53661 8.81685 10.6031 7.74488 11.2067 4.64391C11.2247 4.5522 11.2402 4.46294 11.2536 4.37571C11.433 3.22956 11.2524 2.44943 10.6324 1.74307" fill="#003087"/>
<path d="M45.2416 7.49793C45.0688 8.63267 44.2023 8.63267 43.3643 8.63267H42.8874L43.222 6.514C43.2424 6.38602 43.3524 6.29186 43.4821 6.29186H43.7009C44.2716 6.29186 44.8104 6.29186 45.0884 6.61671C45.2543 6.81114 45.3044 7.09971 45.2416 7.49793ZM44.8768 4.53717H41.7155C41.6108 4.53723 41.5096 4.57459 41.43 4.64257C41.3503 4.71055 41.2975 4.80469 41.2811 4.90808L40.0037 13.0139C39.9978 13.0515 40.0001 13.0899 40.0105 13.1265C40.0208 13.1631 40.039 13.197 40.0637 13.2259C40.0884 13.2548 40.119 13.2781 40.1536 13.294C40.1881 13.31 40.2257 13.3183 40.2637 13.3184H41.8859C42.0371 13.3184 42.1659 13.2083 42.1896 13.0591L42.5523 10.7603C42.5858 10.5471 42.77 10.3894 42.986 10.3894H43.9862C46.069 10.3894 47.2706 9.38223 47.5845 7.38462C47.7259 6.51155 47.5902 5.82517 47.1814 5.34461C46.7318 4.81637 45.9349 4.53677 44.8772 4.53677" fill="#009CDE"/>
<path d="M22.6935 7.49753C22.5207 8.63227 21.6541 8.63227 20.8157 8.63227H20.3388L20.6735 6.5136C20.6938 6.38561 20.8039 6.29146 20.9335 6.29146H21.1524C21.723 6.29146 22.2618 6.29146 22.5398 6.61631C22.7061 6.81073 22.7563 7.09931 22.6935 7.49753ZM22.3287 4.53677H19.1674C18.9514 4.53677 18.7671 4.6941 18.7333 4.90768L17.4555 13.0135C17.4496 13.0511 17.4518 13.0895 17.4622 13.1261C17.4725 13.1628 17.4906 13.1967 17.5154 13.2257C17.5401 13.2546 17.5708 13.2778 17.6053 13.2938C17.6399 13.3097 17.6775 13.318 17.7156 13.318H19.2253C19.4413 13.318 19.6251 13.1606 19.659 12.947L20.0042 10.7603C20.0376 10.5467 20.2218 10.3894 20.4379 10.3894H21.4381C23.5209 10.3894 24.7225 9.38183 25.0363 7.38422C25.1778 6.51115 25.042 5.82476 24.6332 5.34421C24.1836 4.81597 23.3868 4.53636 22.3291 4.53636M29.6682 10.4077C29.5215 11.2727 28.8355 11.8535 27.9596 11.8535C27.5206 11.8535 27.1689 11.712 26.9431 11.4447C26.7189 11.1797 26.6349 10.8019 26.7058 10.3817C26.842 9.52408 27.5398 8.92492 28.4022 8.92492C28.8322 8.92492 29.1807 9.06758 29.4114 9.3374C29.6434 9.60927 29.7347 9.98914 29.6682 10.4077ZM31.7779 7.46084H30.2641C30.2012 7.46077 30.1403 7.4832 30.0925 7.52409C30.0446 7.56498 30.013 7.62162 30.0033 7.6838L29.9372 8.10688L29.8313 7.95362C29.5036 7.47796 28.7727 7.31859 28.0431 7.31859C26.3708 7.31859 24.9422 8.58621 24.6642 10.3633C24.5195 11.2506 24.7249 12.098 25.2279 12.6894C25.6897 13.2328 26.3488 13.459 27.1342 13.459C28.4825 13.459 29.2301 12.5933 29.2301 12.5933L29.1624 13.0139C29.1564 13.0515 29.1587 13.09 29.1691 13.1266C29.1794 13.1633 29.1976 13.1973 29.2224 13.2262C29.2471 13.2552 29.2779 13.2784 29.3125 13.2943C29.3471 13.3102 29.3848 13.3184 29.4229 13.3184H30.7858C31.0019 13.3184 31.1861 13.1614 31.2199 12.9475L32.0384 7.76572C32.0443 7.72808 32.0419 7.6896 32.0315 7.65294C32.0211 7.61629 32.0029 7.58232 31.9781 7.55339C31.9533 7.52445 31.9225 7.50123 31.8879 7.48532C31.8533 7.46942 31.8156 7.46121 31.7775 7.46125" fill="#003087"/>
<path d="M52.2163 10.4077C52.0696 11.2727 51.3836 11.8535 50.5077 11.8535C50.0687 11.8535 49.7169 11.712 49.4911 11.4447C49.2669 11.1797 49.183 10.8019 49.2539 10.3817C49.39 9.52408 50.0874 8.92492 50.9503 8.92492C51.3803 8.92492 51.7288 9.06758 51.9595 9.3374C52.1914 9.60927 52.2827 9.98914 52.2163 10.4077ZM54.326 7.46084H52.8122C52.7493 7.46077 52.6884 7.4832 52.6405 7.52409C52.5927 7.56498 52.5611 7.62162 52.5513 7.6838L52.4853 8.10688L52.3793 7.95362C52.0516 7.47796 51.3208 7.31859 50.5912 7.31859C48.9193 7.31859 47.4907 8.58621 47.2123 10.3633C47.0676 11.2506 47.2734 12.098 47.7764 12.6894C48.2382 13.2328 48.8973 13.459 49.6827 13.459C51.0314 13.459 51.7789 12.5933 51.7789 12.5933L51.7113 13.0139C51.7052 13.0515 51.7074 13.0899 51.7176 13.1266C51.7279 13.1632 51.746 13.1972 51.7707 13.2262C51.7954 13.2552 51.8261 13.2784 51.8606 13.2943C51.8952 13.3102 51.9329 13.3184 51.9709 13.3184H53.3335C53.5495 13.3184 53.7338 13.1614 53.768 12.9475L54.5864 7.76572C54.5923 7.72808 54.59 7.6896 54.5796 7.65294C54.5692 7.61629 54.551 7.58232 54.5262 7.55339C54.5014 7.52445 54.4706 7.50123 54.436 7.48532C54.4014 7.46942 54.3637 7.46121 54.3256 7.46125" fill="#009CDE"/>
<path d="M39.8405 7.46151H38.3186C38.1731 7.46151 38.0374 7.53365 37.9558 7.6543L35.8567 10.7455L34.967 7.77495C34.9398 7.68434 34.8842 7.60489 34.8084 7.54837C34.7325 7.49184 34.6405 7.46124 34.5459 7.4611H33.0504C33.0085 7.46112 32.9672 7.47114 32.9299 7.49033C32.8926 7.50952 32.8604 7.53733 32.8361 7.57144C32.8117 7.60555 32.7958 7.64499 32.7897 7.68648C32.7836 7.72797 32.7875 7.77032 32.801 7.81L34.4762 12.728L32.9005 14.9514C32.8726 14.9909 32.8561 15.0373 32.8528 15.0855C32.8495 15.1336 32.8595 15.1818 32.8817 15.2247C32.9039 15.2676 32.9375 15.3036 32.9788 15.3287C33.02 15.3538 33.0674 15.3671 33.1157 15.3672H34.636C34.7795 15.3672 34.9144 15.2967 34.9967 15.1785L40.0566 7.87522C40.084 7.83574 40.1002 7.78949 40.1032 7.74149C40.1063 7.69349 40.0961 7.64557 40.0738 7.60294C40.0516 7.56031 40.0181 7.52459 39.9769 7.49965C39.9358 7.47472 39.8886 7.46153 39.8405 7.46151Z" fill="#003087"/>
<path d="M56.11 4.75972L54.8123 13.0139C54.8064 13.0515 54.8087 13.0899 54.8191 13.1266C54.8295 13.1632 54.8477 13.1971 54.8724 13.2261C54.8971 13.255 54.9279 13.2782 54.9624 13.2942C54.997 13.3101 55.0346 13.3183 55.0727 13.3184H56.3774C56.5934 13.3184 56.7777 13.161 56.8115 12.9474L58.0909 4.84124C58.0969 4.80361 58.0946 4.76515 58.0843 4.72849C58.0739 4.69183 58.0557 4.65786 58.031 4.62891C58.0062 4.59997 57.9754 4.57674 57.9408 4.56083C57.9062 4.54492 57.8686 4.53671 57.8305 4.53677H56.3705C56.3076 4.53661 56.2468 4.55896 56.199 4.59979C56.1512 4.64062 56.1197 4.69762 56.11 4.75972Z" fill="#009CDE"/>
<path d="M10.632 1.74266C9.94973 0.964975 8.71635 0.631562 7.13856 0.631562H2.55925C2.40306 0.631479 2.25197 0.687145 2.13316 0.788541C2.01436 0.889935 1.93564 1.0304 1.91118 1.18467L0.00527416 13.2784C-0.00356324 13.3345 -0.000133134 13.3918 0.0153284 13.4465C0.0307899 13.5011 0.0579152 13.5518 0.0948353 13.5949C0.131755 13.6381 0.177593 13.6727 0.229189 13.6965C0.280786 13.7202 0.336916 13.7325 0.39371 13.7324H3.22078L3.9308 9.22893L3.90879 9.36995C3.93279 9.216 4.01098 9.07567 4.12927 8.97426C4.24757 8.87286 4.3982 8.81703 4.55401 8.81685H5.89744C8.53661 8.81685 10.6031 7.74488 11.2067 4.64391C11.2247 4.5522 11.2402 4.46294 11.2536 4.37571C11.433 3.22956 11.2524 2.44943 10.6324 1.74307" fill="#003087"/>
<path d="M4.69339 4.3912C4.71482 4.25641 4.78358 4.13367 4.88734 4.045C4.99109 3.95633 5.12306 3.90754 5.25954 3.90739H8.84962C9.27474 3.90739 9.67133 3.93511 10.0337 3.99298C10.2318 4.02486 10.4278 4.06869 10.6206 4.12423C10.8396 4.18579 11.0515 4.27022 11.2528 4.37612C11.4329 3.22956 11.252 2.44984 10.632 1.74307C9.94931 0.965792 8.71634 0.63238 7.13855 0.63238H2.55883C2.40278 0.632491 2.25188 0.688243 2.13324 0.789621C2.01461 0.891 1.93601 1.03136 1.91157 1.18548L0.00485029 13.278C-0.00404693 13.3341 -0.00067543 13.3914 0.0147327 13.4461C0.0301408 13.5008 0.057219 13.5514 0.0941015 13.5946C0.130984 13.6378 0.176794 13.6725 0.228374 13.6963C0.279954 13.7201 0.336078 13.7324 0.392879 13.7324H3.22035L3.93038 9.22852L4.69339 4.3912Z" fill="#003087"/>
<path d="M11.2532 4.37562C11.2392 4.4653 11.2236 4.55471 11.2064 4.64382C10.6027 7.74438 8.53622 8.81676 5.89705 8.81676H4.55322C4.39743 8.81687 4.24681 8.87268 4.12856 8.97411C4.01031 9.07554 3.93223 9.2159 3.9084 9.36986L3.22039 13.7319L3.02474 14.9694C3.01696 15.0185 3.01993 15.0687 3.03344 15.1166C3.04694 15.1645 3.07067 15.2088 3.10299 15.2467C3.1353 15.2845 3.17543 15.3148 3.2206 15.3356C3.26578 15.3564 3.31493 15.3672 3.36467 15.3672H5.74787C6.02993 15.3672 6.26959 15.1618 6.31402 14.8834L6.33725 14.7619L6.78642 11.9153L6.81495 11.758C6.83631 11.6231 6.9051 11.5002 7.00896 11.4115C7.11282 11.3228 7.24493 11.2741 7.3815 11.2741H7.73815C10.0468 11.2741 11.8544 10.3367 12.3827 7.62373C12.6028 6.49062 12.4886 5.54379 11.9058 4.879C11.7207 4.6729 11.4996 4.50231 11.2532 4.37562Z" fill="#009CDE"/>
<path d="M10.621 4.12342C10.5289 4.09611 10.4339 4.07165 10.3361 4.05005C10.2382 4.02845 10.1372 4.00929 10.0336 3.99299C9.67088 3.93389 9.2747 3.90617 8.84917 3.90617H5.2595C5.12286 3.906 4.99068 3.95473 4.88684 4.04354C4.783 4.13235 4.71437 4.25538 4.69335 4.39039L3.93034 9.22852L3.90833 9.36914C3.93215 9.21518 4.01024 9.07482 4.12848 8.97339C4.24673 8.87196 4.39735 8.81615 4.55314 8.81604H5.89697C8.53614 8.81604 10.6026 7.74407 11.2063 4.6431C11.2242 4.55139 11.2393 4.46254 11.2532 4.3749C11.0937 4.29149 10.9277 4.22141 10.7567 4.1654C10.7123 4.15073 10.667 4.13728 10.621 4.12342Z" fill="#012169"/>
</svg>
