<svg width="128" height="128" viewBox="0 0 128 128" fill="none" xmlns="http://www.w3.org/2000/svg">
<path fill-rule="evenodd" clip-rule="evenodd" d="M64 128C99.3462 128 128 99.3462 128 64C128 28.6538 99.3462 0 64 0C28.6538 0 0 28.6538 0 64C0 99.3462 28.6538 128 64 128ZM99.5762 48.0017C101.344 46.0267 101.177 42.9921 99.2017 41.2238C97.2267 39.4556 94.1921 39.6232 92.4238 41.5983L70.8611 65.6826C66.4919 70.5629 63.5494 73.8322 61.0337 75.9466C58.6372 77.9609 57.2296 78.4 56 78.4C54.7704 78.4 53.3628 77.9609 50.9663 75.9466C48.4506 73.8321 45.5081 70.5628 41.1388 65.6826L35.5762 59.4694C33.8079 57.4943 30.7733 57.3267 28.7983 59.095C26.8232 60.8632 26.6556 63.8978 28.4238 65.8729L34.2242 72.3515C38.2936 76.8972 41.6879 80.6887 44.7894 83.2955C48.0703 86.0532 51.6091 88 56 88C60.3909 88 63.9297 86.0532 67.2105 83.2956C70.312 80.6887 73.7064 76.8972 77.7758 72.3516L99.5762 48.0017Z" fill="#66CC99"/>
</svg>
