<svg width="129" height="81" viewBox="0 0 129 81" fill="none" xmlns="http://www.w3.org/2000/svg">
<path d="M66.5031 72.757C64.2567 72.4364 62.3142 71.2843 60.9405 69.4578C60.422 68.7684 59.8315 67.6387 59.5607 66.8179C59.1418 65.5484 58.9558 64.0067 59.0505 62.587C59.3442 58.1805 62.0155 54.8832 66.0159 53.9889C66.5498 53.8696 66.7569 53.8556 67.9655 53.8568C69.4287 53.8579 70.0391 53.9351 71.1555 54.2581C72.0869 54.5276 73.2107 55.0527 73.5904 55.3958L73.7199 55.5128V57.6825C73.7199 59.1049 73.6995 59.8647 73.6608 59.8886C73.6283 59.9087 73.4553 59.7914 73.2763 59.6282C71.444 57.9563 68.2811 57.251 66.2521 58.062C65.1108 58.5181 64.0995 59.5418 63.5951 60.7514C63.2148 61.6635 63.1656 61.9501 63.1668 63.2484C63.1679 64.3381 63.1793 64.4691 63.3206 65.0007C63.7303 66.543 64.6961 67.7921 65.9227 68.3664C66.7004 68.7305 67.0084 68.7914 68.0518 68.7874C68.8432 68.7844 69.0453 68.7641 69.4904 68.6429L70.0083 68.502L70.0253 67.728C70.0552 66.3678 69.8692 65.497 69.2953 64.3113C69.1119 63.9321 68.7886 63.3642 68.5769 63.0493C68.3652 62.7345 68.1998 62.4372 68.2094 62.3887C68.2247 62.3106 68.5383 62.3028 70.9588 62.3203C72.4615 62.3313 73.7104 62.3522 73.7342 62.3668C73.758 62.3815 73.7774 64.3291 73.7774 66.6948V70.9963L73.604 71.1196C73.3558 71.296 72.1181 71.8733 71.4757 72.1124C70.7578 72.3795 70.0147 72.5881 69.3753 72.702C68.6525 72.8308 67.2135 72.8583 66.5031 72.7569L66.5031 72.757ZM84.4517 72.7488C82.4422 72.4444 80.7827 71.5499 79.4617 70.0591C77.3564 67.6834 76.5258 64.3951 77.1784 61.0193C77.8265 57.6663 80.2091 54.8889 83.196 54.0046C84.203 53.7064 85.5619 53.6259 86.6138 53.8022C89.125 54.2231 91.3726 55.9296 92.6186 58.3614C94.1603 61.3706 94.1052 65.4612 92.4837 68.374C91.2621 70.5685 89.2113 72.1283 86.8685 72.6449C86.475 72.7317 84.8108 72.8033 84.4517 72.7488ZM86.5659 68.4632C87.964 67.9404 88.9532 66.7281 89.4128 64.9743C89.6064 64.2353 89.658 62.9046 89.5253 62.0686C89.0683 59.1879 86.9085 57.3606 84.5781 57.8831C83.3586 58.1565 82.3957 58.975 81.7474 60.2893C81.2342 61.3297 81.0478 62.2845 81.1026 63.5926C81.1675 65.1434 81.6683 66.4398 82.5717 67.3959C83.1491 68.007 83.6336 68.3117 84.3941 68.542C84.9201 68.7013 86.0376 68.6607 86.5659 68.4631V68.4632ZM20.82 72.5919C20.7971 72.5323 28.7389 55.0648 29.0582 54.4725C29.1242 54.3501 29.1625 54.3433 29.7863 54.3433C30.4056 54.3433 30.4497 54.3514 30.5293 54.4725C30.5759 54.5437 31.1569 55.8298 31.8205 57.3306C37.1471 69.3784 38.5034 72.4698 38.5034 72.5628C38.5034 72.6436 38.4606 72.6697 38.3283 72.6697C37.7521 72.6697 35.8509 72.08 35.0214 71.644C34.7259 71.4887 34.0095 71.0521 33.4295 70.6739C32.8496 70.2956 32.1808 69.8808 31.9434 69.752C30.7536 69.1065 28.8275 68.5809 27.34 68.4958L26.7358 68.4612L26.4193 69.111C26.2452 69.4683 25.9841 69.9434 25.839 70.1667C25.0223 71.4237 23.5436 72.2823 21.6737 72.5851C21.0284 72.6896 20.8581 72.6909 20.82 72.5922V72.5919ZM30.8696 63.5695C30.305 62.288 29.8193 61.2468 29.7902 61.2559C29.7154 61.2792 28.2039 64.7631 28.2508 64.804C28.2721 64.8225 28.5096 64.8833 28.7786 64.9391C29.5191 65.0926 30.5185 65.395 31.2242 65.6792C31.5723 65.8193 31.8659 65.9263 31.8766 65.9168C31.8873 65.9077 31.4341 64.8511 30.8696 63.5695ZM6.71134 72.4876C6.6959 72.4455 6.67649 69.2701 6.66822 65.431C6.65663 60.0455 6.63696 58.4145 6.58215 58.2915C6.54309 58.2039 6.3147 57.9079 6.07463 57.6337C5.2885 56.736 4.6688 55.6722 4.45714 54.8571C4.29301 54.225 3.89175 54.2858 8.22772 54.2858C10.4454 54.2858 12.2688 54.3107 12.6172 54.3458C16.2819 54.7148 19.0177 56.5123 20.2379 59.3529C20.504 59.9723 20.6947 60.5993 20.8485 61.3601C20.964 61.9318 20.9804 62.1837 20.9809 63.3916C20.9816 64.9743 20.9141 65.4686 20.5428 66.6044C19.9223 68.5026 18.8035 69.9596 17.0821 71.1115C16.1394 71.7422 15.0939 72.1515 13.8173 72.3895C13.2039 72.5038 12.9215 72.5147 9.9475 72.5384C7.31282 72.5594 6.7344 72.5504 6.71134 72.4876V72.4876ZM12.9829 68.3898C15.0497 67.9254 16.3131 66.7786 16.8178 64.9087C16.9291 64.4961 16.9482 64.2833 16.9482 63.449C16.9483 62.3194 16.8501 61.8221 16.4718 61.0361C16.0106 60.0779 15.3465 59.4168 14.364 58.9376C13.4434 58.4887 12.6532 58.3263 11.2566 58.2991L10.451 58.2834L10.4362 63.3365C10.428 66.1158 10.4351 68.4256 10.4519 68.4696C10.4938 68.5791 12.4089 68.5187 12.9829 68.3898L12.9829 68.3898ZM40.6241 72.4157C40.578 72.3148 40.5744 69.8232 40.611 63.3243L40.6613 54.372L41.0116 54.3551L41.3619 54.3383L46.5487 59.0804C49.4014 61.6886 51.7491 63.8225 51.7657 63.8225C51.7823 63.8225 51.7959 61.7207 51.7959 59.1518C51.7959 55.5957 51.8123 54.4647 51.8649 54.4123C51.9447 54.3326 55.6282 54.3122 55.7522 54.3907C55.8095 54.4271 55.8213 56.2833 55.8097 63.4813L55.7951 72.5261L55.4476 72.5429L55.1001 72.5597L49.929 67.8033C47.0849 65.1873 44.723 63.0263 44.6804 63.001C44.6158 62.9626 44.603 63.7333 44.603 67.6641C44.603 70.2541 44.5872 72.414 44.568 72.464C44.5372 72.5443 44.3106 72.5548 42.6103 72.5548H40.6876L40.6241 72.4157ZM100.571 72.426C100.552 72.3548 100.536 69.1362 100.536 65.2735L100.535 58.2503H98.0145C96.131 58.2503 95.4767 58.2328 95.4251 58.1813C95.3743 58.1306 95.356 57.6371 95.356 56.3183C95.356 54.7639 95.3681 54.5122 95.4465 54.4339C95.5277 54.3528 96.252 54.3437 102.567 54.3445C106.434 54.345 109.631 54.3662 109.671 54.3915C109.727 54.4274 109.74 54.8541 109.728 56.3295L109.713 58.2215L107.167 58.2365L104.621 58.2515V65.3125C104.621 69.196 104.605 72.4144 104.586 72.4644C104.555 72.5448 104.324 72.5553 102.578 72.5553H100.606L100.571 72.426ZM112.803 72.4863C112.711 72.3946 112.702 54.6258 112.794 54.4548C112.852 54.3461 112.978 54.3437 118.678 54.3446C121.901 54.345 124.538 54.3678 124.581 54.3957C124.692 54.4653 124.627 54.8499 124.379 55.607C123.889 57.1037 123.017 58.0053 121.883 58.189C121.665 58.2243 120.51 58.2496 119.107 58.2498L116.705 58.2505V59.8011V61.3517L119.712 61.3666L122.718 61.3815V63.2774V65.1732L119.712 65.1881L116.705 65.203V66.8973V68.5915H120.153C123.212 68.5915 123.612 68.6017 123.692 68.6818C123.771 68.76 123.783 69.0106 123.783 70.5527C123.783 71.6703 123.761 72.3747 123.723 72.4445C123.665 72.5531 123.544 72.5556 118.268 72.5556C114.148 72.5556 112.856 72.5393 112.804 72.4866L112.803 72.4863ZM32.5514 49.6715C32.4542 49.6005 32.471 49.5673 32.7916 49.1975C33.3196 48.5883 35.224 46.7452 36.029 46.0641C38.6417 43.8537 41.8352 41.8263 44.8907 40.4381C48.4711 38.8115 52.1802 37.7102 56.0053 37.138C56.5544 37.0559 57.0576 36.9775 57.1236 36.9639C57.2051 36.947 57.3104 36.8046 57.4508 36.5213C57.7031 36.0121 57.9944 35.6632 58.3319 35.4657L58.586 35.317V34.8693C58.586 34.5537 58.5414 34.2714 58.435 33.9125C58.1418 32.9243 58.0652 32.5944 58.0237 32.1418L57.9818 31.6846L57.7525 32.0764C57.4792 32.5435 56.9735 33.1082 56.5088 33.4651C55.9444 33.8988 55.8726 33.9169 54.7306 33.9151C52.796 33.9121 51.2152 33.5817 49.8106 32.887C49.1365 32.5536 48.8436 32.3319 48.8728 32.1773C48.8854 32.1106 49.1486 31.9946 49.7535 31.7893C50.906 31.3983 51.4919 31.1512 52.48 30.6394C55.5024 29.0739 57.5262 26.8387 58.4366 24.0608C58.7863 22.9935 58.9827 21.6715 58.8074 21.5634C58.7058 21.5007 58.6169 21.6631 58.3864 22.3327C57.9185 23.6913 57.0613 24.8298 55.7901 25.781C55.2054 26.2186 54.143 26.8254 53.9618 26.8254C53.8435 26.8254 53.8404 26.6645 53.9496 26.1827C54.1093 25.478 54.1336 24.6393 53.9943 24.6436C53.972 24.6442 53.8502 24.7916 53.7236 24.971C53.3844 25.4516 51.8694 26.9844 51.0798 27.6457C49.4873 28.9795 47.7007 30.1884 46.2383 30.9215C45.621 31.231 44.7287 31.5907 44.4797 31.6304C44.1799 31.6783 44.1875 31.6178 44.5715 30.8931C45.2699 29.5753 46.2872 26.985 46.609 25.7051C46.7043 25.326 46.8364 24.7314 46.9024 24.3838C47.0264 23.7312 47.249 22.1565 47.2215 22.1261C47.2129 22.1169 47.0346 22.2384 46.8252 22.3967C46.4185 22.704 46.0225 22.8653 45.9217 22.7648C45.8291 22.6723 45.8506 20.5112 45.9523 19.6874C46.1759 17.8764 46.6118 16.4263 47.3985 14.8759C48.4355 12.8322 49.9416 11.1865 51.4188 10.483C52.068 10.1738 52.3453 10.1076 52.9906 10.1076C53.5898 10.1076 53.9551 10.2025 54.558 10.5146C55.2903 10.8937 55.8375 11.4104 56.1444 12.0125L56.2809 12.2802L55.9888 12.6445C55.2714 13.539 55.051 14.4263 55.3025 15.4078C55.4445 15.9623 55.5978 16.26 55.9165 16.6001C56.2832 16.9915 56.7507 17.1886 57.3873 17.2202C57.8646 17.2439 58.6078 17.1329 58.8064 17.0083C58.8676 16.9699 58.8421 16.8407 58.6792 16.3633C58.4121 15.5809 58.3334 15.0482 58.3744 14.3014C58.4269 13.3468 58.725 12.3657 59.1996 11.5858L59.4131 11.2348L59.2441 11.1164C58.7148 10.7457 57.9007 9.59037 58.1688 9.59054C58.1925 9.59056 58.3544 9.64709 58.5284 9.71612C58.7721 9.81276 58.9708 9.8425 59.3916 9.84535C60.0038 9.84943 60.0592 9.82902 60.8734 9.29653C61.4372 8.9278 62.3428 8.49086 62.9017 8.31783C63.2368 8.21411 63.4685 8.18408 63.9375 8.18361C64.4824 8.18305 64.5737 8.19871 64.8674 8.3427C65.242 8.52634 65.5389 8.82975 65.7488 9.2433C65.8589 9.46007 65.9486 9.55431 66.1084 9.62097C66.5225 9.79372 66.7366 10.1209 66.7929 10.667C66.8277 11.0057 66.7408 11.6405 66.6467 11.7345C66.6151 11.766 66.5064 11.7185 66.3736 11.615C65.751 11.1301 64.8688 11.2282 64.3012 11.8454C64.1001 12.0641 63.7826 12.5668 63.8356 12.5825C63.8442 12.5845 64.0583 12.5967 64.3115 12.6083C65.8351 12.6784 66.9704 13.6933 67.6727 15.6129C67.7613 15.8553 67.8786 16.2475 67.9332 16.4845C68.0764 17.1052 68.0502 17.0636 68.2531 16.993C68.5314 16.8961 69.0185 16.4137 69.189 16.0662C69.5179 15.3956 69.5726 14.4936 69.3271 13.7888C69.1831 13.3754 68.8084 12.7388 68.5962 12.5471C68.3801 12.3519 68.4508 12.2226 69.133 11.5659C70.1765 10.5615 70.8904 10.2298 72.1179 10.179C72.892 10.147 73.3586 10.229 74.095 10.5266C76.2694 11.4053 78.4414 14.5471 79.2965 18.0505C79.5666 19.1572 79.6527 19.8574 79.6876 21.2323C79.723 22.6278 79.7053 22.804 79.529 22.804C79.3668 22.804 78.7696 22.4939 78.534 22.2873C78.4256 22.1923 78.3175 22.1145 78.2938 22.1145C78.2701 22.1145 78.2643 22.5993 78.281 23.1917C78.3144 24.3817 78.4087 25.0214 78.7868 26.6243C79.3099 28.8415 79.6981 30.073 80.2003 31.1081C80.4638 31.6512 80.4885 31.7371 80.397 31.7935C80.3084 31.8482 79.5235 31.562 78.8859 31.2426C77.6368 30.6168 76.3749 29.7222 74.7622 28.3191C73.7279 27.4192 72.5119 25.7277 71.6087 23.9323C71.3463 23.4107 71.2783 23.3135 71.2414 23.4072C71.1679 23.5934 71.1817 24.281 71.2738 25.0179C71.321 25.3959 71.3599 25.7892 71.3601 25.8919C71.3607 26.0596 71.3437 26.0786 71.194 26.0786C70.9326 26.0786 70.2819 25.8595 69.7782 25.6019C69.4469 25.4325 69.1908 25.2407 68.8649 24.9182C68.6158 24.6717 68.4083 24.47 68.4039 24.47C68.3995 24.47 68.4055 25.0259 68.4173 25.7054C68.4671 28.5746 68.046 30.6349 66.9328 32.9682C66.5206 33.8323 66.4119 34.2177 66.4119 34.8159V35.1444L66.8291 35.2695C67.8795 35.5843 68.6869 36.1672 68.8268 36.7118C68.8626 36.8512 68.9006 36.992 68.9113 37.0246C68.9219 37.0573 69.1601 37.1171 69.4407 37.1576C70.0835 37.2504 71.4835 37.519 72.3101 37.7081C78.7366 39.1786 84.4858 42.0274 89.3512 46.1524C90.3519 47.0008 92.7667 49.4177 92.7667 49.5709C92.7667 49.7442 92.529 49.7788 92.0508 49.6752C91.4596 49.5472 90.7428 49.2674 88.5948 48.3262C85.0362 46.767 83.3363 46.092 81.0279 45.3214C70.4579 41.7933 59.6203 41.4097 48.573 44.1727C44.9949 45.0676 41.9175 46.1475 37.1511 48.1805C34.7635 49.1989 34.0636 49.4744 33.4719 49.6287C32.942 49.7669 32.6977 49.7782 32.5514 49.6715L32.5514 49.6715ZM63.5855 36.3927C63.7608 35.997 64.0385 35.6261 64.3022 35.4354C64.6172 35.2076 64.6363 35.1649 64.6348 34.6882C64.6331 34.1715 64.518 33.8298 64.1619 33.2852C63.6298 32.4715 63.1581 31.406 62.9615 30.574C62.9223 30.4081 62.8702 30.2724 62.8457 30.2724C62.8211 30.2724 62.7175 30.5115 62.6154 30.8038C62.4031 31.4111 62.0422 32.1606 61.82 32.4555C61.7367 32.566 61.4078 32.9668 61.0892 33.3459C60.7706 33.7251 60.4722 34.1258 60.4262 34.2364C60.3801 34.347 60.3421 34.5912 60.3417 34.7791L60.3411 35.1208L60.7829 35.1896C61.3827 35.2829 61.8959 35.4613 62.2502 35.6995C62.5701 35.9146 62.7232 36.098 62.8634 36.4338C62.9485 36.6376 62.9675 36.6493 63.2126 36.6493C63.4642 36.6493 63.4751 36.6421 63.5855 36.3926L63.5855 36.3927Z" fill="#263238"/>
<path d="M66.6135 72.7247C64.2047 72.4 62.0616 71.072 60.7238 69.075C58.9092 66.3664 58.5567 62.4978 59.8345 59.3164C61.0113 56.3865 63.4935 54.4109 66.5847 53.9439C67.1949 53.8518 68.6797 53.8646 69.4702 53.969C70.9993 54.1709 72.4267 54.6644 73.418 55.334L73.6625 55.4992V57.6508C73.6625 59.9729 73.6631 59.9691 73.3704 59.6505C72.8883 59.1256 71.7046 58.4386 70.7195 58.112C69.8336 57.8183 69.3508 57.7305 68.4228 57.6944C67.1095 57.6434 66.3383 57.8448 65.3691 58.492C64.3275 59.1876 63.6066 60.2546 63.2309 61.6569C63.1197 62.0721 63.1049 62.2677 63.1086 63.2781C63.1124 64.3285 63.1257 64.4752 63.2634 64.9888C63.6932 66.5918 64.6021 67.7805 65.8654 68.392C66.6619 68.7776 66.9889 68.8478 67.9945 68.8492C68.8615 68.8502 69.4117 68.7681 69.9011 68.5639L70.0948 68.4831V67.7175C70.0948 66.7799 70.0214 66.1639 69.8309 65.5047C69.6011 64.709 69.0182 63.5512 68.4726 62.8066C68.079 62.2694 67.8806 62.3061 70.9408 62.3495C72.4188 62.3705 73.6489 62.4085 73.6744 62.4339C73.6999 62.4593 73.7142 64.4048 73.706 66.757L73.6913 71.0337L72.8808 71.4359C71.646 72.0486 70.5008 72.4454 69.4043 72.6405C68.7606 72.7551 67.1899 72.8025 66.6135 72.7247L66.6135 72.7247ZM84.0834 72.6395C80.7408 72.0558 77.9426 69.1202 77.2301 65.4496C76.772 63.0892 77.0598 60.635 78.0295 58.6339C79.279 56.0555 81.5023 54.3003 84.0736 53.8625C84.7596 53.7457 85.8995 53.7442 86.6097 53.8595C88.3828 54.1463 90.1622 55.1714 91.3772 56.6061C92.9914 58.5118 93.7755 60.9313 93.67 63.6806C93.562 66.4953 92.5954 68.7513 90.7377 70.5241C89.6376 71.5738 88.358 72.2573 86.8687 72.5906C86.2909 72.7199 84.7028 72.748 84.0834 72.6398V72.6395ZM86.5661 68.5218C87.9899 67.9903 89.0094 66.745 89.4694 64.9757C89.6685 64.2096 89.7168 62.8836 89.5762 62.044C89.3233 60.5339 88.703 59.3946 87.6903 58.5801C86.974 58.004 85.9788 57.686 85.1032 57.7534C82.6451 57.9426 80.8976 60.4598 81.0486 63.594C81.1545 65.7946 82.1541 67.5651 83.7275 68.3389C84.333 68.6367 84.69 68.707 85.4877 68.6853C86.054 68.6699 86.2479 68.6405 86.5661 68.5218ZM20.9096 72.4557C20.9373 72.2954 28.9463 54.7691 29.1004 54.5314C29.1789 54.4103 29.2241 54.4021 29.8144 54.4021H30.4446L30.5321 54.5711C30.7219 54.9375 38.4073 72.3633 38.4325 72.4844C38.4562 72.5981 38.4362 72.6136 38.2657 72.6135C37.737 72.6135 35.8704 72.0274 35.051 71.6044C34.782 71.4655 34.044 71.0135 33.411 70.5998C31.7434 69.5101 30.9275 69.1422 29.2967 68.7442C28.6235 68.58 27.5001 68.4198 27.0212 68.4198H26.7081L26.3271 69.181C26.1175 69.5997 25.8356 70.0973 25.7004 70.2869C25.0577 71.1887 24.0267 71.8887 22.7519 72.2887C22.2901 72.4336 21.348 72.6136 21.0513 72.6136C20.8987 72.6136 20.8849 72.5983 20.9096 72.4557ZM31.9264 65.8898C31.8483 65.5916 29.8368 61.126 29.7879 61.1422C29.721 61.1644 28.1264 64.8003 28.1662 64.84C28.1816 64.8553 28.4746 64.9286 28.8173 65.0028C29.6508 65.1832 30.6432 65.4889 31.3107 65.7707C31.9492 66.0403 31.9667 66.0437 31.9264 65.8898ZM6.76767 72.4269C6.75338 72.3874 6.73477 69.227 6.72631 65.4037C6.71253 59.1686 6.70144 58.4316 6.61869 58.2512C6.56795 58.1406 6.34086 57.8466 6.11405 57.5977C5.65065 57.0893 5.182 56.4089 4.88245 55.8096C4.66251 55.3696 4.43799 54.699 4.43799 54.4822V54.3447H8.26688C10.538 54.3447 12.3231 54.3691 12.6546 54.4048C16.0495 54.77 18.4874 56.2381 19.9003 58.7683C20.355 59.5825 20.7665 60.938 20.8965 62.05C20.9992 62.928 20.94 64.7678 20.7848 65.5186C20.2976 67.8767 19.0795 69.7082 17.1293 71.0148C15.9002 71.8384 14.7444 72.2408 13.0407 72.4384C12.2572 72.5292 6.80107 72.5193 6.76767 72.4269L6.76767 72.4269ZM12.9358 68.4542C13.5486 68.3288 14.3013 68.0508 14.762 67.7796C15.2982 67.4639 16.0945 66.6678 16.3701 66.1718C17.0167 65.0084 17.2112 63.3747 16.8687 61.9854C16.7217 61.3894 16.331 60.5764 15.979 60.1343C14.98 58.8795 13.2818 58.2188 11.1705 58.2635L10.3937 58.2799L10.379 63.3579C10.3675 67.3345 10.3799 68.4546 10.4357 68.5219C10.4963 68.5947 10.6612 68.6025 11.515 68.5732C12.0693 68.5542 12.7086 68.5007 12.9358 68.4542L12.9358 68.4542ZM40.6679 72.4086C40.6222 72.2898 40.6233 54.7016 40.669 54.5314C40.6998 54.4167 40.7404 54.4021 41.0279 54.4021H41.3521L46.5309 59.1395C49.3793 61.7451 51.7421 63.8779 51.7814 63.8791C51.8379 63.8811 51.8562 62.8797 51.8678 59.1561L51.8825 54.4308H53.8102H55.7379L55.7666 63.393C55.7825 68.3221 55.7857 72.3886 55.7739 72.4295C55.7587 72.482 55.6534 72.4989 55.415 72.4869L55.0775 72.47L49.8912 67.7017C47.0387 65.0791 44.6692 62.925 44.6256 62.9148C44.5589 62.8992 44.5441 63.6539 44.5317 67.6831L44.5169 72.47L42.6101 72.4851C40.9087 72.4986 40.6994 72.4902 40.668 72.4085L40.6679 72.4086ZM100.636 72.4851C100.629 72.477 100.609 69.2644 100.593 65.3463L100.564 58.2225L98.0033 58.1939L95.4426 58.1652L95.4275 56.3489C95.4151 54.8664 95.4268 54.5205 95.4912 54.4671C95.5494 54.4189 97.4141 54.4056 102.613 54.4163L109.656 54.4309V56.298V58.1651L107.124 58.1938L104.592 58.2225L104.563 65.3463L104.534 72.47L102.592 72.4851C101.524 72.4932 100.644 72.4932 100.636 72.4851V72.4851ZM112.83 72.4604C112.809 72.4394 112.792 68.3967 112.792 63.4766C112.792 56.0101 112.805 54.5204 112.87 54.4664C112.927 54.419 114.512 54.4055 118.754 54.4163L124.56 54.4308L124.545 54.7099C124.525 55.0872 124.164 56.1523 123.906 56.5937C123.417 57.4302 122.692 57.9907 121.916 58.1317C121.706 58.1699 120.626 58.1938 119.11 58.1938H116.646L116.661 59.788L116.676 61.3822L119.684 61.3971L122.691 61.412L122.676 63.2642L122.661 65.1165L119.668 65.1452L116.676 65.1738L116.661 66.9117L116.646 68.6495H120.116C122.739 68.6495 123.604 68.6664 123.656 68.7185C123.707 68.7691 123.725 69.2562 123.725 70.5522C123.725 71.5228 123.71 72.3578 123.69 72.4078C123.659 72.4898 123.127 72.4986 118.262 72.4986C115.296 72.4986 112.851 72.4814 112.83 72.4604L112.83 72.4604ZM32.5766 49.584C32.5766 49.5148 33.7939 48.2408 34.5906 47.4762C40.2847 42.0114 48.2248 38.269 56.5327 37.1344L57.27 37.0337L57.4375 36.665C57.6755 36.1407 57.9653 35.7723 58.3288 35.5314L58.6437 35.3226V34.8726C58.6437 34.5533 58.5996 34.2745 58.492 33.9134C58.4086 33.6333 58.2907 33.2362 58.23 33.0308C58.1693 32.8255 58.1009 32.386 58.0781 32.0542L58.0365 31.451L57.8572 31.7961C57.4736 32.5346 56.7572 33.2994 56.0729 33.701L55.7953 33.8639L54.702 33.8588C52.7514 33.8506 51.111 33.5026 49.7367 32.8057C49.3017 32.5851 48.9189 32.3024 48.9189 32.2017C48.9189 32.149 49.1746 32.0359 49.6526 31.8773C53.1228 30.7262 55.6495 28.9823 57.2134 26.659C57.9298 25.5947 58.4024 24.5313 58.7033 23.3069C58.9666 22.2355 59.0015 21.483 58.7878 21.483C58.661 21.483 58.558 21.6777 58.3056 22.3949C57.7074 24.0941 56.3431 25.5781 54.4981 26.5364C53.9507 26.8207 53.9041 26.8245 53.9409 26.5817C53.9565 26.479 54.0137 26.1138 54.068 25.7703C54.1629 25.1705 54.1512 24.5279 54.0454 24.5279C54.0212 24.5279 53.8366 24.7411 53.6352 25.0018C51.8515 27.3107 47.8478 30.2974 45.0783 31.3852C44.5637 31.5873 44.3154 31.6411 44.3154 31.5506C44.3154 31.5266 44.4919 31.1582 44.7075 30.7319C45.4649 29.2344 46.3507 26.961 46.6677 25.7013C46.9585 24.5453 47.3506 22.1733 47.2718 22.046C47.256 22.0204 47.1077 22.1095 46.9424 22.244C46.5662 22.5498 46.144 22.7763 46.0309 22.733C45.8291 22.6557 45.867 20.4534 46.094 19.0615C46.3321 17.6015 46.7159 16.3924 47.3587 15.0774C48.5579 12.6241 50.4784 10.6872 52.1463 10.2488C52.6199 10.1244 53.3538 10.1252 53.7888 10.2509C54.6815 10.5085 55.6801 11.2543 56.0434 11.9347L56.2249 12.2748L55.929 12.6421C55.2796 13.4481 55.0308 14.3327 55.2051 15.2161C55.3924 16.1653 55.7963 16.7439 56.5059 17.0795C56.8714 17.2524 56.9197 17.2604 57.5792 17.2565C58.1053 17.2534 58.3451 17.226 58.5862 17.1416C58.9599 17.0107 58.9599 17.0107 58.7138 16.3127C58.4746 15.6345 58.3914 15.0526 58.4279 14.3151C58.4748 13.3693 58.7728 12.3827 59.2466 11.604C59.4529 11.265 59.4923 11.1422 59.3951 11.1422C59.1864 11.1422 58.118 9.85795 58.2071 9.71411C58.2269 9.68217 58.3663 9.70901 58.543 9.77963C58.7714 9.87035 58.9786 9.90058 59.3918 9.90337C60.004 9.90746 60.0594 9.88704 60.8736 9.35455C61.4361 8.98667 62.3417 8.54946 62.9019 8.37523C63.5313 8.17951 64.423 8.1826 64.8287 8.38238C65.1902 8.55995 65.5393 8.91581 65.7109 9.28162C65.8215 9.51737 65.8938 9.58872 66.1423 9.70744C66.37 9.81622 66.475 9.91141 66.5847 10.1086C66.7117 10.3369 66.7285 10.4349 66.7279 10.9479C66.7271 11.69 66.6682 11.7873 66.3633 11.5502C65.7647 11.0846 64.8701 11.1774 64.2997 11.7642C64.049 12.0222 63.7405 12.5502 63.7919 12.6333C63.8106 12.6634 63.9481 12.6741 64.0975 12.6572C64.4646 12.6154 65.1485 12.7668 65.6065 12.9911C66.5793 13.4675 67.4817 14.8405 67.8566 16.4145C68.0011 17.0214 68.0365 17.0942 68.1748 17.0697C68.3883 17.0317 68.8314 16.6986 69.0332 16.4241C69.3346 16.0142 69.4756 15.5727 69.507 14.9402C69.5504 14.0671 69.3263 13.3706 68.7907 12.714C68.5986 12.4787 68.5397 12.3628 68.5636 12.2678C68.6146 12.0647 69.6764 11.0762 70.1364 10.8034C70.7807 10.4214 71.3186 10.2694 72.1376 10.238C72.9317 10.2075 73.5222 10.3173 74.2004 10.6215C76.3322 11.5777 78.4641 14.7371 79.2622 18.1228C79.5227 19.2275 79.5989 19.89 79.6309 21.3247C79.6587 22.5715 79.6529 22.6914 79.5635 22.7257C79.4275 22.7778 78.9319 22.5377 78.5676 22.2432C78.3177 22.0412 78.2573 22.0139 78.228 22.0901C78.2084 22.141 78.2068 22.6524 78.2244 23.2264C78.2632 24.4905 78.3701 25.1399 78.8757 27.1855C79.4165 29.3736 79.6615 30.1258 80.1774 31.1819C80.3301 31.4945 80.3912 31.679 80.3542 31.716C80.274 31.7961 79.5002 31.5033 78.7106 31.0942C76.8018 30.1052 74.415 28.1211 73.2699 26.5715C72.72 25.8273 72.0759 24.7603 71.6116 23.8247C71.4275 23.4534 71.259 23.1497 71.2373 23.1497C71.1002 23.1497 71.1333 24.6005 71.2932 25.5939C71.3509 25.9526 71.3294 26.0221 71.1606 26.0221C70.931 26.0221 70.2565 25.7901 69.7991 25.5537C69.3208 25.3066 68.7374 24.8168 68.5384 24.4954C68.4694 24.3839 68.3967 24.3088 68.3768 24.3287C68.3569 24.3485 68.3486 25.0027 68.3583 25.7823C68.394 28.6412 67.9867 30.6394 66.9083 32.8961C66.4504 33.8544 66.3274 34.3095 66.3654 34.9059C66.3831 35.1829 66.3855 35.186 66.6422 35.2625C67.5582 35.5353 68.2314 35.9055 68.5595 36.3169C68.6527 36.4337 68.7597 36.666 68.7975 36.8335L68.8661 37.1378L69.7826 37.2932C77.4993 38.6012 84.3386 41.8081 89.8609 46.7079C90.7415 47.4893 92.7226 49.5085 92.6785 49.5798C92.66 49.6096 92.5402 49.6339 92.4121 49.6339C91.882 49.6339 91.1093 49.3489 88.3648 48.1407C83.3987 45.9547 80.3877 44.8841 76.5049 43.9242C73.289 43.1291 70.3997 42.6784 66.6422 42.3859C65.3731 42.2872 60.656 42.2855 59.3918 42.3839C55.2511 42.7046 52.2244 43.1798 48.6709 44.0672C44.9004 45.0087 41.9689 46.0378 36.9653 48.1766C34.995 49.0188 34.143 49.3559 33.555 49.5262C33.1704 49.6375 32.5766 49.673 32.5766 49.5846L32.5766 49.584ZM63.6942 36.3057C63.8712 35.9294 64.0812 35.6742 64.5044 35.3211C64.678 35.1762 64.6858 35.1514 64.6858 34.7426C64.6858 34.1698 64.5794 33.8469 64.1884 33.2319C63.7136 32.4853 63.3416 31.6709 63.0926 30.8334C62.9728 30.4305 62.8572 30.1009 62.8358 30.1009C62.8144 30.1009 62.741 30.2754 62.6727 30.4887C62.3138 31.6094 61.8993 32.3282 61.0244 33.3468C60.3871 34.0887 60.2934 34.271 60.288 34.7794L60.2837 35.178L60.7464 35.2447C61.6427 35.374 62.3151 35.6895 62.6446 36.1354C62.7228 36.2412 62.7868 36.3469 62.7868 36.3703C62.7868 36.3937 62.8121 36.4792 62.8429 36.5602C62.8935 36.693 62.9292 36.7075 63.2026 36.7065L63.5061 36.7055L63.6942 36.3058L63.6942 36.3057Z" fill="#263238"/>
<path d="M66.2681 72.6367C65.1921 72.4372 64.2904 72.1043 63.3941 71.5757C60.717 69.997 59.1039 66.8979 59.1039 63.3331C59.1039 58.8237 61.7007 55.178 65.6288 54.1724C67.4345 53.7102 69.6973 53.8308 71.6391 54.4928C72.1602 54.6705 73.2533 55.2153 73.4934 55.417L73.6624 55.5589V57.6411C73.6624 58.7864 73.6446 59.7411 73.6228 59.7628C73.6011 59.7845 73.491 59.7139 73.3783 59.606C72.5104 58.7749 71.1207 58.098 69.6343 57.7822C68.7768 57.6 67.501 57.5989 66.8435 57.7801C64.2378 58.4976 62.7006 61.0815 63.0775 64.1103C63.3831 66.5662 64.8182 68.3259 66.901 68.7987C67.7511 68.9917 69.1546 68.897 69.943 68.5937L70.1077 68.5303L70.0797 67.3393C70.0563 66.3434 70.0312 66.0777 69.9266 65.7174C69.6508 64.7675 69.2764 63.9694 68.6793 63.0584C68.4766 62.7492 68.3109 62.471 68.3109 62.4402C68.3109 62.4044 69.2708 62.3896 70.9722 62.3991L73.6336 62.414V66.7203V71.0265L72.9719 71.3601C71.8101 71.9457 70.6501 72.3618 69.548 72.5881C68.8926 72.7227 66.8914 72.7524 66.2681 72.6368V72.6367ZM84.4805 72.6659C81.5027 72.2979 78.9185 70.1482 77.7165 67.0394C77.3017 65.9666 77.1143 64.9686 77.0738 63.6171C77.0167 61.7129 77.3246 60.1581 78.063 58.6221C78.9047 56.8713 80.5294 55.2214 82.1281 54.494C82.6865 54.24 83.5282 53.9734 84.0777 53.8766C84.7029 53.7665 86.1218 53.7795 86.7352 53.9009C89.9139 54.5303 92.4592 57.0495 93.3053 60.4037C93.7058 61.9915 93.7525 63.9917 93.4259 65.5737C92.7726 68.7382 90.6614 71.2717 87.8315 72.287C86.8943 72.6233 85.4536 72.7862 84.4805 72.6659ZM86.1188 68.6753C87.8216 68.3152 89.1285 66.7868 89.5816 64.6257C89.7078 64.0237 89.7223 62.6132 89.6088 61.983C89.2208 59.83 87.9252 58.2406 86.2083 57.8116C85.6532 57.6729 84.6395 57.7243 84.1213 57.9173C83.0026 58.3342 82.0582 59.2781 81.5374 60.4998C80.8107 62.2048 80.8353 64.4682 81.5982 66.0935C82.5108 68.0378 84.3003 69.0599 86.1188 68.6753ZM37.8199 72.5205C36.8888 72.3146 35.6635 71.8908 35.0174 71.5514C34.7617 71.417 34.0671 70.99 33.4738 70.6025C32.067 69.6834 31.5035 69.3932 30.4579 69.0491C29.2968 68.667 28.3526 68.476 27.4221 68.435L26.6698 68.4019L26.3436 69.074C26.1642 69.4436 25.905 69.9189 25.7676 70.1302C25.0075 71.2987 23.5913 72.1496 21.8815 72.4651C21.3915 72.5555 20.8952 72.5823 20.8952 72.5184C20.8952 72.425 29.1373 54.4842 29.198 54.4458C29.3243 54.3657 30.369 54.3915 30.4397 54.4767C30.5228 54.5767 38.3975 72.3831 38.4086 72.4963C38.42 72.6117 38.2615 72.6183 37.8199 72.5205ZM32.0011 65.9976C32.0011 65.8543 29.845 61.0632 29.7888 61.0816C29.7168 61.1052 28.1457 64.667 28.1457 64.8067C28.1457 64.8754 28.2154 64.914 28.3902 64.9418C29.1825 65.068 30.6493 65.5105 31.5119 65.8836C31.9653 66.0797 32.0011 66.088 32.0011 65.9976ZM6.8149 72.4245C6.78929 72.385 6.7554 69.1987 6.73957 65.3438C6.71552 59.4844 6.6976 58.3118 6.63033 58.1936C6.58607 58.1158 6.35768 57.8327 6.1228 57.5644C5.58787 56.9536 5.13686 56.2802 4.84534 55.6572C4.58289 55.0963 4.40437 54.4676 4.48477 54.3873C4.56543 54.3068 12.3442 54.3665 12.9255 54.452C15.8378 54.8809 17.9081 55.9871 19.2791 57.8466C19.6883 58.4016 20.2452 59.4946 20.4627 60.1696C20.9524 61.6889 21.0752 63.6443 20.786 65.3163C20.4462 67.2806 19.4559 69.0679 18.0278 70.2946C16.4651 71.6369 14.9011 72.2525 12.5802 72.439C11.505 72.5253 6.87274 72.5137 6.8149 72.4245V72.4245ZM12.7816 68.4927C13.4778 68.3803 14.1737 68.144 14.7313 67.8307C15.3542 67.4807 16.1272 66.6956 16.4462 66.089C17.2407 64.578 17.2628 62.4174 16.4993 60.9036C16.0603 60.0334 15.3929 59.3669 14.5079 58.9151C13.5469 58.4245 12.724 58.2474 11.3292 58.2311L10.3936 58.2201V63.3905V68.561L10.7676 68.5954C11.2771 68.6422 12.1229 68.5994 12.7816 68.4927H12.7816ZM40.7292 72.4588C40.7077 72.4373 40.6901 68.3809 40.6901 63.4446C40.6901 55.3134 40.6987 54.4661 40.7811 54.4345C40.9517 54.3691 41.2396 54.3995 41.3822 54.4978C41.5142 54.5889 43.1906 56.1149 49.3358 61.7381C50.6571 62.9471 51.7604 63.9363 51.7875 63.9363C51.8889 63.9363 51.9102 63.0494 51.9106 58.8082L51.9112 54.4556L53.8245 54.4707L55.7378 54.4858V63.4767V72.4675L55.4886 72.4854C55.3294 72.4968 55.1879 72.4697 55.0971 72.4103C55.0189 72.3592 52.6376 70.1859 49.8053 67.581C46.9729 64.976 44.6308 62.8447 44.6006 62.8447C44.5669 62.8447 44.5424 63.5199 44.5375 64.5826C44.5331 65.5384 44.5137 67.7035 44.4943 69.394L44.4592 72.4675L42.6138 72.4826C41.5988 72.4908 40.7508 72.4806 40.7292 72.4586L40.7292 72.4588ZM100.689 72.4588C100.668 72.4373 100.65 69.2328 100.65 65.3377C100.65 61.3658 100.628 58.242 100.6 58.2246C100.572 58.2076 99.4393 58.1921 98.0821 58.1902C96.7249 58.1882 95.5818 58.1667 95.542 58.1422C95.4858 58.1075 95.473 57.6941 95.4848 56.2917L95.5 54.486H102.578H109.656L109.671 56.31C109.679 57.3132 109.679 58.1398 109.671 58.1469C109.663 58.154 108.503 58.1733 107.095 58.1899L104.534 58.2201L104.506 65.3439L104.477 72.4676L102.603 72.4827C101.572 72.4909 100.711 72.4807 100.689 72.4589L100.689 72.4588ZM112.888 72.4581C112.867 72.437 112.849 68.3781 112.849 63.4384V54.4571H118.69H124.531V54.6186C124.531 54.85 124.328 55.592 124.148 56.0176C123.927 56.5388 123.427 57.2774 123.128 57.522C122.813 57.7793 122.395 57.9936 122.054 58.072C121.9 58.1075 120.786 58.1316 119.258 58.1324C117.177 58.1334 116.707 58.148 116.653 58.2126C116.607 58.2684 116.592 58.7445 116.603 59.8356L116.618 61.3797L119.639 61.4097C121.301 61.4262 122.667 61.4456 122.676 61.4528C122.684 61.4599 122.684 62.2737 122.676 63.2612L122.66 65.0564L119.702 65.0713C117.634 65.0817 116.721 65.1055 116.667 65.1502C116.554 65.2441 116.554 68.5458 116.667 68.6396C116.721 68.6847 117.762 68.708 120.191 68.7185L123.639 68.7333V70.6004V72.4675L118.283 72.4822C115.337 72.4904 112.909 72.4792 112.888 72.4582L112.888 72.4581ZM32.634 49.5483C32.634 49.3817 34.7706 47.245 35.914 46.2682C41.5078 41.4896 48.371 38.3949 55.9678 37.2259C56.6008 37.1285 57.1705 37.0372 57.2338 37.0231C57.3101 37.0061 57.3828 36.902 57.4498 36.7137C57.596 36.3026 58.0252 35.7505 58.3601 35.5426C58.5348 35.4342 58.6599 35.3105 58.6814 35.2246C58.7503 34.9509 58.6466 34.3112 58.4094 33.5455C58.1988 32.8655 58.1656 32.6832 58.1405 32.0662C58.1247 31.6791 58.0909 31.3624 58.0654 31.3624C58.0399 31.3624 57.9523 31.5079 57.8708 31.6857C57.4709 32.5578 56.3946 33.6378 55.7846 33.7791C55.4808 33.8495 54.037 33.8453 53.3617 33.772C51.7748 33.5999 50.2543 33.1314 49.308 32.5228C49.1261 32.4058 48.9771 32.2684 48.9768 32.2173C48.9765 32.1498 49.1373 32.0737 49.5661 31.9386C53.0101 30.8536 55.7834 28.925 57.3346 26.5364C58.1869 25.224 58.8031 23.5353 58.9641 22.0708C58.9952 21.7881 58.9838 21.6828 58.9097 21.57C58.7337 21.3017 58.577 21.4867 58.3234 22.2621C58.1517 22.7874 57.8515 23.3923 57.5 23.921C57.1685 24.4199 56.2801 25.3252 55.7089 25.7466C55.0133 26.2596 54.0414 26.7866 53.9532 26.6987C53.94 26.6855 53.9797 26.4303 54.0415 26.1316C54.1613 25.5519 54.1911 24.668 54.0956 24.5257C54.0297 24.4276 54.0661 24.3913 53.4808 25.1386C52.9804 25.7773 51.4516 27.2577 50.5496 27.9769C48.6198 29.5156 46.5624 30.7857 45.092 31.3459C44.4399 31.5943 44.3729 31.6115 44.3729 31.5295C44.3729 31.4908 44.5258 31.1595 44.7126 30.7931C45.5012 29.2473 46.3876 26.9484 46.7303 25.56C47.0417 24.2987 47.402 21.9405 47.2834 21.9405C47.2609 21.9405 47.1151 22.0504 46.9592 22.1847C46.8034 22.3189 46.5396 22.4992 46.3731 22.5852C45.912 22.8233 45.9083 22.8123 45.9459 21.2798C46.004 18.9092 46.413 17.1131 47.3328 15.1902C48.5308 12.6857 50.4755 10.7109 52.1699 10.2783C52.9885 10.0692 53.5867 10.1384 54.4142 10.5379C55.1922 10.9136 55.8748 11.5457 56.1072 12.1057C56.1776 12.2754 56.1695 12.2964 55.9112 12.613C55.392 13.2492 55.1334 13.9302 55.1334 14.6609C55.1334 15.7484 55.6518 16.7168 56.4308 17.0848C56.7917 17.2552 57.4488 17.3599 57.8603 17.3125C58.2221 17.2709 58.9134 17.0752 58.959 17.0016C58.9774 16.9718 58.9293 16.7976 58.8521 16.6145C58.1912 15.0468 58.3713 13.0247 59.3012 11.5734C59.4142 11.397 59.5067 11.2316 59.5067 11.206C59.5067 11.1804 59.3786 11.0764 59.2219 10.9751C58.8877 10.7589 58.1544 9.82833 58.246 9.73679C58.2596 9.72332 58.4258 9.76475 58.6154 9.82894C59.0224 9.96672 59.6629 9.98981 59.9959 9.87874C60.1225 9.83649 60.485 9.63566 60.8015 9.4324C61.8093 8.78516 62.7455 8.39097 63.5735 8.26527C64.5048 8.12388 65.2465 8.47103 65.6573 9.24063C65.8018 9.51115 65.8917 9.61037 66.054 9.67806C66.524 9.87413 66.6965 10.1991 66.6984 10.8921C66.6991 11.1507 66.6742 11.4291 66.6431 11.5108L66.5866 11.6592L66.3543 11.4913C65.7171 11.0305 64.8262 11.1565 64.241 11.7904C63.9905 12.0616 63.6872 12.5943 63.7483 12.6554C63.768 12.675 63.9805 12.6915 64.2205 12.6919C65.0815 12.6929 65.7159 12.9642 66.3599 13.6058C67.0556 14.2989 67.5033 15.1645 67.8473 16.4816C68.0274 17.1715 68.0649 17.2023 68.4497 16.9772C69.2011 16.5375 69.6367 15.5747 69.557 14.5296C69.5038 13.833 69.2394 13.1976 68.7637 12.6234C68.6413 12.4756 68.541 12.331 68.541 12.3022C68.541 12.1953 69.7903 11.0413 70.1235 10.8405C71.9778 9.72287 74.2981 10.1694 76.0155 11.9745C77.4178 13.4483 78.5969 15.6478 79.1607 17.8412C79.4782 19.0767 79.6024 20.0679 79.6108 21.4348C79.6154 22.1857 79.5962 22.6457 79.5587 22.6833C79.4705 22.7716 78.8428 22.4569 78.5264 22.1657C78.3818 22.0327 78.2446 21.9426 78.2215 21.9657C78.1984 21.9888 78.1831 22.4514 78.1874 22.9938C78.1965 24.1332 78.3075 24.9407 78.6667 26.4791C79.1909 28.7243 79.5903 30.0083 80.1151 31.136C80.247 31.4194 80.3387 31.6674 80.3189 31.6871C80.2667 31.7393 79.462 31.4433 78.9276 31.1754C77.7023 30.5611 76.3924 29.6316 74.8191 28.26C73.7556 27.3329 72.5266 25.6033 71.5837 23.7068C71.4148 23.3669 71.2501 23.0976 71.2179 23.1083C71.1185 23.1412 71.1181 24.5401 71.2172 25.256C71.2669 25.6147 71.2921 25.9334 71.2731 25.9641C71.2081 26.0691 70.363 25.8123 69.78 25.5103C69.3517 25.2885 68.7369 24.756 68.5378 24.4344C68.4711 24.3267 68.396 24.2386 68.3709 24.2386C68.3458 24.2386 68.3281 24.9689 68.3316 25.8615C68.343 28.8134 67.9548 30.664 66.8444 32.9503C66.4379 33.7873 66.3382 34.1727 66.3651 34.8036L66.3832 35.2287L66.786 35.338C67.552 35.5457 68.2914 35.9872 68.6017 36.4222C68.6688 36.5162 68.7411 36.7151 68.7624 36.864L68.8012 37.1348L69.8651 37.3134C77.5041 38.5963 84.3703 41.8243 89.8645 46.7158C90.8259 47.5717 92.6516 49.4255 92.6516 49.5457C92.6516 49.6076 92.5863 49.6313 92.4154 49.6313C91.9084 49.6313 91.1246 49.3488 88.825 48.337C83.8092 46.1301 81.1631 45.1554 77.5303 44.1766C68.3199 41.6949 58.3913 41.6464 48.7749 44.036C44.9478 44.987 41.976 46.0277 36.9498 48.1771C34.1869 49.3585 33.4287 49.6313 32.9075 49.6313C32.7074 49.6313 32.634 49.6091 32.634 49.5482L32.634 49.5483ZM63.6739 36.4321C63.8352 36.0335 64.0874 35.6881 64.3598 35.4928C64.6478 35.2862 64.7374 35.1049 64.7399 34.7232C64.7434 34.1945 64.6007 33.8056 64.1435 33.0978C63.6561 32.3433 63.3156 31.553 63.0506 30.5613C62.9793 30.2945 62.8946 30.0674 62.8624 30.0567C62.8301 30.046 62.7064 30.316 62.5874 30.6567C62.2445 31.6381 61.8798 32.2803 61.2249 33.0554C60.9071 33.4315 60.5858 33.8195 60.5109 33.9175C60.3329 34.1505 60.184 34.7197 60.2292 34.9944C60.2598 35.1808 60.2877 35.2115 60.4466 35.2345C61.2893 35.3565 61.5118 35.4148 61.9273 35.6224C62.4234 35.8703 62.6737 36.1214 62.7809 36.4786L62.8489 36.7052L63.2062 36.705L63.5635 36.7048L63.6739 36.4321L63.6739 36.4321Z" fill="#263238"/>
<path d="M66.2681 72.6367C65.1921 72.4372 64.2904 72.1043 63.3941 71.5757C60.717 69.997 59.1039 66.8979 59.1039 63.3331C59.1039 58.8237 61.7007 55.178 65.6288 54.1724C67.4345 53.7102 69.6973 53.8308 71.6391 54.4928C72.1602 54.6705 73.2533 55.2153 73.4934 55.417L73.6624 55.5589V57.6411C73.6624 58.7864 73.6446 59.7411 73.6228 59.7628C73.6011 59.7845 73.491 59.7139 73.3783 59.606C72.5104 58.7749 71.1207 58.098 69.6343 57.7822C68.7768 57.6 67.501 57.5989 66.8435 57.7801C64.2378 58.4976 62.7006 61.0815 63.0775 64.1103C63.3831 66.5662 64.8182 68.3259 66.901 68.7987C67.7511 68.9917 69.1546 68.897 69.943 68.5937L70.1077 68.5303L70.0797 67.3393C70.0563 66.3434 70.0312 66.0777 69.9266 65.7174C69.6508 64.7675 69.2764 63.9694 68.6793 63.0584C68.4766 62.7492 68.3109 62.471 68.3109 62.4402C68.3109 62.4044 69.2708 62.3896 70.9722 62.3991L73.6336 62.414V66.7203V71.0265L72.9719 71.3601C71.8101 71.9457 70.6501 72.3618 69.548 72.5881C68.8926 72.7227 66.8914 72.7524 66.2681 72.6368V72.6367ZM84.4805 72.6659C81.5027 72.2979 78.9185 70.1482 77.7165 67.0394C77.3017 65.9666 77.1143 64.9686 77.0738 63.6171C77.0167 61.7129 77.3246 60.1581 78.063 58.6221C78.9047 56.8713 80.5294 55.2214 82.1281 54.494C82.6865 54.24 83.5282 53.9734 84.0777 53.8766C84.7029 53.7665 86.1218 53.7795 86.7352 53.9009C89.9139 54.5303 92.4592 57.0495 93.3053 60.4037C93.7058 61.9915 93.7525 63.9917 93.4259 65.5737C92.7726 68.7382 90.6614 71.2717 87.8315 72.287C86.8943 72.6233 85.4536 72.7862 84.4805 72.6659ZM86.1188 68.6753C87.8216 68.3152 89.1285 66.7868 89.5816 64.6257C89.7078 64.0237 89.7223 62.6132 89.6088 61.983C89.2208 59.83 87.9252 58.2406 86.2083 57.8116C85.6532 57.6729 84.6395 57.7243 84.1213 57.9173C83.0026 58.3342 82.0582 59.2781 81.5374 60.4998C80.8107 62.2048 80.8353 64.4682 81.5982 66.0935C82.5108 68.0378 84.3003 69.0599 86.1188 68.6753ZM37.8199 72.5205C36.8888 72.3146 35.6635 71.8908 35.0174 71.5514C34.7617 71.417 34.0671 70.99 33.4738 70.6025C32.067 69.6834 31.5035 69.3932 30.4579 69.0491C29.2968 68.667 28.3526 68.476 27.4221 68.435L26.6698 68.4019L26.3436 69.074C26.1642 69.4436 25.905 69.9189 25.7676 70.1302C25.0075 71.2987 23.5913 72.1496 21.8815 72.4651C21.3915 72.5555 20.8952 72.5823 20.8952 72.5184C20.8952 72.425 29.1373 54.4842 29.198 54.4458C29.3243 54.3657 30.369 54.3915 30.4397 54.4767C30.5228 54.5767 38.3975 72.3831 38.4086 72.4963C38.42 72.6117 38.2615 72.6183 37.8199 72.5205ZM32.0011 65.9976C32.0011 65.8543 29.845 61.0632 29.7888 61.0816C29.7168 61.1052 28.1457 64.667 28.1457 64.8067C28.1457 64.8754 28.2154 64.914 28.3902 64.9418C29.1825 65.068 30.6493 65.5105 31.5119 65.8836C31.9653 66.0797 32.0011 66.088 32.0011 65.9976ZM6.8149 72.4245C6.78929 72.385 6.7554 69.1987 6.73957 65.3438C6.71552 59.4844 6.6976 58.3118 6.63033 58.1936C6.58607 58.1158 6.35768 57.8327 6.1228 57.5644C5.58787 56.9536 5.13686 56.2802 4.84534 55.6572C4.58289 55.0963 4.40437 54.4676 4.48477 54.3873C4.56543 54.3068 12.3442 54.3665 12.9255 54.452C15.8378 54.8809 17.9081 55.9871 19.2791 57.8466C19.6883 58.4016 20.2452 59.4946 20.4627 60.1696C20.9524 61.6889 21.0752 63.6443 20.786 65.3163C20.4462 67.2806 19.4559 69.0679 18.0278 70.2946C16.4651 71.6369 14.9011 72.2525 12.5802 72.439C11.505 72.5253 6.87274 72.5137 6.8149 72.4245V72.4245ZM12.7816 68.4927C13.4778 68.3803 14.1737 68.144 14.7313 67.8307C15.3542 67.4807 16.1272 66.6956 16.4462 66.089C17.2407 64.578 17.2628 62.4174 16.4993 60.9036C16.0603 60.0334 15.3929 59.3669 14.5079 58.9151C13.5469 58.4245 12.724 58.2474 11.3292 58.2311L10.3936 58.2201V63.3905V68.561L10.7676 68.5954C11.2771 68.6422 12.1229 68.5994 12.7816 68.4927H12.7816ZM40.7292 72.4588C40.7077 72.4373 40.6901 68.3809 40.6901 63.4446C40.6901 55.3134 40.6987 54.4661 40.7811 54.4345C40.9517 54.3691 41.2396 54.3995 41.3822 54.4978C41.5142 54.5889 43.1906 56.1149 49.3358 61.7381C50.6571 62.9471 51.7604 63.9363 51.7875 63.9363C51.8889 63.9363 51.9102 63.0494 51.9106 58.8082L51.9112 54.4556L53.8245 54.4707L55.7378 54.4858V63.4767V72.4675L55.4886 72.4854C55.3294 72.4968 55.1879 72.4697 55.0971 72.4103C55.0189 72.3592 52.6376 70.1859 49.8053 67.581C46.9729 64.976 44.6308 62.8447 44.6006 62.8447C44.5669 62.8447 44.5424 63.5199 44.5375 64.5826C44.5331 65.5384 44.5137 67.7035 44.4943 69.394L44.4592 72.4675L42.6138 72.4826C41.5988 72.4908 40.7508 72.4806 40.7292 72.4586L40.7292 72.4588ZM100.689 72.4588C100.668 72.4373 100.65 69.2328 100.65 65.3377C100.65 61.3658 100.628 58.242 100.6 58.2246C100.572 58.2076 99.4393 58.1921 98.0821 58.1902C96.7249 58.1882 95.5818 58.1667 95.542 58.1422C95.4858 58.1075 95.473 57.6941 95.4848 56.2917L95.5 54.486H102.578H109.656L109.671 56.31C109.679 57.3132 109.679 58.1398 109.671 58.1469C109.663 58.154 108.503 58.1733 107.095 58.1899L104.534 58.2201L104.506 65.3439L104.477 72.4676L102.603 72.4827C101.572 72.4909 100.711 72.4807 100.689 72.4589L100.689 72.4588ZM112.888 72.4581C112.867 72.437 112.849 68.3781 112.849 63.4384V54.4571H118.69H124.531V54.6186C124.531 54.85 124.328 55.592 124.148 56.0176C123.927 56.5388 123.427 57.2774 123.128 57.522C122.813 57.7793 122.395 57.9936 122.054 58.072C121.9 58.1075 120.786 58.1316 119.258 58.1324C117.177 58.1334 116.707 58.148 116.653 58.2126C116.607 58.2684 116.592 58.7445 116.603 59.8356L116.618 61.3797L119.639 61.4097C121.301 61.4262 122.667 61.4456 122.676 61.4528C122.684 61.4599 122.684 62.2737 122.676 63.2612L122.66 65.0564L119.702 65.0713C117.634 65.0817 116.721 65.1055 116.667 65.1502C116.554 65.2441 116.554 68.5458 116.667 68.6396C116.721 68.6847 117.762 68.708 120.191 68.7185L123.639 68.7333V70.6004V72.4675L118.283 72.4822C115.337 72.4904 112.909 72.4792 112.888 72.4582L112.888 72.4581ZM68.3502 37.3312C67.8152 37.0494 66.6439 36.8673 64.7221 36.7673C64.1249 36.7363 63.6224 36.6969 63.6054 36.6799C63.5616 36.6362 63.7572 36.2055 63.9542 35.9119C64.0455 35.7759 64.228 35.5872 64.3598 35.4927C64.6478 35.2862 64.7374 35.1049 64.7399 34.7232C64.7434 34.1945 64.6007 33.8055 64.1435 33.0978C63.6561 32.3432 63.3156 31.5529 63.0506 30.5612C62.9793 30.2944 62.8946 30.0673 62.8624 30.0566C62.8301 30.0459 62.7064 30.3159 62.5874 30.6566C62.2445 31.638 61.8798 32.2802 61.2249 33.0553C60.9071 33.4315 60.5858 33.8194 60.5109 33.9174C60.3329 34.1505 60.184 34.7197 60.2292 34.9943C60.2598 35.1807 60.2877 35.2114 60.4466 35.2344C61.2905 35.3566 61.5116 35.4146 61.9301 35.6238C62.4222 35.8697 62.631 36.0797 62.7842 36.4826C62.8896 36.7599 62.848 37.0874 62.7002 37.144C62.6553 37.1613 62.4816 37.109 62.3142 37.0281C61.6919 36.7268 60.7105 36.6982 58.4579 36.9157C57.8969 36.9699 57.4205 36.9969 57.3994 36.9758C57.3314 36.9079 57.5527 36.4272 57.8171 36.0687C57.965 35.868 58.1956 35.6447 58.3601 35.5425C58.5348 35.4341 58.6599 35.3103 58.6814 35.2245C58.7503 34.9508 58.6466 34.3111 58.4094 33.5454C58.1988 32.8654 58.1656 32.6831 58.1405 32.0661C58.1247 31.679 58.0909 31.3623 58.0654 31.3623C58.0399 31.3623 57.9523 31.5078 57.8708 31.6856C57.4709 32.5577 56.3946 33.6377 55.7846 33.779C55.4808 33.8494 54.037 33.8452 53.3617 33.7719C51.7748 33.5998 50.2543 33.1313 49.308 32.5227C49.1261 32.4057 48.9771 32.2683 48.9768 32.2172C48.9765 32.1497 49.1373 32.0736 49.5661 31.9385C53.0101 30.8535 55.7834 28.9249 57.3346 26.5364C58.1869 25.2239 58.8031 23.5352 58.9641 22.0707C58.9952 21.788 58.9838 21.6827 58.9097 21.5699C58.7337 21.3016 58.577 21.4866 58.3234 22.262C58.1517 22.7873 57.8515 23.3922 57.5 23.9209C57.1685 24.4198 56.2801 25.3251 55.7089 25.7465C55.0133 26.2595 54.0414 26.7865 53.9532 26.6986C53.94 26.6854 53.9797 26.4302 54.0415 26.1315C54.1613 25.5518 54.1911 24.6679 54.0956 24.5256C54.0297 24.4275 54.0661 24.3912 53.4808 25.1385C52.9804 25.7772 51.4516 27.2576 50.5496 27.9768C48.6198 29.5155 46.5624 30.7856 45.092 31.3458C44.4399 31.5942 44.3729 31.6114 44.3729 31.5294C44.3729 31.4907 44.5258 31.1594 44.7126 30.793C45.5012 29.2472 46.3876 26.9483 46.7303 25.5599C47.0417 24.2987 47.402 21.9405 47.2834 21.9405C47.2609 21.9405 47.1151 22.0504 46.9592 22.1847C46.8034 22.3189 46.5396 22.4992 46.3731 22.5852C45.912 22.8233 45.9083 22.8123 45.9459 21.2798C46.004 18.9092 46.413 17.1131 47.3328 15.1902C48.5308 12.6857 50.4755 10.7109 52.1699 10.2783C52.9885 10.0692 53.5867 10.1384 54.4142 10.5379C55.1922 10.9136 55.8748 11.5457 56.1072 12.1057C56.1776 12.2754 56.1695 12.2964 55.9112 12.613C55.392 13.2492 55.1334 13.9302 55.1334 14.6609C55.1334 15.7484 55.6518 16.7168 56.4308 17.0848C56.7917 17.2552 57.4488 17.3599 57.8603 17.3125C58.2221 17.2709 58.9134 17.0752 58.959 17.0016C58.9774 16.9718 58.9293 16.7976 58.8521 16.6145C58.1912 15.0468 58.3713 13.0247 59.3012 11.5734C59.4142 11.397 59.5067 11.2316 59.5067 11.206C59.5067 11.1804 59.3786 11.0764 59.2219 10.9751C58.8877 10.7589 58.1544 9.82833 58.246 9.73679C58.2596 9.72332 58.4258 9.76475 58.6154 9.82894C59.0224 9.96672 59.6629 9.98981 59.9959 9.87874C60.1225 9.83649 60.485 9.63566 60.8015 9.4324C61.8093 8.78516 62.7455 8.39097 63.5735 8.26527C64.5048 8.12388 65.2465 8.47103 65.6573 9.24063C65.8018 9.51115 65.8917 9.61037 66.054 9.67806C66.524 9.87413 66.6965 10.1991 66.6984 10.8921C66.6991 11.1507 66.6742 11.4291 66.6431 11.5108L66.5866 11.6592L66.3543 11.4913C65.7171 11.0305 64.8262 11.1565 64.241 11.7904C63.9905 12.0616 63.6872 12.5943 63.7483 12.6554C63.768 12.675 63.9805 12.6915 64.2205 12.6919C65.0815 12.6929 65.7159 12.9642 66.3599 13.6058C67.0556 14.2989 67.5033 15.1645 67.8473 16.4816C68.0274 17.1715 68.0649 17.2023 68.4497 16.9772C69.2011 16.5375 69.6367 15.5747 69.557 14.5296C69.5038 13.833 69.2394 13.1976 68.7637 12.6234C68.6413 12.4756 68.541 12.331 68.541 12.3022C68.541 12.1953 69.7903 11.0413 70.1235 10.8405C71.9778 9.72287 74.2981 10.1694 76.0155 11.9745C77.4178 13.4483 78.5969 15.6478 79.1607 17.8412C79.4782 19.0767 79.6024 20.0679 79.6108 21.4348C79.6154 22.1857 79.5962 22.6457 79.5587 22.6833C79.4705 22.7716 78.8428 22.4569 78.5264 22.1657C78.3818 22.0327 78.2446 21.9426 78.2215 21.9657C78.1984 21.9888 78.1831 22.4514 78.1874 22.9938C78.1965 24.1332 78.3075 24.9407 78.6667 26.4791C79.1909 28.7243 79.5903 30.0083 80.1151 31.136C80.247 31.4194 80.3387 31.6674 80.3189 31.6871C80.2667 31.7393 79.462 31.4433 78.9276 31.1754C77.7023 30.5611 76.3924 29.6316 74.8191 28.26C73.7556 27.3329 72.5266 25.6033 71.5837 23.7068C71.4148 23.3669 71.2501 23.0976 71.2179 23.1083C71.1185 23.1412 71.1181 24.5401 71.2172 25.256C71.2669 25.6147 71.2921 25.9334 71.2731 25.9641C71.2081 26.0691 70.363 25.8123 69.78 25.5103C69.3517 25.2885 68.7369 24.756 68.5378 24.4344C68.4711 24.3267 68.396 24.2386 68.3709 24.2386C68.3458 24.2386 68.3281 24.9689 68.3316 25.8615C68.343 28.8134 67.9548 30.664 66.8444 32.9503C66.4379 33.7873 66.3382 34.1727 66.3651 34.8036L66.3832 35.2287L66.786 35.338C67.6273 35.5661 68.4633 36.1033 68.6771 36.5533C68.7926 36.7961 68.814 37.245 68.7159 37.3631C68.6244 37.4732 68.6189 37.4728 68.3502 37.3312Z" fill="#263238"/>
<path d="M66.9295 72.6875C64.205 72.419 61.906 70.9514 60.481 68.5709C59.9012 67.6024 59.4227 66.1947 59.2453 64.9363C59.1295 64.1146 59.131 62.6 59.2485 61.7622C59.7476 58.2014 61.9351 55.4142 65.0482 54.3723C65.9015 54.0867 66.4897 53.9907 67.5918 53.9569C69.7966 53.8894 71.874 54.3898 73.3313 55.3396L73.6046 55.5177V57.6356V59.7535L73.2737 59.4692C71.4947 57.9408 68.6317 57.2148 66.6749 57.796C64.6345 58.402 63.1983 60.3158 63.0228 62.6625C62.9701 63.368 63.0434 64.3366 63.1967 64.9583C63.4606 66.0284 63.9053 66.839 64.6244 67.5608C65.195 68.1334 65.6961 68.4459 66.4778 68.7165C66.9992 68.8969 67.0453 68.9027 67.9654 68.904C68.779 68.905 68.9914 68.8859 69.4502 68.7689C69.7446 68.6938 70.023 68.595 70.0688 68.5493C70.1854 68.4329 70.1825 66.9431 70.0642 66.2558C69.8858 65.2191 69.4378 64.1545 68.7185 63.0577C68.4115 62.5896 68.3325 62.4302 68.3955 62.4061C68.4413 62.3886 69.6386 62.3959 71.0561 62.4225L73.6333 62.4709V66.7222V70.9735L73.0004 71.3019C70.9468 72.3676 68.7565 72.8675 66.9296 72.6874L66.9295 72.6875ZM84.2866 72.6089C81.6836 72.1999 79.421 70.4739 78.1511 67.9287C76.3122 64.2429 76.8718 59.4998 79.4961 56.5274C80.6609 55.2081 82.1675 54.3211 83.865 53.9552C84.2232 53.8779 84.5919 53.8542 85.4009 53.8558C86.3626 53.8578 86.5257 53.8731 87.0893 54.0139C90.406 54.8426 92.7909 57.5644 93.4676 61.2932C93.6327 62.2033 93.6467 64.0794 93.4952 64.9987C93.2981 66.1951 93.0323 67.0422 92.5607 67.9775C91.3688 70.3409 89.3269 71.9708 86.8626 72.526C86.3877 72.633 84.7712 72.685 84.2866 72.6089L84.2866 72.6089ZM86.2353 68.6669C87.521 68.3807 88.7015 67.2611 89.285 65.7745C89.6179 64.9265 89.685 64.5091 89.6865 63.2753C89.6881 61.9772 89.6245 61.5811 89.2722 60.6921C88.9639 59.9145 88.6487 59.4239 88.1053 58.8759C87.6976 58.4647 87.525 58.3376 87.0695 58.1131C85.9155 57.5443 84.7983 57.5306 83.7034 58.0718C82.4095 58.7112 81.4873 60.0208 81.111 61.7529C80.9844 62.3358 80.9393 63.5585 81.0216 64.1748C81.3085 66.3223 82.4716 67.9745 84.1161 68.5704C84.7736 68.8087 85.4585 68.8399 86.2353 68.667V68.6669ZM20.955 72.4816C20.9564 72.4421 22.8043 68.3768 25.0615 63.4476L29.1655 54.4855L29.7689 54.4693C30.2069 54.4576 30.3887 54.4734 30.4319 54.5267C30.4945 54.6042 38.3881 72.4524 38.3881 72.5163C38.3881 72.5937 38.0799 72.5469 37.3404 72.3571C35.8012 71.962 35.1612 71.667 33.5269 70.5993C31.798 69.4699 30.9626 69.0868 29.3882 68.7016C28.2694 68.4278 26.8701 68.2744 26.6703 68.4036C26.6345 68.4267 26.4375 68.7847 26.2326 69.199C25.7916 70.0909 25.5851 70.4044 25.1561 70.8333C24.3365 71.6527 23.0943 72.2355 21.6718 72.4682C21.0395 72.5716 20.9518 72.5733 20.955 72.4816ZM30.9978 63.5816C30.4075 62.2436 29.9007 61.1103 29.8714 61.0631C29.8243 60.9871 29.8093 60.9871 29.7391 61.0637C29.6495 61.1611 28.0864 64.732 28.0873 64.8372C28.0879 64.9122 28.1755 64.9456 28.5194 65.0019C29.2611 65.1233 30.6936 65.5634 31.5692 65.9388C31.7908 66.0338 31.9943 66.0897 32.0216 66.0631C32.049 66.0362 31.5927 64.9303 30.9978 63.5819V63.5816ZM6.82447 72.3667C6.80998 72.3272 6.79139 69.1668 6.78311 65.3435C6.77172 60.0723 6.75132 58.3546 6.69873 58.2371C6.66059 58.1519 6.4614 57.8994 6.25608 57.6761C5.80247 57.1826 5.32727 56.5177 5.01943 55.9457C4.78079 55.5022 4.49512 54.7246 4.49512 54.5185V54.3993H8.27894C11.2568 54.3993 12.2181 54.4175 12.7923 54.4846C16.5179 54.9196 19.0641 56.7029 20.2634 59.7169C20.9588 61.4647 21.1016 64.0712 20.6077 66.0024C20.0491 68.1866 18.756 69.9338 16.7861 71.166C15.7761 71.7978 14.5995 72.1837 13.1801 72.3486C12.1609 72.467 6.86674 72.4821 6.82447 72.3666V72.3667ZM12.9827 68.5054C14.331 68.2018 15.3592 67.6152 16.0355 66.7637C16.3757 66.3354 16.7785 65.5192 16.9349 64.9413C17.1024 64.322 17.1198 62.6872 16.9653 62.0767C16.4612 60.0847 15.1213 58.8135 13.0403 58.3531C12.4532 58.2232 10.5734 58.114 10.4077 58.2001C10.3129 58.2494 10.307 58.555 10.307 63.3807C10.307 67.4052 10.3225 68.525 10.3789 68.5836C10.4799 68.6885 12.4296 68.63 12.9827 68.5055L12.9827 68.5054ZM40.7376 72.3675C40.7251 72.3276 40.7246 68.2813 40.7364 63.3758L40.758 54.4568H41.0431C41.3246 54.4568 41.3362 54.4639 41.9729 55.0481C42.3274 55.3733 44.3136 57.189 46.3866 59.0831C48.4596 60.9771 50.5158 62.8568 50.956 63.2601C51.3961 63.6634 51.7909 63.9934 51.8332 63.9934C51.8967 63.9934 51.9127 63.1619 51.9248 59.2395L51.9395 54.4855H53.8097H55.6799L55.6944 63.462L55.709 72.4385H55.4222H55.1354L49.8852 67.6122C46.9976 64.9577 44.6083 62.7947 44.5757 62.8055C44.536 62.8188 44.507 64.4056 44.4877 67.6175L44.4589 72.4098L42.6096 72.425C41.1592 72.4368 40.7554 72.4243 40.7376 72.3675L40.7376 72.3675ZM100.691 72.1951C100.674 72.0604 100.656 68.8608 100.651 65.0849C100.645 61.3091 100.623 58.2006 100.6 58.1773C100.577 58.1539 99.4207 58.1281 98.0294 58.1198L95.4998 58.1048L95.4846 56.3459C95.4722 54.9119 95.4839 54.575 95.5483 54.5217C95.6065 54.4734 97.4554 54.4602 102.613 54.4709L109.598 54.4855L109.613 56.3089L109.628 58.1323L107.081 58.1473L104.534 58.1623L104.505 65.2861L104.477 72.4098L102.599 72.4249L100.721 72.44L100.691 72.1951ZM112.887 72.4002C112.839 72.3523 112.836 54.6722 112.884 54.5476C112.916 54.4656 113.482 54.4567 118.698 54.4567C123.343 54.4567 124.482 54.4712 124.505 54.5303C124.567 54.6926 124.238 55.7665 123.95 56.3402C123.431 57.3724 122.754 57.9254 121.826 58.0731C121.611 58.1072 120.417 58.1328 119.02 58.1331L116.588 58.1337L116.603 59.7854L116.618 61.4371L119.626 61.452L122.633 61.4669L122.618 63.2616L122.603 65.0564L119.611 65.0851L116.618 65.1138L116.603 66.9091L116.588 68.7044H120.059C122.681 68.7044 123.546 68.7212 123.598 68.7734C123.649 68.8239 123.667 69.2983 123.667 70.5496C123.667 71.4886 123.652 72.2978 123.632 72.3478C123.601 72.4297 123.074 72.4387 118.262 72.4387C115.327 72.4387 112.909 72.4214 112.888 72.4004L112.887 72.4002ZM68.3499 37.3309C67.848 37.0665 66.6283 36.8637 65.1169 36.7935C63.8955 36.7368 63.6496 36.7064 63.6496 36.6122C63.6496 36.3503 64.221 35.5439 64.4603 35.4681C64.6506 35.4077 64.7603 35.1088 64.7545 34.6663C64.7479 34.1738 64.6004 33.7261 64.296 33.2751C63.7554 32.4743 63.4043 31.6989 63.1045 30.6439C62.9932 30.2523 62.8963 30.012 62.8495 30.012C62.805 30.012 62.6727 30.2992 62.5263 30.7139C62.1641 31.7401 61.8953 32.1979 61.0899 33.1602C60.6082 33.7358 60.3493 34.0959 60.2878 34.2761C60.1782 34.5971 60.1673 35.1281 60.2689 35.1925C60.3085 35.2176 60.5963 35.2813 60.9085 35.334C61.5719 35.4462 62.2197 35.7357 62.4867 36.0393C62.8038 36.3999 62.9308 37.0553 62.7006 37.1435C62.6553 37.1608 62.4813 37.1088 62.3139 37.0277C61.6916 36.7265 60.7102 36.6979 58.4576 36.9154C57.8966 36.9696 57.4217 36.9981 57.4024 36.9788C57.3365 36.913 57.7217 36.2013 57.976 35.9188C58.1155 35.764 58.3238 35.5866 58.439 35.5248C58.5549 35.4624 58.6632 35.3532 58.6816 35.2798C58.76 34.9682 58.6585 34.1977 58.4532 33.5451C58.2042 32.754 58.1103 32.2105 58.1355 31.7067C58.1461 31.4957 58.1292 31.3208 58.0967 31.3046C58.065 31.2888 57.9485 31.4568 57.8376 31.678C57.7268 31.8992 57.555 32.1969 57.4558 32.3395C57.2476 32.6389 56.535 33.3262 56.1857 33.5646C55.4347 34.077 52.3575 33.7978 50.43 33.0424C49.8082 32.7987 48.9574 32.3085 48.9894 32.2125C48.9999 32.1811 49.409 32.0207 49.8986 31.8561C54.8835 30.1798 58.0461 27.0091 58.8717 22.8601C59.0676 21.8756 59.0318 21.4233 58.758 21.4233C58.6128 21.4233 58.491 21.638 58.293 22.2431C57.7437 23.9216 56.4634 25.3722 54.6282 26.3952C54.303 26.5765 54.0223 26.7103 54.0045 26.6925C53.9866 26.6746 54.0142 26.4577 54.0658 26.2104C54.2425 25.3629 54.2402 24.4869 54.061 24.4273C54.0271 24.416 53.8703 24.5821 53.7126 24.7965C52.57 26.3496 50.0989 28.4762 47.7226 29.9514C46.7234 30.5717 45.0867 31.3696 44.53 31.5078C44.3741 31.5465 44.3806 31.5278 44.8476 30.5786C45.5448 29.1617 46.2718 27.3386 46.6171 26.1407C46.9696 24.9182 47.4485 22.0584 47.3219 21.932C47.2863 21.8965 47.1552 21.9721 46.956 22.1431C46.573 22.472 46.1085 22.7197 46.0272 22.6386C45.921 22.5326 46.0123 19.8824 46.1491 19.0966C46.5874 16.58 47.5213 14.426 48.9087 12.7318C49.6719 11.7999 50.7696 10.8793 51.5321 10.5316C52.2206 10.2177 53.0802 10.1333 53.7726 10.3117C54.5469 10.5111 55.4483 11.1381 55.8725 11.7724C56.1495 12.1865 56.1673 12.3312 55.9647 12.5212C55.7304 12.7409 55.4288 13.2307 55.2727 13.6448C54.7585 15.0086 55.3764 16.7231 56.5434 17.1707C57.1572 17.4061 58.1283 17.3883 58.7756 17.1297C59.0356 17.0258 59.0364 16.9884 58.7923 16.3498C58.2781 15.0053 58.4012 13.3716 59.1219 11.9728C59.2359 11.7516 59.3807 11.4926 59.4438 11.3972C59.5763 11.1968 59.5611 11.1639 59.2401 10.9563C59.1094 10.8718 58.9122 10.6911 58.8019 10.5547C58.5379 10.2283 58.2747 9.82255 58.3065 9.79085C58.3204 9.77697 58.4948 9.81626 58.694 9.8782C59.1278 10.013 59.687 10.0234 60.0285 9.9031C60.1653 9.85494 60.5117 9.66421 60.7982 9.47935C61.4791 9.03995 62.2364 8.66453 62.8439 8.46512C63.5188 8.24364 64.3368 8.22957 64.7847 8.43175C65.1345 8.58964 65.4802 8.94087 65.6872 9.34864C65.8001 9.57104 65.8784 9.65103 66.0332 9.70203C66.3301 9.7999 66.5626 10.098 66.6428 10.4839C66.712 10.8165 66.6758 11.5141 66.5865 11.5692C66.5611 11.5849 66.474 11.5458 66.393 11.4822C66.1486 11.2902 65.8581 11.1972 65.503 11.1972C65.0648 11.1972 64.7006 11.3251 64.395 11.5862C64.0954 11.8422 63.6962 12.4429 63.7191 12.6029C63.7344 12.7095 63.7813 12.7206 64.26 12.7306C65.2778 12.752 65.978 13.1184 66.6788 13.9965C67.1707 14.6128 67.7418 15.9252 67.8769 16.7502C67.8985 16.8816 67.9508 17.0365 67.9932 17.0944C68.0676 17.1959 68.0799 17.1951 68.3322 17.0728C69.1252 16.6881 69.5801 15.8617 69.59 14.7878C69.5973 13.9974 69.3742 13.3629 68.8492 12.6809C68.7112 12.5017 68.5983 12.3296 68.5983 12.2987C68.5983 12.2085 69.5792 11.24 69.8789 11.0343C70.6926 10.476 71.4922 10.2516 72.5112 10.2954C73.2878 10.3287 73.75 10.4549 74.4529 10.8251C75.3093 11.2763 76.0637 11.9661 76.8388 13.0069C78.3301 15.0094 79.2614 17.4821 79.5293 20.1511C79.6036 20.8916 79.6078 22.6113 79.5353 22.656C79.4328 22.7193 78.8427 22.4062 78.5511 22.1338C78.3117 21.9103 78.2472 21.8752 78.2006 21.9432C78.1653 21.9947 78.1537 22.4638 78.1702 23.1755C78.2023 24.5555 78.283 25.0532 78.8405 27.3118C79.2824 29.1023 79.6302 30.1808 80.0494 31.0604C80.3155 31.6189 80.3235 31.6493 80.204 31.6488C79.9802 31.648 78.7901 31.0956 78.0432 30.6459C76.8206 29.9098 75.007 28.4785 74.2294 27.6361C73.3452 26.6782 72.4984 25.4203 71.7393 23.9369C71.4834 23.4369 71.2481 23.0222 71.2164 23.0154C71.1848 23.0083 71.1348 23.2096 71.1054 23.462C71.0556 23.8888 71.0827 24.3821 71.2267 25.6681L71.2614 25.9776L71.0375 25.9358C70.0844 25.7577 69.1096 25.175 68.6206 24.4908C68.476 24.2885 68.3364 24.1361 68.3104 24.1522C68.2844 24.1682 68.2773 24.7823 68.2947 25.5168C68.3659 28.5196 67.9471 30.6075 66.7997 32.9706C66.5443 33.4967 66.4028 33.8678 66.3598 34.1243C66.2877 34.555 66.2779 35.0947 66.3405 35.1879C66.3638 35.2224 66.5759 35.3088 66.8119 35.3798C67.7143 35.6513 68.444 36.1396 68.6632 36.6186C68.7835 36.8815 68.8037 37.281 68.7018 37.3827C68.6146 37.4698 68.6132 37.4696 68.3499 37.3309L68.3499 37.3309Z" fill="#263238"/>
<path d="M66.2391 72.5589C64.488 72.2383 63.1 71.5112 61.8628 70.2664C60.8467 69.2441 60.1883 68.1767 59.7351 66.8173C58.9979 64.6058 58.9877 62.1371 59.7068 59.9457C60.6819 56.9738 63.0244 54.8052 65.9443 54.1713C68.234 53.6742 71.1878 54.1145 73.0728 55.2339L73.5297 55.5053L73.567 56.3182C73.6135 57.3348 73.6162 59.6301 73.5709 59.6301C73.5522 59.6301 73.3331 59.4672 73.0839 59.2682C71.7592 58.21 69.8875 57.5628 68.15 57.5621C66.093 57.5612 64.3891 58.6684 63.4981 60.5847C62.9162 61.8364 62.798 63.6049 63.1947 65.1255C63.3268 65.6319 63.715 66.4902 64.0007 66.9077C64.4724 67.5969 65.2025 68.2117 65.9606 68.5581C66.6807 68.8871 67.0781 68.9632 68.0518 68.9591C68.796 68.956 68.9937 68.9344 69.4869 68.8031C69.8016 68.7193 70.0864 68.6233 70.1199 68.5899C70.2208 68.4891 70.1824 66.5776 70.0688 66.0452C69.8617 65.0744 69.3835 63.9901 68.7188 62.9844L68.3813 62.4738L70.9211 62.4588C72.3179 62.4506 73.4934 62.4568 73.5331 62.4716C73.5905 62.4935 73.6024 63.3775 73.5907 66.7378L73.5759 70.9764L73.1731 71.1902C72.0877 71.7662 70.71 72.2702 69.5767 72.5059C68.7448 72.6789 67.0421 72.706 66.2392 72.559L66.2391 72.5589ZM84.0369 72.5255C81.9122 72.1376 79.9224 70.7458 78.6512 68.7583C77.0503 66.2552 76.667 62.7862 77.6632 59.8141C78.5506 57.1664 80.4633 55.1225 82.8295 54.2933C84.404 53.7416 86.1844 53.7216 87.7299 54.2382C90.0604 55.0173 92.028 56.9935 92.9471 59.4785C93.7427 61.6294 93.7823 64.5466 93.0456 66.7251C92.0124 69.7803 89.5307 72.0223 86.6215 72.5288C86.0228 72.633 84.6159 72.6312 84.0369 72.5257V72.5255ZM86.1856 68.7372C87.7606 68.3664 89.0558 66.9641 89.5447 65.1003C89.9037 63.7321 89.8252 62.021 89.3453 60.7503C88.5501 58.6451 86.7646 57.4199 84.8687 57.6786C82.9394 57.9419 81.4849 59.5694 81.0195 61.9855C80.9127 62.5398 80.927 64.0378 81.0446 64.6165C81.2911 65.83 81.768 66.7877 82.5184 67.5763C83.0624 68.1479 83.8964 68.6181 84.6242 68.7635C85.0041 68.8393 85.8093 68.8258 86.1856 68.7372L86.1856 68.7372ZM21.0232 72.4071C21.0452 72.33 28.404 56.2269 29.1404 54.6445C29.199 54.5185 29.225 54.514 29.8081 54.5296L30.4148 54.5458L30.6862 55.149C31.2447 56.39 38.3306 72.4484 38.3306 72.4731C38.3306 72.5942 36.8626 72.235 35.9714 71.8959C35.2329 71.6149 34.6733 71.3106 33.5823 70.5968C31.9484 69.5278 31.5951 69.3435 30.476 68.9769C29.6663 68.7117 29.0604 68.5611 28.3753 68.4546C27.6752 68.3458 26.7541 68.2869 26.672 68.3456C26.637 68.3706 26.4219 68.759 26.1939 69.2086C25.709 70.165 25.3953 70.6031 24.8875 71.0332C23.995 71.7891 22.6331 72.3486 21.3715 72.4777C21.0166 72.514 20.9941 72.5094 21.0232 72.4071V72.4071ZM32.0836 66.0703C32.1154 66.0187 29.9658 61.087 29.866 60.9826C29.8328 60.9479 29.7827 60.9585 29.7301 61.0113C29.6155 61.1264 28.0194 64.8039 28.0497 64.8829C28.0632 64.9178 28.4074 65.0183 28.8147 65.1061C29.5906 65.2734 31.0008 65.722 31.5405 65.9733C31.8729 66.1281 32.0303 66.1562 32.0836 66.0702V66.0703ZM6.89855 72.4059C6.88221 72.378 6.85101 69.2399 6.82921 65.4325C6.80515 61.2282 6.76741 58.4247 6.73312 58.293C6.69607 58.1507 6.52919 57.9143 6.24792 57.6055C5.544 56.8326 4.94797 55.8643 4.67113 55.0439C4.60601 54.8509 4.55273 54.6248 4.55273 54.5415V54.3899L8.45129 54.4192C12.4169 54.449 12.6943 54.4631 13.8747 54.697C17.0982 55.3355 19.4147 57.2742 20.37 60.1329C21.1653 62.5126 21.0091 65.4798 19.9747 67.6435C18.9371 69.814 16.7822 71.5385 14.4005 72.1046C13.357 72.3526 12.8114 72.3906 9.81168 72.4243C8.16623 72.4427 6.9155 72.4349 6.89855 72.4059V72.4059ZM12.2514 68.6473C13.741 68.4878 14.8397 68.0149 15.717 67.1555C16.6855 66.2069 17.125 65.0354 17.1177 63.4217C17.1125 62.2668 16.9302 61.5189 16.4376 60.6322C16.1585 60.13 15.3149 59.2823 14.7954 58.9822C13.7966 58.4052 12.8502 58.1812 11.3716 58.1717L10.3358 58.1656V63.3909V68.6162L10.4797 68.6561C10.7033 68.7183 11.6341 68.7138 12.2514 68.648V68.6473ZM40.7897 72.4069C40.7665 72.3838 40.7474 68.3477 40.7474 63.438V54.5113L41.0556 54.5286L41.3638 54.5458L46.5483 59.2854C49.3998 61.8922 51.7793 64.025 51.8362 64.025C51.9348 64.025 51.9403 63.8022 51.9543 59.271L51.969 54.5171H53.8087H55.6484L55.6648 57.8061C55.6738 59.615 55.6877 63.6351 55.6957 66.7395L55.7103 72.3839H55.4201H55.1298L49.9095 67.5815C47.0383 64.9401 44.6557 62.7653 44.6147 62.7486C44.5738 62.7319 44.522 62.7365 44.4997 62.7588C44.4773 62.7812 44.446 64.9624 44.4302 67.606L44.4014 72.4127L42.6167 72.4309C41.6351 72.4411 40.8129 72.4303 40.7897 72.407V72.4069ZM100.747 72.4038C100.725 72.3823 100.708 69.1815 100.708 65.2908C100.708 59.8654 100.691 58.2008 100.638 58.1479C100.587 58.0964 99.9324 58.079 98.0482 58.079H95.527L95.5422 56.3124L95.5574 54.5459H102.578H109.598L109.613 56.3124L109.628 58.079H107.103C105.055 58.079 104.565 58.0936 104.513 58.1565C104.466 58.2124 104.444 60.2002 104.434 65.3233L104.419 72.4127L102.602 72.4278C101.603 72.436 100.768 72.4258 100.747 72.4038ZM112.907 63.4505V54.5171H118.697H124.488L124.449 54.7613C124.383 55.1826 124.182 55.7923 123.952 56.2693C123.554 57.0955 123.023 57.6413 122.344 57.9201C122.034 58.0472 121.968 58.0507 119.294 58.0789L116.561 58.1077L116.545 59.745C116.531 61.2333 116.539 61.3888 116.628 61.4541C116.704 61.5093 117.408 61.5259 119.68 61.5259H122.633L122.618 63.2638L122.603 65.0016L119.644 65.0166C117.558 65.0271 116.663 65.0505 116.608 65.096C116.545 65.1484 116.533 65.5 116.545 66.9483L116.561 68.7359L120.071 68.7645L123.581 68.7932L123.596 70.5885L123.611 72.3838H118.259H112.907L112.907 63.4505ZM68.3394 37.2708C67.8449 37.0103 66.9343 36.8496 65.4644 36.7633C63.8384 36.6679 63.7072 36.6524 63.7072 36.5572C63.7072 36.3048 64.2121 35.6278 64.5181 35.4698C64.7399 35.3553 64.8224 35.0628 64.7853 34.5225C64.7508 34.0206 64.6359 33.7206 64.2614 33.1549C63.7625 32.4013 63.3803 31.5207 63.1 30.4787C62.8902 29.6988 62.8387 29.7011 62.5618 30.5031C62.1297 31.7548 61.9164 32.1266 61.0237 33.1851C60.3469 33.9875 60.1954 34.2657 60.1538 34.7829C60.119 35.2156 60.203 35.3285 60.5608 35.3297C61.1445 35.3318 61.986 35.6377 62.3762 35.9896C62.6834 36.2667 62.8725 36.8278 62.7329 37.048C62.6894 37.1165 62.6263 37.1053 62.3437 36.9787C61.6602 36.6725 60.6956 36.6428 58.4593 36.8591C57.9255 36.9107 57.475 36.9392 57.4581 36.9223C57.4413 36.9055 57.5089 36.7307 57.6084 36.5339C57.8163 36.1226 58.2033 35.6852 58.5008 35.5253C58.6137 35.4646 58.721 35.3553 58.7394 35.2821C58.8189 34.9662 58.7127 34.2532 58.4726 33.4906C58.2586 32.8108 58.2239 32.6244 58.1914 31.9817C58.1703 31.5659 58.1294 31.2448 58.0967 31.2399C58.0651 31.2348 57.9103 31.4746 57.7527 31.772C57.5239 32.204 57.356 32.4238 56.9183 32.8647C56.617 33.1682 56.241 33.4913 56.0827 33.5828L55.795 33.7491L54.6441 33.747C53.1331 33.744 51.9192 33.5487 50.6902 33.1105C50.0153 32.8698 48.9473 32.2885 49.0345 32.2093C49.0499 32.1954 49.425 32.062 49.868 31.9129C53.8494 30.5732 56.6632 28.327 58.0702 25.3651C58.6003 24.2491 58.9459 23.0607 59.0236 22.087C59.0557 21.6847 59.0464 21.6103 58.949 21.4908C58.8661 21.3892 58.8053 21.3645 58.7111 21.3944C58.5583 21.4428 58.4516 21.6389 58.2614 22.2211C57.9208 23.2633 57.4283 24.0361 56.5511 24.9049C56.1686 25.2837 55.6911 25.6852 55.3669 25.9006C54.7931 26.2819 54.0399 26.6856 54.0399 26.6119C54.0399 26.5878 54.0798 26.3612 54.1286 26.1085C54.1773 25.8557 54.2171 25.4015 54.217 25.0991C54.217 24.2051 54.1439 24.1606 53.6822 24.7728C51.8894 27.1496 47.9165 30.1532 45.0848 31.2725C44.7961 31.3866 44.5338 31.48 44.502 31.48C44.4702 31.48 44.6174 31.1375 44.829 30.7188C45.4873 29.4163 46.3714 27.193 46.6738 26.0797C47.0129 24.8314 47.4717 22.1382 47.3841 21.9103C47.3353 21.7835 47.2802 21.8078 46.9372 22.1075C46.5815 22.4182 46.1282 22.6811 46.062 22.615C45.9841 22.5373 45.9692 21.2372 46.0368 20.4271C46.2039 18.423 46.6215 16.8421 47.4227 15.1796C48.0724 13.8315 48.7751 12.8416 49.7612 11.8855C51.4345 10.2629 52.9121 9.85299 54.3992 10.5987C55.116 10.9581 55.6562 11.4435 55.9602 12.0011L56.1159 12.2867L55.9131 12.5108C55.2308 13.2647 54.931 14.2584 55.0985 15.21C55.3583 16.6858 56.3771 17.5061 57.8008 17.386C58.2931 17.3445 58.9819 17.1447 59.0257 17.0307C59.0426 16.9866 58.9788 16.7489 58.8838 16.5026C58.2897 14.9622 58.4462 13.1838 59.3061 11.7043C59.448 11.4602 59.5641 11.2204 59.5641 11.1715C59.5641 11.1226 59.5022 11.0591 59.4266 11.0304C59.351 11.0017 59.194 10.8948 59.0778 10.7929C58.8513 10.5944 58.3241 9.8913 58.3685 9.84698C58.3832 9.83228 58.5046 9.85881 58.6382 9.90585C58.7718 9.9529 59.0433 10.008 59.2416 10.0283C59.7267 10.0779 60.1187 9.95787 60.6917 9.58434C61.3554 9.15162 62.1103 8.76503 62.7002 8.55575C63.3622 8.32089 64.1631 8.25986 64.6152 8.40979C65.0008 8.53763 65.3707 8.87208 65.5985 9.29881C65.7476 9.57815 65.8311 9.66715 66.0258 9.75414C66.3183 9.88482 66.4547 10.0298 66.5585 10.3204C66.6392 10.5461 66.6593 11.1861 66.593 11.4166L66.5556 11.5468L66.3466 11.4048C65.7266 10.9836 64.7883 11.1061 64.2339 11.6806C64.0132 11.9094 63.6497 12.511 63.6497 12.6475C63.6497 12.7631 63.6525 12.7638 64.1431 12.7524C64.6036 12.7416 65.1984 12.8838 65.6103 13.103C66.5946 13.6267 67.4503 15.0081 67.8198 16.6696C67.9493 17.2521 67.9966 17.2869 68.394 17.0928C69.1466 16.7252 69.6342 15.8089 69.6342 14.7622C69.6342 14.0121 69.4037 13.3554 68.9107 12.7007C68.7706 12.5145 68.6559 12.3443 68.6559 12.3223C68.6559 12.23 69.1182 11.7286 69.5191 11.3864C70.7728 10.3159 72.219 10.0366 73.7669 10.566C75.3589 11.1105 76.8657 12.706 78.0612 15.113C78.9498 16.9022 79.4118 18.6801 79.5297 20.7654C79.5817 21.6859 79.5485 22.6327 79.464 22.6327C79.3217 22.6327 78.7802 22.3029 78.5393 22.0694C78.1406 21.6829 78.121 21.7268 78.1255 22.9948C78.1307 24.4424 78.2536 25.1836 78.9273 27.8319C79.3106 29.3387 79.5718 30.1231 79.965 30.9486C80.3162 31.6859 80.3124 31.693 79.6998 31.4457C77.6479 30.6171 74.7588 28.3994 73.4429 26.6428C72.8472 25.8475 72.2879 24.9286 71.7453 23.8538C71.4862 23.3404 71.2435 22.9203 71.2061 22.9202C71.1686 22.9201 71.1207 22.9744 71.0996 23.0409C71.031 23.2568 71.0629 24.7724 71.1478 25.3329C71.1933 25.6331 71.2196 25.8908 71.2062 25.9056C71.1546 25.9625 70.39 25.7228 69.9506 25.512C69.3596 25.2283 68.9499 24.8969 68.6207 24.4365C68.368 24.0828 68.2911 24.0186 68.2328 24.1127C68.218 24.1368 68.2257 24.6213 68.25 25.1896C68.3799 28.2284 67.9069 30.6681 66.7297 33.0311C66.3953 33.7025 66.3204 33.9527 66.2657 34.5823C66.2116 35.2043 66.2546 35.2783 66.7421 35.4035C67.5748 35.6175 68.4371 36.1785 68.6337 36.6342C68.7483 36.8999 68.7304 37.4033 68.6066 37.3948C68.5862 37.3937 68.466 37.3377 68.3394 37.271L68.3394 37.2708Z" fill="#263238"/>
<path d="M66.3543 72.5301C63.5513 72.0345 61.3664 70.3409 60.1418 67.7144C58.9815 65.226 58.9242 61.8157 60.0006 59.3055C61.2147 56.4742 63.4385 54.6698 66.383 54.1269C67.093 53.996 68.7481 53.9987 69.6055 54.132C70.8992 54.3333 71.9505 54.6716 72.8854 55.1877C73.6193 55.5928 73.5472 55.3293 73.5472 57.6036V59.5833L73.324 59.3821C72.17 58.3412 70.2267 57.6027 68.4258 57.5207C65.9685 57.4088 63.9864 58.7927 63.2281 61.1498C62.9777 61.928 62.9324 62.2496 62.9326 63.2468C62.9326 64.233 63.0053 64.7374 63.2575 65.507C63.6092 66.5802 64.3586 67.6269 65.1784 68.19C66.1315 68.8447 67.5399 69.1665 68.7065 68.9962C69.2646 68.9148 70.0344 68.7207 70.1371 68.6356C70.2289 68.5595 70.2374 66.7279 70.1487 66.1767C70.0113 65.3235 69.4184 63.9201 68.8136 63.0167C68.6762 62.8115 68.5442 62.6112 68.5202 62.5717C68.4856 62.5147 68.9987 62.4999 71.0119 62.4999H73.5472V66.7228V70.9457L72.7716 71.3188C71.4922 71.9344 70.691 72.2206 69.6249 72.4426C68.8701 72.5999 67.0277 72.6491 66.3543 72.53V72.5301ZM84.653 72.5528C81.0989 72.2236 78.0729 69.1984 77.3423 65.2441C77.1876 64.4068 77.1339 62.9659 77.2249 62.095C77.4704 59.7472 78.3753 57.787 79.9306 56.2339C81.1381 55.0283 82.4334 54.3241 84.008 54.0174C84.7541 53.8721 86.0596 53.8872 86.8358 54.0501C89.6683 54.6446 92.0036 56.8188 92.9955 59.7849C93.5744 61.5159 93.684 63.732 93.2852 65.6408C93.0382 66.8232 92.4965 68.0824 91.8173 69.0531C91.3415 69.7333 90.2151 70.8413 89.554 71.2796C88.0643 72.2671 86.357 72.7106 84.653 72.5528V72.5528ZM86.1666 68.7836C88.2673 68.3112 89.6898 66.2743 89.8127 63.5627C89.9021 61.5906 89.2823 59.8573 88.0822 58.7231C87.1749 57.8657 86.0936 57.4854 84.9373 57.617C82.9269 57.846 81.3924 59.5534 80.962 62.0403C80.8456 62.7129 80.8745 64.024 81.0213 64.7243C81.2277 65.7093 81.6162 66.5731 82.1605 67.2577C83.1698 68.5271 84.7058 69.1121 86.1666 68.7836ZM21.085 72.3668C21.1013 72.3273 21.6245 71.1834 22.2477 69.8247C22.8709 68.466 24.0547 65.8808 24.8783 64.0797C26.675 60.1508 27.7453 57.8123 28.2437 56.7262C28.4467 56.2838 28.757 55.6043 28.9333 55.2161L29.2538 54.5104L29.8056 54.5267L30.3574 54.5431L31.516 57.157C32.1532 58.5947 33.8213 62.3691 35.2228 65.5447C36.6244 68.7202 37.8813 71.5639 38.016 71.8641L38.261 72.4099L38.1249 72.4279C37.9507 72.451 36.8325 72.1535 36.105 71.8906C35.351 71.6181 34.8138 71.3252 33.5312 70.4874C32.938 70.0998 32.2108 69.6556 31.9152 69.5003C31.2552 69.1534 29.8936 68.6986 28.9345 68.5047C28.1835 68.3529 26.8751 68.2203 26.694 68.2777C26.6298 68.298 26.439 68.6086 26.2086 69.0679C25.7722 69.938 25.5896 70.2201 25.1848 70.6505C24.3823 71.5035 23.2298 72.0905 21.8446 72.3518C21.2734 72.4595 21.0449 72.464 21.085 72.3668V72.3668ZM32.1736 66.0917C32.1736 66.0517 31.9124 65.4276 31.5933 64.7047C31.2741 63.9818 30.7658 62.8281 30.4638 62.1408C29.881 60.8148 29.7975 60.7067 29.6205 61.0493C29.5756 61.1361 29.1844 62.0216 28.7512 63.0169C28.1839 64.32 27.9784 64.8505 28.0171 64.912C28.0466 64.9589 28.1588 65.0158 28.2664 65.0383C29.6722 65.3326 30.4538 65.5717 31.6789 66.0821C32.0198 66.2242 32.1736 66.2271 32.1736 66.0913V66.0917ZM6.90444 71.5913C6.90024 71.1569 6.88081 67.9835 6.86128 64.5394C6.83184 59.3481 6.81208 58.2528 6.74574 58.1338C6.70172 58.0548 6.50454 57.8092 6.30754 57.588C5.56211 56.751 4.9993 55.8431 4.72859 55.0408C4.66356 54.8481 4.61035 54.6355 4.61035 54.5683V54.4462L8.50891 54.4737C11.0186 54.4913 12.5715 54.5249 12.8678 54.5679C16.3181 55.0677 18.6153 56.5471 19.8767 59.0817C21.292 61.9256 21.1076 65.8838 19.4387 68.4831C18.4593 70.0085 16.7503 71.32 14.9983 71.8907C13.8282 72.2719 12.5702 72.3792 9.25697 72.3804L6.91208 72.3812L6.90444 71.5913ZM12.9654 68.5873C14.2891 68.318 15.144 67.8631 15.9328 67.0084C16.866 65.9973 17.3263 64.4313 17.159 62.8362C16.9563 60.9033 16.0591 59.5386 14.479 58.7596C13.5124 58.283 12.2669 58.0482 10.9113 58.0869L10.2784 58.105V63.3904V68.6757L10.5373 68.7143C10.9858 68.781 12.3686 68.7092 12.9654 68.5873ZM40.8051 63.4777V54.5741L40.9532 54.5369C41.0346 54.5165 41.1594 54.5262 41.2304 54.5585C41.3014 54.5909 41.8368 55.0538 42.4201 55.5872C43.0035 56.1207 44.413 57.409 45.5524 58.4502C46.6917 59.4914 48.5509 61.1921 49.6839 62.2295C51.2706 63.6824 51.7729 64.1116 51.8705 64.0978L51.9972 64.0798L52.0119 59.3258L52.0267 54.5719H53.8012H55.5758L55.6133 55.3905C55.6339 55.8408 55.6509 59.8322 55.651 64.2603V72.3114L55.5111 72.3464C55.2864 72.4027 55.1143 72.3013 54.5752 71.7952C54.2959 71.533 53.1096 70.4398 51.9389 69.3659C50.7682 68.292 48.6747 66.366 47.2867 65.0859C45.8987 63.8058 44.7016 62.7342 44.6265 62.7046C44.5513 62.675 44.4699 62.6708 44.4456 62.6954C44.4212 62.7197 44.3944 64.9091 44.3859 67.5606L44.3708 72.3816H42.5879H40.8051V63.4777ZM100.765 65.2595C100.765 58.2773 100.763 58.1366 100.654 58.0783C100.582 58.0399 99.6626 58.0188 98.0644 58.0188H95.5862V56.2954V54.5718H102.578H109.569V56.2954V58.0188H107.091C105.493 58.0188 104.573 58.0399 104.502 58.0783C104.393 58.1366 104.39 58.2773 104.39 65.2595V72.3812H102.578H100.765V65.2595ZM113.003 72.3433C112.982 72.322 112.964 68.3148 112.964 63.4383V54.5719H118.69C124.157 54.5719 124.415 54.577 124.415 54.6749C124.415 54.8971 124.105 55.8321 123.878 56.2954C123.555 56.9538 122.882 57.6503 122.373 57.8528C122.028 57.9898 122.022 57.9902 119.314 58.0066C117.137 58.0199 116.588 58.0382 116.536 58.0998C116.492 58.1528 116.477 58.6857 116.488 59.8355L116.503 61.4946L119.539 61.5095L122.574 61.5244V63.2474V64.9703H119.593C117.352 64.9703 116.595 64.9874 116.544 65.0393C116.493 65.0899 116.474 65.5819 116.474 66.8949C116.474 68.208 116.493 68.6999 116.544 68.7506C116.596 68.8027 117.461 68.8196 120.083 68.8196H123.554L123.539 70.5861L123.524 72.3527L118.283 72.3674C115.4 72.3756 113.024 72.3643 113.003 72.3434L113.003 72.3433ZM68.2529 37.1359C67.6377 36.877 66.3311 36.6871 64.6711 36.6154C64.0161 36.5871 63.7648 36.5567 63.7648 36.5059C63.7648 36.3496 64.2297 35.7308 64.4725 35.564C64.7724 35.3581 64.8581 35.1641 64.8581 34.6918C64.8581 34.2251 64.6746 33.6889 64.3394 33.1763C63.7879 32.3328 63.3693 31.371 63.1287 30.3943C62.9255 29.5693 62.8079 29.6034 62.4741 30.5841C62.1081 31.6594 61.8249 32.1623 61.1462 32.9421C60.3019 33.9122 60.158 34.1641 60.1012 34.7714C60.0553 35.2622 60.1404 35.3526 60.6915 35.3989C61.4968 35.4666 62.336 35.8711 62.5651 36.302C62.6889 36.5349 62.7107 36.9923 62.598 36.9923C62.5576 36.9923 62.4694 36.9538 62.4021 36.9068C62.0114 36.6336 60.3967 36.5697 58.5428 36.7541C57.8459 36.8233 57.5501 36.8341 57.5501 36.7899C57.5501 36.7036 57.9332 36.0741 58.0832 35.914C58.1503 35.8423 58.33 35.7038 58.4824 35.6061C58.65 35.4987 58.7738 35.3718 58.7956 35.285C58.8729 34.9774 58.7639 34.2572 58.5236 33.4879C58.3003 32.773 58.2792 32.6502 58.2544 31.9192C58.2285 31.1588 58.2226 31.1269 58.1091 31.1437C58.0251 31.1561 57.9189 31.3038 57.7427 31.6539C57.4563 32.2224 56.9757 32.8197 56.4836 33.2185C55.9305 33.6666 55.8889 33.6804 55.0084 33.7068C53.1686 33.762 51.1438 33.3589 49.8393 32.6775C49.3928 32.4442 49.1011 32.2471 49.1497 32.2113C49.165 32.1999 49.4754 32.0926 49.8393 31.9728C52.6172 31.0583 54.9056 29.6474 56.4672 27.8865C57.7915 26.3934 58.7005 24.49 59.0188 22.5437C59.1654 21.6471 59.1062 21.3373 58.7879 21.3373C58.5677 21.3373 58.4158 21.5606 58.2167 22.1769C57.746 23.6337 56.7366 24.9089 55.2772 25.8904C54.8387 26.1853 54.1579 26.5584 54.1225 26.5231C54.1077 26.5083 54.1348 26.3096 54.1828 26.0817C54.2812 25.6151 54.2992 24.6669 54.2141 24.4433C54.1172 24.1889 53.973 24.2668 53.6096 24.7699C53.1824 25.3613 51.8566 26.7202 51.0191 27.4253C49.0646 29.0706 46.8532 30.4901 45.1905 31.1666C44.8544 31.3034 44.5742 31.4098 44.568 31.4031C44.5618 31.396 44.7297 31.042 44.9412 30.6154C45.9131 28.6551 46.73 26.3532 47.0718 24.6119C47.2667 23.6192 47.4845 21.9665 47.4371 21.84C47.3879 21.7086 47.241 21.7655 46.9461 22.0302C46.7856 22.1743 46.5397 22.3592 46.3998 22.4411C46.1887 22.5646 46.1359 22.5762 46.0895 22.5093C46.0551 22.4599 46.0453 21.973 46.064 21.2511C46.1048 19.6752 46.2883 18.4787 46.6938 17.1434C47.7228 13.7548 50.2068 10.8031 52.4104 10.3504C52.8151 10.2672 52.9482 10.2634 53.3584 10.3231C54.3424 10.4663 55.4296 11.1732 55.8819 11.9638L56.0455 12.2497L55.8248 12.5135C55.5429 12.8505 55.226 13.4364 55.1093 13.8362C54.9935 14.233 54.9908 15.0895 55.104 15.5232C55.3362 16.4133 55.8528 17.0227 56.6062 17.2951C57.1094 17.477 58.0608 17.4703 58.6102 17.2808C58.8292 17.2053 59.033 17.1035 59.0629 17.0546C59.1013 16.9918 59.0572 16.8052 58.9132 16.4213C58.6311 15.6693 58.5658 15.2334 58.601 14.3352C58.624 13.7479 58.6644 13.4676 58.7843 13.0646C58.9486 12.5124 59.2313 11.8807 59.4733 11.5253C59.6584 11.2535 59.6674 11.0473 59.4967 10.9932C59.3268 10.9395 58.8412 10.4788 58.6274 10.1687C58.4539 9.91701 58.4537 9.91572 58.5914 9.954C58.6675 9.97522 58.9111 10.0215 59.1326 10.0568C59.7206 10.1505 60.0971 10.0389 60.8757 9.53966C61.6755 9.02686 62.0882 8.82251 62.8128 8.58042C63.8415 8.23676 64.6607 8.31758 65.1714 8.81308C65.3115 8.94904 65.5059 9.21799 65.6033 9.41075C65.7176 9.63683 65.816 9.76132 65.8804 9.76146C66.0735 9.76186 66.3607 9.99263 66.4715 10.2364C66.5779 10.4704 66.6355 11.2997 66.5512 11.3839C66.5329 11.4022 66.385 11.3483 66.2226 11.2642C65.9721 11.1345 65.8569 11.1118 65.4646 11.1144C65.0814 11.1175 64.9518 11.1435 64.709 11.2688C64.2134 11.5246 63.5922 12.3154 63.5922 12.6905C63.5922 12.7965 63.6298 12.8061 64.0447 12.8061C65.1957 12.8061 65.9594 13.1947 66.6744 14.1443C67.1444 14.7686 67.4633 15.4966 67.7361 16.5683C67.8245 16.9155 67.9352 17.2237 67.9822 17.2533C68.1068 17.3318 68.6592 17.0451 68.958 16.7468C69.4564 16.2491 69.7252 15.4264 69.6729 14.5583C69.6277 13.8075 69.3868 13.1902 68.9068 12.5953C68.8005 12.4636 68.7136 12.3338 68.7136 12.3069C68.7136 12.2162 69.7754 11.2131 70.0946 11.0023C71.862 9.83524 74.2643 10.2831 75.9634 12.0964C77.7386 13.991 79.0143 16.8205 79.3916 19.7C79.4858 20.4191 79.5379 22.4701 79.4638 22.5443C79.3957 22.6126 78.7323 22.2199 78.5205 21.9858C78.2382 21.6738 78.1343 21.7102 78.0749 22.1424C78.0128 22.5934 78.0676 23.9056 78.1811 24.6834C78.2868 25.4083 78.5676 26.6593 78.9581 28.1451C79.3008 29.449 79.5222 30.1146 79.8799 30.917C80.0314 31.2567 80.1281 31.5346 80.0949 31.5346C79.978 31.5346 78.9219 31.0483 78.4504 30.7772C77.1079 30.0056 75.5426 28.8096 74.4736 27.7385C73.4641 26.7271 72.3706 25.0887 71.5907 23.4192C71.3834 22.9754 71.3072 22.8644 71.2087 22.8623C71.1137 22.8603 71.0773 22.9039 71.0492 23.054C70.9857 23.392 71.0124 24.7054 71.0943 25.2726C71.1376 25.5728 71.1634 25.8293 71.1515 25.8426C71.097 25.9036 70.4769 25.7047 69.9979 25.4725C69.4093 25.1872 68.8925 24.7533 68.6008 24.2995C68.5016 24.1452 68.3847 24.0053 68.341 23.9885C68.1677 23.9221 68.147 24.0872 68.2015 25.1006C68.3621 28.0902 67.8739 30.6205 66.6716 33.0283C66.3169 33.7387 66.237 34.0379 66.2225 34.7102C66.2098 35.2992 66.2264 35.3231 66.7474 35.462C67.8497 35.756 68.656 36.3925 68.656 36.9688C68.656 37.1044 68.6365 37.2274 68.6125 37.2422C68.5886 37.257 68.4268 37.2091 68.2529 37.136L68.2529 37.1359Z" fill="#263238"/>
</svg>
