<svg width="214" height="46" viewBox="0 0 214 46" fill="none" xmlns="http://www.w3.org/2000/svg">
<path d="M64.2922 15.2089V29.2656C64.2922 33.3367 62.3719 35.1034 58.3776 35.1034C54.2297 35.1034 53.2312 32.5686 53.2312 29.4961V28.6511H56.8413V29.2656C56.8413 31.3396 57.2254 32.3381 58.608 32.3381C60.0675 32.3381 60.3747 31.3396 60.3747 29.2656V15.2089H64.2922ZM70.2836 15.2089V28.7279C70.2836 30.6482 70.7444 32.1845 72.5879 32.1845C74.4314 32.1845 74.8155 30.8019 74.8155 28.7279V15.2089H78.6561V28.7279C78.6561 33.7207 75.5836 35.0266 72.4343 35.0266C69.285 35.0266 66.2125 33.9512 66.2125 28.7279V15.2089H70.2836ZM81.0373 34.7961V15.2089H84.9548V31.4932H90.8693V34.6425L81.0373 34.7961ZM93.0969 34.7961V15.2089H96.9375V34.7961H93.0969ZM103.083 15.2089V28.7279C103.083 30.6482 103.543 32.1845 105.31 32.1845C107.23 32.1845 107.614 30.8019 107.614 28.7279V15.2089H111.455V28.7279C111.455 33.7207 108.383 35.0266 105.233 35.0266C102.007 35.0266 99.0115 33.9512 99.0115 28.7279V15.2089H103.083ZM117.139 28.6511V29.2656C117.139 31.1091 117.6 32.3381 119.751 32.3381C120.903 32.3381 122.132 31.4932 122.132 29.9569C122.132 28.1902 121.134 27.4989 118.599 26.654C114.989 25.425 113.452 24.0424 113.452 20.7394C113.452 16.9756 115.833 14.9785 119.52 14.9785C123.054 14.9785 125.512 16.5147 125.512 20.2785V20.893H121.748C121.748 18.9727 121.134 17.8973 119.597 17.8973C117.831 17.8973 117.37 18.9727 117.37 20.1249C117.37 21.3539 117.754 22.0452 119.367 22.7365L122.439 24.0424C125.435 25.3482 126.203 26.8844 126.203 29.2656C126.203 33.3367 123.745 35.257 119.367 35.257C114.912 35.257 113.145 33.1062 113.145 29.5729V28.7279H117.139V28.6511ZM131.196 15.2089H137.802C140.951 15.2089 143.332 16.3611 143.332 20.1249C143.332 22.2757 142.257 23.9655 140.413 24.4264C142.487 24.7337 143.947 26.2699 143.947 28.8815C143.947 31.9541 142.411 34.5657 137.802 34.5657H131.196V15.2089ZM135.19 23.1974H136.342C138.493 23.1974 139.569 22.5061 139.569 20.6626C139.569 18.7423 138.647 18.051 136.726 18.051H135.344L135.19 23.1974ZM135.19 31.8004H136.726C138.647 31.8004 139.876 31.1091 139.876 28.8815C139.876 26.654 138.647 25.9627 136.957 25.9627H135.344L135.19 31.8004ZM156.775 15.2089V18.3582H149.861V22.967H155.853V26.1931H149.861V31.4932H157.005V34.6425H145.79V15.2089H156.775ZM158.925 15.2089H166.223C169.372 15.2089 171.446 16.822 171.446 20.2785C171.446 22.8902 170.37 24.6569 168.143 25.1177C170.831 25.425 171.139 26.9612 171.292 31.1091C171.292 33.1062 171.523 34.7961 171.523 34.7961H167.528L167.375 32.799L167.298 29.0352C167.298 27.4989 166.607 26.5004 164.917 26.5004H162.766V34.7961H158.925V15.2089ZM162.92 23.8119H164.533C166.453 23.8119 167.528 22.967 167.528 20.893C167.528 19.1263 166.607 18.1278 164.84 18.1278H162.92V23.8119ZM201.403 15.2089H208.7C211.849 15.2089 213.846 16.822 213.846 20.2785C213.846 22.8902 212.848 24.6569 210.543 25.1177C213.309 25.425 213.616 26.9612 213.77 31.1091C213.77 33.1062 214 34.7961 214 34.7961H210.006L209.852 32.799L209.775 29.0352C209.775 27.4989 209.007 26.5004 207.394 26.5004H205.243V34.7961H201.403V15.2089ZM205.397 23.8119H207.01C208.93 23.8119 210.006 22.967 210.006 20.893C210.006 19.1263 209.007 18.1278 207.24 18.1278H205.397V23.8119ZM182.123 21.1235C182.123 19.664 181.431 17.8205 179.895 17.8205C178.052 17.8205 177.207 19.8177 177.207 24.6569C177.207 29.3424 177.668 32.3381 179.895 32.3381C180.817 32.3381 182.353 31.2627 182.353 29.2656V27.1149H179.818V24.196H186.194V34.6425H183.198V33.0294C182.784 33.7511 182.176 34.3422 181.442 34.7359C180.709 35.1296 179.881 35.3101 179.05 35.257C174.211 35.257 173.289 31.57 173.289 24.8873C173.289 18.2814 174.826 14.9785 179.895 14.9785C184.273 14.9785 185.887 17.206 185.887 21.1235H182.123ZM199.252 15.2089V18.3582H192.262V22.967H198.33V26.1931H192.262V31.4932H199.482V34.6425H188.268V15.2089H199.252ZM42.0933 0H3.76382C1.68988 0 0 1.61307 0 3.76382V42.0933C0 44.0905 1.68988 45.8571 3.76382 45.8571H42.0933C44.0905 45.8571 45.8571 44.2441 45.8571 42.0933V3.76382C45.7803 1.61307 44.0905 0 42.0933 0ZM43.7832 42.0933C43.7832 43.0151 43.0919 43.7064 42.0933 43.7064H3.76382C2.84207 43.7064 2.15075 43.0151 2.15075 42.0933V3.76382C2.15075 2.84207 2.84207 2.15075 3.76382 2.15075H42.0933C43.0919 2.15075 43.7832 2.84207 43.7832 3.76382V42.0933Z" fill="#263238"/>
</svg>
