<svg width="83" height="69" viewBox="0 0 83 69" fill="none" xmlns="http://www.w3.org/2000/svg">
<g clip-path="url(#clip0_307_4016)">
<path d="M14.2685 56.1133C11.9533 51.6766 10.7391 46.7481 10.7285 41.7436C10.7285 24.6669 24.5772 10.8175 41.6547 10.8175C50.2975 10.8175 58.2112 14.2537 64.1462 20.5015L61.5429 22.8965C56.3363 17.378 49.2556 14.3582 41.6547 14.3582C26.5558 14.3582 14.2685 26.6448 14.2685 41.7436C14.2685 46.221 15.3104 50.5947 17.3928 54.4474L14.2685 56.1133Z" fill="#263238"/>
<path d="M11.6847 62.0469C7.61144 55.9866 5.41846 48.985 5.41846 41.6707C5.52296 21.7125 21.7114 5.51642 41.7633 5.51642C47.5754 5.51786 53.3024 6.91349 58.4636 9.5862C63.6247 12.2589 68.0695 16.1307 71.4247 20.8765L68.5002 22.9666C65.4854 18.6751 61.4822 15.1721 56.8286 12.7533C52.1751 10.3346 47.0079 9.07104 41.7633 9.06946C23.6954 9.06946 9.07369 23.6981 9.07369 41.7752C9.07369 48.358 11.0584 54.7326 14.7137 60.1659L11.6847 62.0469Z" fill="#263238"/>
<path d="M9.71251 68.5039C3.4486 60.9852 0.00390625 51.4818 0.00390625 41.7701C0.00390625 18.796 18.6896 -0.00113678 41.7605 -0.00113678C57.1053 -0.00113678 71.0938 8.3528 78.4012 21.8242L75.2692 23.4955C72.0013 17.4584 67.1617 12.4173 61.2628 8.90605C55.3639 5.39478 48.6253 3.54397 41.7605 3.5496C20.6736 3.5496 3.5531 20.6755 3.5531 41.7701C3.5531 50.751 6.68506 59.4185 12.4265 66.2064L9.71251 68.5039Z" fill="#263238"/>
<path d="M30.5019 34.1821V36.8901H28.7319V46.4701H25.8159V36.8901H24.3579V34.1821H25.8159V31.9951C26.2329 32.8291 27.8979 33.0371 28.7319 34.1821H30.5019ZM40.1859 46.4701V40.2221C40.1859 38.4521 39.8739 36.4741 37.6869 36.4741C35.4999 36.4741 35.1869 38.5561 35.1869 40.2221V46.4701H32.2719V30.1211H35.1879V35.0151C36.1249 34.1821 37.1659 33.7651 38.3119 33.7651C40.0819 33.7651 41.8519 34.8071 42.5819 36.3691C42.9979 37.3071 43.1019 38.4511 43.1019 39.4931V46.4701H40.1859ZM47.9959 39.5971V46.4691H44.9759V34.1821H47.6829V35.3281C48.4129 34.2861 49.0369 33.7661 50.3909 33.7661H50.5989V36.5771C48.7249 36.6821 47.9959 37.7231 47.9959 39.5971ZM52.1599 32.8291V30.1211H55.0759V32.8291H52.1609H52.1599ZM52.1599 46.4691V34.1831H55.0759V46.4711H52.1609L52.1599 46.4691ZM63.8229 46.5741H61.5329L56.5339 34.2861H59.7619L62.7819 42.4081L65.5939 34.2861H68.8219L63.8229 46.5741ZM76.1099 33.6621C75.3809 33.6621 74.6529 33.7661 74.0279 33.9741C71.4249 34.9111 69.6539 37.4101 69.6539 40.3261C69.6539 43.5541 71.9439 46.1571 74.9639 46.7821C76.6299 46.0521 77.9839 44.8031 78.7139 42.9291C78.7139 42.8251 78.6089 42.8251 78.6089 42.9291C77.9839 43.7621 77.1509 44.1791 76.1099 44.1791C74.5479 44.1791 73.1939 43.0331 72.8819 41.5751H82.4619C82.5659 41.0551 82.6699 40.6381 82.6699 40.1181C82.4619 36.6811 79.6499 33.6621 76.1099 33.6621ZM72.6739 39.2851C73.0899 37.6191 74.4439 36.3691 76.2139 36.3691C76.9439 36.3691 77.5679 36.5781 78.0889 36.8891C78.8169 37.4101 79.4419 38.2431 79.6499 39.1801H72.6739V39.2851Z" fill="#263238"/>
<path d="M82.0468 42.6175C81.3176 45.1163 78.7143 46.8867 76.1118 46.8867C75.799 46.8867 75.4871 46.8867 75.1743 46.7822C75.3826 46.6785 75.5908 46.6785 75.799 46.574C77.1529 45.9493 78.0896 45.0126 78.7143 43.6587C79.027 42.9295 79.7562 42.6175 80.4847 42.6175H82.0468Z" fill="#263238"/>
<path d="M28.7322 30.2281V33.3516C27.8992 32.2059 26.1289 31.9977 25.8169 31.1647C25.7124 31.061 25.7124 30.9565 25.7124 30.7483V27.7285C26.7536 27.4165 28.7322 28.6659 28.7322 30.2281Z" fill="#263238"/>
<path d="M58.7211 53.6552V52.9272C58.5131 53.1352 58.4081 53.3432 58.2011 53.4472C57.7818 53.6606 57.3166 53.768 56.8461 53.7602C55.3891 53.7602 54.3481 52.6142 54.3481 51.1562C54.3481 49.6992 55.3881 48.5532 56.9511 48.5532C57.5761 48.5532 58.4081 48.8662 58.7211 49.3862V48.6582H59.5541V53.5522H58.7211V53.6552ZM56.9511 49.4912C56.0131 49.4912 55.2851 50.3242 55.2851 51.2612C55.2851 52.1982 56.0131 53.0312 56.9511 53.0312C57.8881 53.0312 58.6171 52.1982 58.6171 51.2612C58.7211 50.3242 57.9921 49.4912 56.9511 49.4912ZM63.0941 55.6342C62.3651 55.6342 61.8441 55.4252 61.3241 54.9042C61.0111 54.5932 60.9081 54.4882 60.6991 54.0722H61.7411C62.0531 54.5922 62.5741 54.8012 63.1981 54.8012C64.2391 54.8012 64.9681 54.1762 64.9681 53.1352V53.0302C64.7561 53.2948 64.4864 53.5074 64.1796 53.6518C63.8729 53.7961 63.5372 53.8685 63.1981 53.8632C62.8554 53.8666 62.5154 53.8015 62.1981 53.6719C61.8808 53.5422 61.5925 53.3506 61.3501 53.1083C61.1077 52.8659 60.9161 52.5776 60.7865 52.2603C60.6569 51.943 60.5918 51.603 60.5951 51.2602C60.5951 49.8022 61.8451 48.6582 63.3021 48.6582C64.0321 48.6582 64.5521 48.8662 65.0721 49.3862V48.7612H65.8021V53.1352C65.8021 54.6962 64.5521 55.6342 63.0941 55.6342ZM63.0941 49.4902C62.1571 49.4902 61.3241 50.3232 61.3241 51.2602C61.3241 52.1972 62.0531 53.0302 62.9901 53.0302C64.0311 53.0302 64.7601 52.1972 64.7601 51.1562C64.8641 50.2192 64.0311 49.4902 63.0941 49.4902ZM67.8841 51.0532V53.7602H66.9471V48.8662H67.8841V49.2822C68.1961 48.8662 68.6131 48.7622 69.1341 48.7622V49.6992C68.1961 49.6992 67.8841 50.1152 67.8841 51.0532ZM69.8631 48.2412V47.1992H70.8001V48.2392H69.8631V48.2412ZM69.8631 53.6562V48.7622H70.8001V53.6562H69.8631ZM74.1311 53.8632C72.6741 53.8632 71.6331 52.7182 71.6331 51.2602C71.6331 49.8022 72.6731 48.6572 74.1311 48.6572C75.1731 48.6572 76.3181 49.3862 76.5271 50.4272H75.4851C75.1731 49.8022 74.7561 49.4902 74.1311 49.4902C73.1951 49.4902 72.4661 50.3232 72.4661 51.2602C72.4661 52.1982 73.0901 53.0302 74.0281 53.0302C74.6521 53.0302 75.1731 52.6142 75.4851 52.0932H76.5271C76.3751 52.609 76.0588 53.061 75.6263 53.3805C75.1938 53.7 74.6688 53.8695 74.1311 53.8632Z" fill="#263238"/>
</g>
<defs>
<clipPath id="clip0_307_4016">
<rect width="83" height="69" fill="white"/>
</clipPath>
</defs>
</svg>
