<svg width="106" height="112" viewBox="0 0 106 112" fill="none" xmlns="http://www.w3.org/2000/svg">
<g clip-path="url(#clip0_307_4025)">
<path fill-rule="evenodd" clip-rule="evenodd" d="M10.7483 30.8647L10.9336 30.1254L11.119 29.2013L19.2728 0L106 0.184818L10.1924 77.9934L53.9266 25.3201H21.1259L19.2728 25.505C15.3812 25.6898 11.8602 28.0924 10.7483 30.8647Z" fill="#263238"/>
<path fill-rule="evenodd" clip-rule="evenodd" d="M101.367 53.4123C101.367 53.0427 98.5872 69.8612 93.9543 87.2341L3.33545 87.7886L101.182 8.87109L57.262 61.914H90.248L92.1012 61.7292C95.9928 61.5444 100.07 56.1846 101.367 53.4123Z" fill="#263238"/>
<path fill-rule="evenodd" clip-rule="evenodd" d="M15.3811 112.001H0L10.5629 97.5855H3.52098L4.07692 93.5195H18.7168L8.15385 107.935H15.9371L15.3811 112.001ZM18.3462 112.001L20.7552 93.5195H31.3182L30.7622 97.5855H24.8322L24.4615 100.727H30.021L29.6504 104.793H23.9056L23.535 107.935H29.465L28.9091 112.001H18.3462ZM32.0594 112.001L34.4685 93.5195H39.1014L44.4755 103.13L44.8462 104.239L45.5874 106.272C45.5984 105.099 45.6602 103.928 45.7727 102.76L46.8846 93.5195H51.5175L49.1084 112.001H44.6608L39.2867 102.576L38.7308 101.282L37.9895 99.2489C37.98 100.483 37.9182 101.716 37.8042 102.945L36.6923 112.001H32.0594ZM53 112.001L55.4091 93.5195H60.2273L57.8182 112.001H53ZM64.1189 112.001L65.972 97.9552H62.0804L62.6364 93.5195H75.2378L74.6818 97.9552H70.7902L68.9371 112.001H64.1189ZM75.0525 112.001L77.4615 93.5195H82.2797L81.3532 100.727H87.6539L88.5804 93.5195H93.3986L90.9895 112.001H86.1713L87.0979 104.424H80.7972L79.8706 112.001H75.0525Z" fill="#263238"/>
</g>
<defs>
<clipPath id="clip0_307_4025">
<rect width="106" height="112" fill="white"/>
</clipPath>
</defs>
</svg>
