<svg width="7" height="12" viewBox="0 0 7 12" fill="none" xmlns="http://www.w3.org/2000/svg">
<path d="M2.02796 0.467309C1.73376 0.175726 1.25889 0.177844 0.967309 0.472041C0.675726 0.766238 0.677844 1.24111 0.972041 1.53269L2.73501 3.28C3.4505 3.98914 3.94131 4.47718 4.27341 4.89071C4.596 5.2924 4.70668 5.55042 4.73613 5.7815C4.75462 5.92659 4.75462 6.07341 4.73613 6.2185C4.70668 6.44958 4.596 6.7076 4.27341 7.10929C3.94131 7.52282 3.4505 8.01086 2.73501 8.72L0.972041 10.4673C0.677844 10.7589 0.675726 11.2338 0.967309 11.528C1.25889 11.8222 1.73376 11.8243 2.02796 11.5327L3.82269 9.7539C4.49866 9.08396 5.05114 8.53641 5.44294 8.04854C5.85037 7.54122 6.14531 7.02628 6.22409 6.40816C6.25864 6.13714 6.25864 5.86286 6.22409 5.59184C6.14531 4.97372 5.85037 4.45878 5.44294 3.95146C5.05114 3.46359 4.49866 2.91604 3.82269 2.24609L2.02796 0.467309Z" fill="#66CC99"/>
</svg>
