<svg width="24" height="24" viewBox="0 0 24 24" fill="none" xmlns="http://www.w3.org/2000/svg">
<path d="M12.75 13C12.75 12.5858 12.4142 12.25 12 12.25C11.5858 12.25 11.25 12.5858 11.25 13V17C11.25 17.4142 11.5858 17.75 12 17.75C12.4142 17.75 12.75 17.4142 12.75 17V13Z" fill="#2D264B"/>
<path fill-rule="evenodd" clip-rule="evenodd" d="M12 1.25C8.82433 1.25 6.24996 3.82436 6.24996 7V7.52281L6.22312 7.53142C4.4726 8.1002 3.10017 9.47263 2.53139 11.2232C2.24952 12.0907 2.24968 13.1319 2.24995 14.8382V15.1618C2.24968 16.8681 2.24952 17.9093 2.53139 18.7768C3.10017 20.5274 4.4726 21.8998 6.22312 22.4686C7.09063 22.7505 8.13184 22.7503 9.8381 22.75H14.1618C15.8681 22.7503 16.9093 22.7505 17.7768 22.4686C19.5273 21.8998 20.8998 20.5274 21.4685 18.7768C21.7504 17.9093 21.7502 16.8681 21.75 15.1619V14.8381C21.7502 13.1319 21.7504 12.0907 21.4685 11.2232C20.8998 9.47263 19.5273 8.1002 17.7768 7.53142L17.75 7.52281V7C17.75 3.82436 15.1756 1.25 12 1.25ZM9.91599 7.25C9.03679 7.24997 8.33507 7.24994 7.74996 7.28306V7C7.74996 4.65279 9.65275 2.75 12 2.75C14.3472 2.75 16.25 4.65279 16.25 7V7.28306C15.6649 7.24994 14.9631 7.24997 14.0839 7.25H9.91599ZM7.12456 8.85329C7.72216 8.75262 8.52811 8.75 9.99996 8.75H14C15.4718 8.75 16.2778 8.75262 16.8754 8.85329C17.0406 8.88113 17.1831 8.91571 17.3133 8.95801C18.6071 9.37841 19.6216 10.3928 20.042 11.6867C20.2407 12.2984 20.25 13.0803 20.25 15C20.25 16.9197 20.2407 17.7016 20.042 18.3133C19.6216 19.6072 18.6071 20.6216 17.3133 21.042C16.7016 21.2407 15.9196 21.25 14 21.25H9.99996C8.08031 21.25 7.29835 21.2407 6.68664 21.042C5.39278 20.6216 4.37838 19.6072 3.95797 18.3133C3.75922 17.7016 3.74996 16.9197 3.74996 15C3.74996 13.0803 3.75922 12.2984 3.95797 11.6867C4.37838 10.3928 5.39278 9.37841 6.68664 8.95801C6.81682 8.91571 6.95931 8.88113 7.12456 8.85329Z" fill="#2D264B"/>
</svg>
