<svg width="24" height="24" viewBox="0 0 24 24" fill="none" xmlns="http://www.w3.org/2000/svg">
<path d="M15.5841 10.4706C15.844 10.148 15.7932 9.67589 15.4707 9.416C15.1481 9.15611 14.676 9.20689 14.4161 9.52943L12.3946 12.0382C11.9795 12.5533 11.7176 12.8755 11.4997 13.0791C11.3972 13.1747 11.3318 13.2173 11.2942 13.2361C11.2662 13.2501 11.2562 13.25 11.2508 13.25H11.2494C11.244 13.25 11.234 13.2501 11.206 13.2361C11.1684 13.2173 11.103 13.1747 11.0006 13.0791C10.7826 12.8755 10.5207 12.5533 10.1056 12.0382L9.58411 11.391C9.32422 11.0685 8.85207 11.0177 8.52954 11.2776C8.207 11.5375 8.15621 12.0096 8.4161 12.3321L8.97018 13.0198C9.34269 13.4822 9.67134 13.8901 9.97675 14.1753C10.3047 14.4816 10.7124 14.75 11.2501 14.75C11.7878 14.75 12.1955 14.4816 12.5235 14.1753C12.8289 13.8901 13.1575 13.4822 13.5301 13.0198L15.5841 10.4706Z" fill="#2D264B"/>
<path fill-rule="evenodd" clip-rule="evenodd" d="M9.56299 1.25C8.0212 1.25 6.77132 2.49987 6.77132 4.04167C6.77132 4.75503 6.19303 5.33333 5.47966 5.33333H5.17079C3.59474 5.33333 2.19082 6.55273 2.27633 8.24648C2.37785 10.2575 2.8245 13.3918 4.45366 16.3608C4.90995 17.1923 5.51934 18.0092 6.1781 18.7703L6.2277 18.8276C7.17537 19.9226 7.96553 20.8356 8.815 21.4579C9.72868 22.1273 10.7039 22.4607 12.0002 22.4607C13.2965 22.4607 14.2716 22.1273 15.1853 21.4579C16.0348 20.8356 16.8249 19.9226 17.7726 18.8276L17.8222 18.7703C18.481 18.0092 19.0904 17.1923 19.5467 16.3608C21.23 13.2931 21.6497 9.82667 21.7325 7.66561C21.7971 5.97999 20.4032 4.75 18.8183 4.75H18.229C17.6767 4.75 17.229 4.30228 17.229 3.75C17.229 2.36929 16.1097 1.25 14.729 1.25H9.56299ZM8.27132 4.04167C8.27132 3.3283 8.84962 2.75 9.56299 2.75H14.729C15.2813 2.75 15.729 3.19772 15.729 3.75C15.729 5.13071 16.8483 6.25 18.229 6.25H18.8183C19.656 6.25 20.2618 6.8731 20.2336 7.60819C20.1545 9.67293 19.7519 12.8686 18.2316 15.6392C17.8427 16.348 17.3041 17.0768 16.688 17.7886C15.6779 18.9557 14.9958 19.7373 14.2989 20.2479C13.6513 20.7223 12.989 20.9607 12.0002 20.9607C11.0114 20.9607 10.349 20.7223 9.70146 20.2479C9.00448 19.7373 8.32239 18.9557 7.31227 17.7886C6.69619 17.0768 6.15763 16.348 5.76869 15.6392C4.2902 12.9448 3.86987 10.0616 3.77442 8.17085C3.7381 7.45149 4.33065 6.83333 5.17079 6.83333H5.47966C7.02145 6.83333 8.27132 5.58346 8.27132 4.04167Z" fill="#2D264B"/>
</svg>
