<svg width="24" height="24" viewBox="0 0 24 24" fill="none" xmlns="http://www.w3.org/2000/svg">
<path fill-rule="evenodd" clip-rule="evenodd" d="M22.4685 4.58568C22.792 4.32692 22.8444 3.85495 22.5856 3.53151C22.3269 3.20806 21.8549 3.15562 21.5315 3.41438L18.2062 6.07464C16.5289 4.56835 14.3896 3.25003 12 3.25003C9.85904 3.25003 7.92324 4.30902 6.35172 5.59574C4.77163 6.88949 3.47961 8.47868 2.61141 9.68804L2.53981 9.78762C2.01715 10.5139 1.58692 11.1117 1.58691 12C1.58691 12.8883 2.01706 13.4861 2.53961 14.2122L2.61118 14.3117C3.15748 15.0727 3.86906 15.9805 4.71223 16.8698L1.53148 19.4144C1.20803 19.6731 1.15559 20.1451 1.41435 20.4685C1.6731 20.792 2.14507 20.8444 2.46852 20.5857L22.4685 4.58568ZM12 4.75003C13.7777 4.75003 15.5023 5.70932 17.0173 7.02574L14.4006 9.11909C13.7506 8.57707 12.9133 8.25003 12 8.25003C9.92893 8.25003 8.25 9.92896 8.25 12C8.25 12.6154 8.39868 13.1971 8.66189 13.71L5.888 15.9292C5.06699 15.0746 4.36799 14.1868 3.82971 13.4369C3.20592 12.568 3.08691 12.3585 3.08691 12C3.08692 11.6415 3.20597 11.432 3.82992 10.5628C4.65919 9.40768 5.86348 7.93417 7.302 6.75634C8.74909 5.57149 10.3542 4.75003 12 4.75003ZM12 9.75003C12.4362 9.75003 12.8433 9.87383 13.1883 10.0889L9.87433 12.7401C9.79374 12.5085 9.75 12.2596 9.75 12C9.75 10.7574 10.7574 9.75003 12 9.75003Z" fill="#2D264B"/>
<path d="M20.3953 8.39079C20.1332 8.07006 19.6607 8.02255 19.34 8.28467C19.0193 8.54679 18.9718 9.01928 19.2339 9.34001C19.5844 9.76888 19.8981 10.184 20.17 10.5627C20.794 11.4319 20.9131 11.6415 20.9131 12C20.9131 12.3585 20.794 12.5681 20.1701 13.4372C19.3408 14.5924 18.1365 16.0659 16.698 17.2437C15.2509 18.4286 13.6458 19.25 12 19.25C10.5952 19.25 9.21818 18.6521 7.93753 17.7322C7.6011 17.4906 7.13249 17.5674 6.89085 17.9038C6.6492 18.2403 6.72604 18.7089 7.06246 18.9505C8.487 19.9737 10.1676 20.75 12 20.75C14.141 20.75 16.0768 19.691 17.6483 18.4043C19.2284 17.1106 20.5204 15.5214 21.3886 14.312L21.4602 14.2124C21.9829 13.4862 22.4131 12.8884 22.4131 12C22.4131 11.1117 21.9828 10.5138 21.4601 9.78754L21.3885 9.68796C21.1009 9.28725 20.7682 8.84696 20.3953 8.39079Z" fill="#2D264B"/>
<path d="M15.75 12C15.75 11.5858 15.4142 11.25 15 11.25C14.5858 11.25 14.25 11.5858 14.25 12C14.25 13.2427 13.2426 14.25 12 14.25C11.5858 14.25 11.25 14.5858 11.25 15C11.25 15.4142 11.5858 15.75 12 15.75C14.0711 15.75 15.75 14.0711 15.75 12Z" fill="#2D264B"/>
</svg>
